<svg xmlns="http://www.w3.org/2000/svg" width="66.9" height="52.848" viewBox="0 0 66.9 52.848">
  <g id="noun_education_scholarship_2018911" data-name="noun_education scholarship_2018911" transform="translate(-6.1 -1.025)">
    <g id="Group_5044" data-name="Group 5044" transform="translate(6.1 1.025)">
      <g id="Group_5041" data-name="Group 5041" transform="translate(14.176 20.803)">
        <path id="Path_11012" data-name="Path 11012" d="M19.241,34.253a33.479,33.479,0,0,1,35.067,0c.87.5,1.741-.331,1.741-1.488V20.534a2.068,2.068,0,0,0-.87-1.653,34.988,34.988,0,0,0-36.932,0,1.667,1.667,0,0,0-.746,1.488V32.6C17.5,33.922,18.37,34.748,19.241,34.253Zm.746-12.561a33.015,33.015,0,0,1,33.574,0v8.595a34.646,34.646,0,0,0-33.574,0Z" transform="translate(-17.5 -13.612)" fill="#0d1f3c"/>
      </g>
      <g id="Group_5042" data-name="Group 5042">
        <path id="Path_11013" data-name="Path 11013" d="M72.13,15.694,39.923,1.149a.623.623,0,0,0-.746,0L6.97,15.694a1.706,1.706,0,0,0,0,2.975l3.109,1.488V41.147a5.063,5.063,0,0,0-2.363,4.628v6.446c0,.992.5,1.653,1.243,1.653h4.85c.746,0,1.243-.661,1.243-1.653V45.775a5.063,5.063,0,0,0-2.363-4.628V21.313l8.58,3.967a.991.991,0,0,0,.995,0,33.04,33.04,0,0,1,34.818,0,.991.991,0,0,0,.995,0L72.13,18.834A1.577,1.577,0,0,0,73,17.346,2.157,2.157,0,0,0,72.13,15.694ZM12.566,50.568H10.2V45.775c0-.826.5-1.488,1.119-1.488s1.119.661,1.119,1.488v4.793ZM57.581,21.974a35.037,35.037,0,0,0-35.937,0L11.323,17.346,39.55,4.455,67.9,17.346Z" transform="translate(-6.1 -1.025)" fill="#0d1f3c"/>
      </g>
    </g>
  </g>
</svg>
