<svg xmlns="http://www.w3.org/2000/svg" width="39.518" height="51.484" viewBox="0 0 39.518 51.484">
  <g id="noun_Flag_758383" transform="translate(-17 -7.008)">
    <g id="Group_5037" data-name="Group 5037" transform="translate(17 7.008)">
      <path id="Path_11003" data-name="Path 11003" d="M30.079,959.379a23.981,23.981,0,0,0-12.237,3.78A1.831,1.831,0,0,0,17,964.674v44.383a1.8,1.8,0,0,0,3.593,0V987.315a20.528,20.528,0,0,1,18.449-1.029c5.289,2.288,9.315,2.754,12.088,2.6a11.776,11.776,0,0,0,4.472-1.048,1.834,1.834,0,0,0,.917-1.553v-21.63a1.8,1.8,0,0,0-2.657-1.59,6.683,6.683,0,0,1-2.9.561c-2.181.107-5.635-.239-10.516-2.283a25.22,25.22,0,0,0-8.551-1.946c-.6-.029-1.211-.036-1.815-.019Zm.225,3.555c.475-.011.946,0,1.422.019a21.81,21.81,0,0,1,7.335,1.7c5.307,2.222,9.331,2.7,12.087,2.563a10.446,10.446,0,0,0,1.778-.3v18.094a9.362,9.362,0,0,1-1.983.3c-2.178.12-5.631-.223-10.478-2.32a24.162,24.162,0,0,0-19.871.356V965.722A20.374,20.374,0,0,1,30.3,962.934Z" transform="translate(-17 -959.37)" fill="#0d1f3c"/>
    </g>
  </g>
</svg>
