<svg id="noun_team_2006862" xmlns="http://www.w3.org/2000/svg" width="72.75" height="72.75" viewBox="0 0 72.75 72.75">
  <g id="Group_5038" data-name="Group 5038">
    <rect id="Rectangle_164" data-name="Rectangle 164" width="72.75" height="72.75" fill="none"/>
    <path id="Path_11004" data-name="Path 11004" d="M10,49.831a18.189,18.189,0,0,1,36.2,0h-3.66a14.552,14.552,0,0,0-28.875,0ZM28.1,29.825A10.912,10.912,0,1,1,39.01,18.913,10.913,10.913,0,0,1,28.1,29.825Zm0-3.637a7.275,7.275,0,1,0-7.275-7.275A7.275,7.275,0,0,0,28.1,26.187Z" transform="translate(8.188 6.55)" fill="#0d1f3c"/>
    <path id="Path_11005" data-name="Path 11005" d="M48.9,32.731H45.258a9.094,9.094,0,0,0-15.551-6.4,21.941,21.941,0,0,0-2.794-2.344A12.731,12.731,0,0,1,48.9,32.731Z" transform="translate(22.036 16.375)" fill="#0d1f3c"/>
    <path id="Path_11006" data-name="Path 11006" d="M34.456,19.275a1.819,1.819,0,1,0-1.819-1.819A1.819,1.819,0,0,0,34.456,19.275Zm0,3.638a5.456,5.456,0,1,1,5.456-5.456A5.456,5.456,0,0,1,34.456,22.912Z" transform="translate(23.744 9.825)" fill="#0d1f3c"/>
    <path id="Path_11007" data-name="Path 11007" d="M21.982,0H18.344A9.094,9.094,0,0,1,9.251,9.094,9.066,9.066,0,0,1,2.794,6.4,21.951,21.951,0,0,1,0,8.747a12.7,12.7,0,0,0,9.251,3.984A12.731,12.731,0,0,0,21.982,0Z" transform="translate(23.801 49.106) rotate(180)" fill="#0d1f3c"/>
    <path id="Path_11008" data-name="Path 11008" d="M5.456,3.637A1.819,1.819,0,1,1,3.638,5.456,1.819,1.819,0,0,1,5.456,3.637ZM5.456,0a5.456,5.456,0,1,0,5.456,5.456A5.456,5.456,0,0,0,5.456,0Z" transform="translate(20.006 32.737) rotate(180)" fill="#0d1f3c"/>
  </g>
</svg>
