<svg xmlns="http://www.w3.org/2000/svg" width="30" height="30" viewBox="0 0 30 30">
  <g id="Group_5554" data-name="Group 5554" transform="translate(-10 -10)">
    <path id="Path_12637" data-name="Path 12637" d="M39.069,32.511a6.558,6.558,0,1,0,6.558,6.558A6.566,6.566,0,0,0,39.069,32.511ZM35.54,43.672a3.51,3.51,0,0,1,2.5-3.293.375.375,0,0,0,.07-.688,2.17,2.17,0,1,1,2.016.026.375.375,0,0,0,.052.69,3.525,3.525,0,0,1,2.42,3.266,5.769,5.769,0,0,1-7.06,0Zm7.748-.621a4.271,4.271,0,0,0-2.214-3.076,2.917,2.917,0,1,0-3.914-.052,4.246,4.246,0,0,0-2.314,3.123,5.808,5.808,0,1,1,8.441,0Z" transform="translate(-14.069 -14.069)" fill="#0b1f44"/>
    <path id="Path_12638" data-name="Path 12638" d="M72.353,16.249a4.885,4.885,0,1,0-4.885,4.885A4.891,4.891,0,0,0,72.353,16.249ZM65,19.56A2.455,2.455,0,0,1,66.748,17.3a.375.375,0,0,0,.07-.688,1.482,1.482,0,1,1,1.376.018.375.375,0,0,0,.052.69,2.465,2.465,0,0,1,1.689,2.239,4.1,4.1,0,0,1-4.933,0Zm-1.668-3.31A4.135,4.135,0,1,1,70.6,18.936a3.213,3.213,0,0,0-1.5-2.048,2.23,2.23,0,1,0-3.2-.043,3.194,3.194,0,0,0-1.574,2.091A4.114,4.114,0,0,1,63.333,16.249Z" transform="translate(-32.864 -0.853)" fill="#0b1f44"/>
    <path id="Path_12639" data-name="Path 12639" d="M16.249,11.364a4.885,4.885,0,1,0,4.885,4.885A4.891,4.891,0,0,0,16.249,11.364Zm-2.467,8.2A2.455,2.455,0,0,1,15.529,17.3a.375.375,0,0,0,.071-.688,1.481,1.481,0,1,1,1.376.018.375.375,0,0,0,.052.69,2.466,2.466,0,0,1,1.689,2.239,4.1,4.1,0,0,1-4.933,0Zm5.6-.623a3.213,3.213,0,0,0-1.5-2.048,2.23,2.23,0,1,0-3.2-.043,3.194,3.194,0,0,0-1.574,2.091,4.135,4.135,0,1,1,6.272,0Z" transform="translate(-0.853 -0.853)" fill="#0b1f44"/>
    <path id="Path_12640" data-name="Path 12640" d="M67.468,62.688a4.885,4.885,0,1,0,4.885,4.885A4.891,4.891,0,0,0,67.468,62.688ZM65,70.884a2.455,2.455,0,0,1,1.746-2.259.375.375,0,0,0,.07-.688,1.482,1.482,0,1,1,1.376.017.375.375,0,0,0,.052.69,2.466,2.466,0,0,1,1.689,2.239,4.1,4.1,0,0,1-4.933,0Zm5.6-.623a3.213,3.213,0,0,0-1.5-2.048,2.23,2.23,0,1,0-3.2-.043,3.192,3.192,0,0,0-1.574,2.091,4.135,4.135,0,1,1,6.272,0Z" transform="translate(-32.864 -32.93)" fill="#0b1f44"/>
    <path id="Path_12641" data-name="Path 12641" d="M16.249,62.688a4.885,4.885,0,1,0,4.885,4.885A4.891,4.891,0,0,0,16.249,62.688Zm-2.467,8.2a2.455,2.455,0,0,1,1.746-2.259.375.375,0,0,0,.071-.688,1.482,1.482,0,1,1,1.376.017.375.375,0,0,0,.052.69,2.466,2.466,0,0,1,1.689,2.239,4.1,4.1,0,0,1-4.933,0Zm5.6-.623a3.213,3.213,0,0,0-1.5-2.048,2.23,2.23,0,1,0-3.2-.043,3.192,3.192,0,0,0-1.574,2.091,4.135,4.135,0,1,1,6.272,0Z" transform="translate(-0.853 -32.93)" fill="#0b1f44"/>
    <path id="Path_12642" data-name="Path 12642" d="M36.735,10.025a.376.376,0,0,0-.484.216L35.769,11.5a.374.374,0,0,0,.216.484l1.258.482a.375.375,0,0,0,.268-.7l-.391-.15a9.56,9.56,0,0,1,8.2.119.375.375,0,1,0,.332-.672,10.306,10.306,0,0,0-8.867-.117l.167-.435A.375.375,0,0,0,36.735,10.025Z" transform="translate(-16.09)" fill="#0b1f44"/>
    <path id="Path_12643" data-name="Path 12643" d="M11.648,47.385a.375.375,0,0,0,.35-.241l.481-1.257a.375.375,0,1,0-.7-.268l-.158.412a9.559,9.559,0,0,1,.113-8.212.375.375,0,1,0-.672-.332,10.307,10.307,0,0,0-.126,8.849l-.412-.158a.375.375,0,1,0-.268.7l1.257.481A.374.374,0,0,0,11.648,47.385Z" transform="translate(0 -17.049)" fill="#0b1f44"/>
    <path id="Path_12644" data-name="Path 12644" d="M47.158,83.8,45.9,83.322a.375.375,0,1,0-.268.7l.416.159a9.561,9.561,0,0,1-8.23-.105.375.375,0,1,0-.332.672,10.307,10.307,0,0,0,8.862.12l-.157.409a.375.375,0,1,0,.7.268l.481-1.258A.375.375,0,0,0,47.158,83.8Z" transform="translate(-17.049 -45.811)" fill="#0b1f44"/>
    <path id="Path_12645" data-name="Path 12645" d="M85.316,36.913a.375.375,0,1,0,.268-.7l-1.257-.481a.375.375,0,0,0-.484.216L83.361,37.2a.375.375,0,1,0,.7.268l.151-.393A9.56,9.56,0,0,1,84.1,45.3a.375.375,0,1,0,.672.332,10.308,10.308,0,0,0,.112-8.88Z" transform="translate(-45.835 -16.067)" fill="#0b1f44"/>
  </g>
</svg>
