<svg xmlns="http://www.w3.org/2000/svg" width="30.351" height="29.754" viewBox="0 0 30.351 29.754">
  <g id="Group_5562" data-name="Group 5562" transform="translate(-150.004 -154.666)">
    <g id="Group_5561" data-name="Group 5561" transform="translate(150.004 154.666)">
      <circle id="Ellipse_321" data-name="Ellipse 321" cx="0.49" cy="0.49" r="0.49" transform="translate(1.632 27.414)" fill="#0b1f44"/>
      <circle id="Ellipse_322" data-name="Ellipse 322" cx="0.49" cy="0.49" r="0.49" transform="translate(21.866 27.087)" fill="#0b1f44"/>
      <circle id="Ellipse_323" data-name="Ellipse 323" cx="0.49" cy="0.49" r="0.49" transform="translate(27.74 15.012)" fill="#0b1f44"/>
      <circle id="Ellipse_324" data-name="Ellipse 324" cx="0.49" cy="0.49" r="0.49" transform="translate(25.782 19.255)" fill="#0b1f44"/>
      <circle id="Ellipse_325" data-name="Ellipse 325" cx="0.49" cy="0.49" r="0.49" transform="translate(28.066 0.979)" fill="#0b1f44"/>
      <circle id="Ellipse_326" data-name="Ellipse 326" cx="0.49" cy="0.49" r="0.49" transform="translate(13.38 0)" fill="#0b1f44"/>
      <circle id="Ellipse_327" data-name="Ellipse 327" cx="0.49" cy="0.49" r="0.49" transform="translate(7.832 3.264)" fill="#0b1f44"/>
      <circle id="Ellipse_328" data-name="Ellipse 328" cx="0.49" cy="0.49" r="0.49" transform="translate(0.979 7.506)" fill="#0b1f44"/>
      <path id="Path_12653" data-name="Path 12653" d="M168.52,175.141a1.958,1.958,0,1,0-1.958-1.958A1.96,1.96,0,0,0,168.52,175.141Zm0-3.264a1.305,1.305,0,1,1-1.305,1.306A1.307,1.307,0,0,1,168.52,171.878Z" transform="translate(-164.278 -168.941)" fill="#0b1f44"/>
      <path id="Path_12654" data-name="Path 12654" d="M264.691,185.338a1.142,1.142,0,1,0-1.142-1.142A1.144,1.144,0,0,0,264.691,185.338Zm0-1.632a.49.49,0,1,1-.49.49A.49.49,0,0,1,264.691,183.706Z" transform="translate(-247.884 -179.137)" fill="#0b1f44"/>
      <path id="Path_12655" data-name="Path 12655" d="M333.619,327.35a1.469,1.469,0,1,0,1.468,1.469A1.47,1.47,0,0,0,333.619,327.35Zm0,2.285a.816.816,0,1,1,.816-.816A.817.817,0,0,1,333.619,329.635Z" transform="translate(-307.021 -303.526)" fill="#0b1f44"/>
      <path id="Path_12656" data-name="Path 12656" d="M269.12,222.976a.326.326,0,0,0-.431-.164l-2.032.915a.326.326,0,0,0,.268.6l2.032-.915A.326.326,0,0,0,269.12,222.976Z" transform="translate(-250.397 -213.386)" fill="#0b1f44"/>
      <path id="Path_12657" data-name="Path 12657" d="M272.993,231.576a.326.326,0,0,0-.432-.163l-2.032.915a.326.326,0,0,0,.268.6l2.031-.915A.326.326,0,0,0,272.993,231.576Z" transform="translate(-253.736 -220.799)" fill="#0b1f44"/>
      <path id="Path_12658" data-name="Path 12658" d="M276.865,240.175a.326.326,0,0,0-.432-.164l-2.031.915a.326.326,0,1,0,.268.6l2.032-.915A.326.326,0,0,0,276.865,240.175Z" transform="translate(-257.074 -228.212)" fill="#0b1f44"/>
      <path id="Path_12659" data-name="Path 12659" d="M180.249,173.087,175.619,162.8a1.194,1.194,0,0,0-2.251.762l-4.683,4.857-4.288,1.931a.326.326,0,0,0-.164.432l.321.713a2.182,2.182,0,0,0,1.792,3.978l.381.845a.326.326,0,0,0,.432.164l.4-.181.4.889a.326.326,0,0,0,.3.192c.109,0,.164-.049.319-.113l.58,1.289H162.27V167.276a.326.326,0,0,0-.326-.326,11.94,11.94,0,1,0,11.94,11.94.326.326,0,0,0-.326-.326h-1.782l-.349-.775.537-.242a1.145,1.145,0,0,0-.673-2.171l-.281-.624.439-.2,6.66-.413a1.194,1.194,0,0,0,2.141-1.054Zm-6.609-8.862,4.179,9.28-6.245.387-2.31-5.129Zm-9.577,9.889a1.531,1.531,0,0,1,.759-2.018l1.256,2.788A1.528,1.528,0,0,1,164.063,174.113Zm.9-3.3,3.75-1.689,2.225,4.941-3.751,1.689Zm5.2,5.746.539,1.2h0l1.108,2.461a.541.541,0,1,1-.987.444l-1.647-3.657Zm-2.46,2.654a20.053,20.053,0,0,1-.658,4.905,11.867,11.867,0,0,0-4.77-1.129v-3.776Zm-14.144,7.216a11.242,11.242,0,0,1-2.893-7.216h4.875a20.625,20.625,0,0,0,.717,5.207A11.965,11.965,0,0,0,153.554,186.432Zm0-15.086a11.936,11.936,0,0,0,2.7,2.005,20.758,20.758,0,0,0-.721,5.212h-4.875A11.242,11.242,0,0,1,153.555,171.346Zm4.28-.33c1.008-2.015,2.371-3.231,3.782-3.394v6.512a11.138,11.138,0,0,1-4.581-1.117A13.645,13.645,0,0,1,157.835,171.016Zm-1.646,8.2h5.428v3.776a11.869,11.869,0,0,0-4.77,1.13A20.044,20.044,0,0,1,156.189,179.216Zm5.428,4.429v6.513c-1.377-.154-2.676-1.279-3.686-3.208a13.411,13.411,0,0,1-.9-2.194A11.214,11.214,0,0,1,161.618,183.645Zm.653,0a11.213,11.213,0,0,1,4.585,1.111,13.4,13.4,0,0,1-.9,2.194c-1.01,1.929-2.309,3.054-3.686,3.208v-6.513Zm-6.081-5.082a20.183,20.183,0,0,1,.662-4.911,11.777,11.777,0,0,0,4.766,1.134v3.776Zm.259-5.851a11.28,11.28,0,0,1-2.443-1.839,11.281,11.281,0,0,1,5.419-2.988A10.182,10.182,0,0,0,156.449,172.712ZM154.005,186.9a11.327,11.327,0,0,1,2.441-1.842,10.183,10.183,0,0,0,2.984,4.832A11.28,11.28,0,0,1,154.005,186.9Zm13.437-1.843a11.32,11.32,0,0,1,2.441,1.843,11.283,11.283,0,0,1-5.425,2.99A10.182,10.182,0,0,0,167.442,185.062Zm5.784-5.846a11.242,11.242,0,0,1-2.893,7.216,11.956,11.956,0,0,0-2.7-2.01,20.631,20.631,0,0,0,.717-5.206h1.1l.773,1.716a1.194,1.194,0,0,0,2.177-.98l-.331-.735h1.157Zm-1.283-2.917a.493.493,0,0,1-.247.652l-.537.242-.4-.9.493-.222h0l.044-.02A.493.493,0,0,1,171.942,176.3Zm-1.261-.688-2.261,1.018-.266-.591,2.261-1.018Zm8.7-1.541a.541.541,0,0,1-.716-.271l-4.628-10.277a.541.541,0,1,1,.984-.449l4.631,10.282A.541.541,0,0,1,179.383,174.07Z" transform="translate(-150.004 -161.075)" fill="#0b1f44"/>
      <path id="Path_12660" data-name="Path 12660" d="M320.048,197.822a.326.326,0,1,0,.6-.257l-2.469-5.76a.326.326,0,1,0-.6.257Z" transform="translate(-294.438 -186.511)" fill="#0b1f44"/>
    </g>
  </g>
</svg>
