<svg xmlns="http://www.w3.org/2000/svg" width="32.347" height="32.396" viewBox="0 0 32.347 32.396">
  <g id="Group_5560" data-name="Group 5560" transform="translate(-1 -0.9)">
    <g id="Group_5556" data-name="Group 5556" transform="translate(4.186 0.9)">
      <path id="Path_12649" data-name="Path 12649" d="M27.3,25.846l-.98-1.274a6.55,6.55,0,0,0,.784-1.911l1.617-.2a.521.521,0,0,0,.441-.49v-.441h1.519a.463.463,0,0,0,.49-.49V11.829a2.84,2.84,0,1,0-3.333-2.794,2.884,2.884,0,0,0,2.353,2.794v8.724H29.163v-.441a.521.521,0,0,0-.441-.49l-1.617-.2a6.55,6.55,0,0,0-.784-1.911l.98-1.274a.521.521,0,0,0-.049-.686L25.977,14.28a.462.462,0,0,0-.637-.049l-.833.637V6.536a2.84,2.84,0,1,0-3.333-2.794,2.884,2.884,0,0,0,2.353,2.794v8.381a4.891,4.891,0,0,0-1.421-.49l-.2-1.617a.521.521,0,0,0-.49-.441H19.557a.521.521,0,0,0-.49.441l-.2,1.617a8.9,8.9,0,0,0-1.47.539V6.536A2.839,2.839,0,0,0,16.91.9a2.866,2.866,0,0,0-.441,5.685v8.234l-.735-.588a.458.458,0,0,0-.637.049L13.773,15.6a.462.462,0,0,0-.049.637l.98,1.274a6.55,6.55,0,0,0-.784,1.911l-1.617.2a.521.521,0,0,0-.441.49v.441H10.833V12.27A2.84,2.84,0,1,0,7.5,9.477,2.884,2.884,0,0,0,9.853,12.27v8.724a.463.463,0,0,0,.49.49h1.519v.441a.521.521,0,0,0,.441.49l1.617.2a6.55,6.55,0,0,0,.784,1.911l-.98,1.274a.458.458,0,0,0,.049.637L15.1,27.758a.462.462,0,0,0,.637.049l1.274-.98a6.55,6.55,0,0,0,1.911.784l.2,1.617a.521.521,0,0,0,.49.441h1.862a.521.521,0,0,0,.49-.441l.2-1.617a6.55,6.55,0,0,0,1.911-.784l1.274.98a.7.7,0,0,0,.294.1.557.557,0,0,0,.392-.147L27.3,26.484A.6.6,0,0,0,27.3,25.846ZM28.82,9.036A1.862,1.862,0,1,1,30.682,10.9,1.862,1.862,0,0,1,28.82,9.036Zm-18.526,2.3a1.862,1.862,0,1,1,1.862-1.862A1.862,1.862,0,0,1,10.294,11.339ZM22.154,3.792a1.862,1.862,0,1,1,3.725,0,1.885,1.885,0,0,1-1.813,1.862h0A1.937,1.937,0,0,1,22.154,3.792Zm-7.058,0a1.838,1.838,0,1,1,3.676,0A1.894,1.894,0,0,1,16.91,5.654h0A1.884,1.884,0,0,1,15.1,3.792ZM25.536,26.778l-1.225-.931a.446.446,0,0,0-.588,0,5.5,5.5,0,0,1-2.205.882.527.527,0,0,0-.392.441l-.147,1.519H20l-.2-1.519a.6.6,0,0,0-.392-.441,6.136,6.136,0,0,1-2.205-.882.625.625,0,0,0-.588,0l-1.225.931-.686-.686.931-1.225a.514.514,0,0,0,0-.637,5.581,5.581,0,0,1-.882-2.156.527.527,0,0,0-.441-.392l-1.519-.2V20.5l1.519-.2a.6.6,0,0,0,.441-.392,6.136,6.136,0,0,1,.882-2.205.625.625,0,0,0,0-.588L14.7,15.9l.686-.686,1.225.931a.048.048,0,0,1,.049.049c.049,0,.049.049.1.049h.2a.7.7,0,0,0,.294-.1,5.581,5.581,0,0,1,2.156-.882.527.527,0,0,0,.392-.441L20,13.3h.98l.2,1.519a.6.6,0,0,0,.392.441,6.136,6.136,0,0,1,2.205.882h0a.048.048,0,0,1,.049.049.58.58,0,0,0,.49-.049l1.225-.931.686.686-.931,1.225a.446.446,0,0,0,0,.588,5.5,5.5,0,0,1,.882,2.205.527.527,0,0,0,.441.392l1.519.2v.98l-1.519.2a.6.6,0,0,0-.441.392,6.136,6.136,0,0,1-.882,2.205.625.625,0,0,0,0,.588l.931,1.225Z" transform="translate(-7.5 -0.9)" fill="#0b1f44"/>
    </g>
    <g id="Group_5557" data-name="Group 5557" transform="translate(13.008 16.828)">
      <path id="Path_12650" data-name="Path 12650" d="M29.666,33.4a4.166,4.166,0,1,0,4.166,4.166A4.162,4.162,0,0,0,29.666,33.4Zm0,7.4a3.186,3.186,0,1,1,3.186-3.186A3.179,3.179,0,0,1,29.666,40.8Z" transform="translate(-25.5 -33.4)" fill="#0b1f44"/>
    </g>
    <g id="Group_5558" data-name="Group 5558" transform="translate(1 22.269)">
      <path id="Path_12651" data-name="Path 12651" d="M7.861,50.087H7.812a3.039,3.039,0,1,0-3.235,0H4.431A3.441,3.441,0,0,0,1,53.518v1.519a.463.463,0,0,0,.49.49H10.8a.463.463,0,0,0,.49-.49V53.518A3.441,3.441,0,0,0,7.861,50.087ZM4.137,47.539A2.058,2.058,0,1,1,6.2,49.6,2.071,2.071,0,0,1,4.137,47.539Zm6.175,7.009H1.98V53.518a2.458,2.458,0,0,1,2.451-2.451H7.861a2.458,2.458,0,0,1,2.451,2.451Z" transform="translate(-1 -44.5)" fill="#0b1f44"/>
    </g>
    <g id="Group_5559" data-name="Group 5559" transform="translate(23.055 22.269)">
      <path id="Path_12652" data-name="Path 12652" d="M52.861,50.087h-.049a3.039,3.039,0,1,0-3.235,0h-.147A3.441,3.441,0,0,0,46,53.518v1.519a.463.463,0,0,0,.49.49H55.8a.463.463,0,0,0,.49-.49V53.518A3.473,3.473,0,0,0,52.861,50.087Zm-3.725-2.549A2.058,2.058,0,1,1,51.2,49.6,2.04,2.04,0,0,1,49.137,47.539Zm6.175,7.009H46.98V53.518a2.458,2.458,0,0,1,2.451-2.451h3.431a2.458,2.458,0,0,1,2.451,2.451Z" transform="translate(-46 -44.5)" fill="#0b1f44"/>
    </g>
  </g>
</svg>
