<svg xmlns="http://www.w3.org/2000/svg" width="25.651" height="25.651" viewBox="0 0 25.651 25.651">
  <g id="Group_5551" data-name="Group 5551" transform="translate(-26 -26)">
    <path id="Path_12626" data-name="Path 12626" d="M31.42,34.84A3.42,3.42,0,1,0,28,31.42,3.425,3.425,0,0,0,31.42,34.84Zm0-5.985a2.565,2.565,0,1,1-2.565,2.565A2.567,2.567,0,0,1,31.42,28.855Z" transform="translate(2.275 2.275)" fill="#0b1f44"/>
    <path id="Path_12627" data-name="Path 12627" d="M26.428,35.406h1.986a5.339,5.339,0,0,0,.338.817l-1.4,1.4a.429.429,0,0,0-.126.3.42.42,0,0,0,.126.3l1.815,1.815a.426.426,0,0,0,.6,0l1.4-1.4a5.572,5.572,0,0,0,.817.34v1.984a.427.427,0,0,0,.428.428h2.565a.429.429,0,0,0,.428-.428V38.978a5.428,5.428,0,0,0,.817-.338l1.4,1.4a.428.428,0,0,0,.6,0l1.815-1.815a.431.431,0,0,0,.124-.3.436.436,0,0,0-.124-.3l-1.4-1.4a5.428,5.428,0,0,0,.338-.817h1.986a.427.427,0,0,0,.428-.428V32.413a.426.426,0,0,0-.428-.428H38.978a5.338,5.338,0,0,0-.338-.817l1.4-1.4a.428.428,0,0,0,0-.6l-1.815-1.815a.428.428,0,0,0-.6,0l-1.4,1.4a5.339,5.339,0,0,0-.817-.338V26.428A.427.427,0,0,0,34.978,26H32.413a.427.427,0,0,0-.428.428v1.986a5.339,5.339,0,0,0-.817.338l-1.4-1.4a.428.428,0,0,0-.6,0l-1.815,1.815a.42.42,0,0,0-.126.3.429.429,0,0,0,.126.3l1.4,1.4a5.808,5.808,0,0,0-.338.817H26.428a.427.427,0,0,0-.428.428v2.565A.427.427,0,0,0,26.428,35.406Zm.428-2.565h1.879a.43.43,0,0,0,.415-.321,4.65,4.65,0,0,1,.5-1.21.43.43,0,0,0-.066-.519l-1.327-1.327,1.208-1.21,1.33,1.33a.426.426,0,0,0,.519.064,4.788,4.788,0,0,1,1.208-.5.426.426,0,0,0,.321-.413V26.855h1.71v1.879a.426.426,0,0,0,.321.413,4.679,4.679,0,0,1,1.208.5.43.43,0,0,0,.522-.064l1.327-1.33,1.21,1.21-1.33,1.327a.427.427,0,0,0-.064.519,4.725,4.725,0,0,1,.5,1.21.426.426,0,0,0,.413.321h1.879v1.71H38.657a.43.43,0,0,0-.415.321,4.65,4.65,0,0,1-.5,1.21.43.43,0,0,0,.066.519l1.327,1.327-1.208,1.21-1.33-1.33a.426.426,0,0,0-.519-.064,4.711,4.711,0,0,1-1.208.5.426.426,0,0,0-.321.413v1.879H32.84V38.657a.427.427,0,0,0-.321-.413,4.711,4.711,0,0,1-1.208-.5.427.427,0,0,0-.522.066l-1.327,1.327-1.21-1.21,1.33-1.327a.427.427,0,0,0,.064-.519,4.693,4.693,0,0,1-.5-1.21.426.426,0,0,0-.413-.321H26.855Z" transform="translate(0 0)" fill="#0b1f44"/>
    <path id="Path_12628" data-name="Path 12628" d="M27.283,43.171H36.13l3.741,2.492a.43.43,0,0,0,.237.073h1.71a.428.428,0,0,0,.318-.714l-1.682-1.868a16.107,16.107,0,0,0,6.554-1.674l1.007-.5,3.04,1.3a.427.427,0,0,0,.47-.695L49.845,39.9l1.669-1.55a.428.428,0,0,0-.291-.742h-.368l.791-5.93a.427.427,0,0,0-.423-.483h-1.71a.423.423,0,0,0-.355.19L45.01,37.613h-4.6L42.193,34.4a.429.429,0,0,0-.374-.635h-1.71a.43.43,0,0,0-.257.085l-5.017,3.762h-3.07a6.046,6.046,0,0,0-5.744,4.141.479.479,0,0,0-.021.135A1.284,1.284,0,0,0,27.283,43.171Zm20.038-3.42h1.161l.445.445h0l.425.425Zm2.422-7.7h.992l-.74,5.558H46.038ZM40.252,34.62h.84l-1.663,2.993H36.261ZM27.911,40.178H30.7v-.855H28.914a5.189,5.189,0,0,1,2.852-.855H50.136l-.9.832-.28-.278a.42.42,0,0,0-.3-.126h-3.42a.428.428,0,0,0-.169.821l1.915.821-.359.18a15.242,15.242,0,0,1-6.776,1.6H39.7l-1.411-1.569-.637.573.385.428h0l1.154,1.283h0l1.667,1.851h-.62L36.5,42.388l-2.565-1.71-.475.71,1.389.928H27.283a.427.427,0,0,1-.423-.368A5.219,5.219,0,0,1,27.911,40.178Z" transform="translate(0 5.916)" fill="#0b1f44"/>
    <rect id="Rectangle_2581" data-name="Rectangle 2581" width="0.855" height="0.855" transform="translate(31.985 45.239)" fill="#0b1f44"/>
    <rect id="Rectangle_2582" data-name="Rectangle 2582" width="0.855" height="0.855" transform="translate(33.696 45.239)" fill="#0b1f44"/>
    <rect id="Rectangle_2583" data-name="Rectangle 2583" width="0.855" height="0.855" transform="translate(35.406 45.239)" fill="#0b1f44"/>
    <rect id="Rectangle_2584" data-name="Rectangle 2584" width="0.855" height="0.855" transform="translate(37.116 45.239)" fill="#0b1f44"/>
    <rect id="Rectangle_2585" data-name="Rectangle 2585" width="0.855" height="0.855" transform="translate(38.826 45.239)" fill="#0b1f44"/>
    <path id="Path_12629" data-name="Path 12629" d="M36.165,36.068h.855v-6.84a.427.427,0,0,0-.428-.428H33.6v.855h2.565Z" transform="translate(8.646 3.185)" fill="#0b1f44"/>
    <rect id="Rectangle_2586" data-name="Rectangle 2586" width="0.855" height="0.855" transform="translate(44.811 40.108)" fill="#0b1f44"/>
    <path id="Path_12630" data-name="Path 12630" d="M34.455,34.7h.855V30.428A.427.427,0,0,0,34.883,30H33.6v.855h.855Z" transform="translate(8.646 4.551)" fill="#0b1f44"/>
    <rect id="Rectangle_2587" data-name="Rectangle 2587" width="0.855" height="0.855" transform="translate(43.101 40.108)" fill="#0b1f44"/>
    <rect id="Rectangle_2588" data-name="Rectangle 2588" width="0.855" height="0.855" transform="translate(43.101 41.818)" fill="#0b1f44"/>
  </g>
</svg>
