<svg xmlns="http://www.w3.org/2000/svg" width="30.809" height="27.729" viewBox="0 0 30.809 27.729">
  <g id="Group_5555" data-name="Group 5555" transform="translate(-2 -8)">
    <rect id="Rectangle_2597" data-name="Rectangle 2597" width="2" height="1" transform="translate(16.405 27.864)" fill="#0b1f44"/>
    <path id="Path_12646" data-name="Path 12646" d="M31.269,8H3.54A1.54,1.54,0,0,0,2,9.54V29.053a1.54,1.54,0,0,0,1.54,1.54H13.718l-.342,2.054h-.592a.513.513,0,0,0-.411.205l-1.54,2.054a.513.513,0,0,0,.411.822H23.567a.513.513,0,0,0,.411-.822l-1.54-2.054a.513.513,0,0,0-.411-.205h-.592l-.342-2.054H31.269a1.54,1.54,0,0,0,1.54-1.54V9.54A1.54,1.54,0,0,0,31.269,8ZM3.54,9.027H31.269a.514.514,0,0,1,.513.513V26.486H3.027V9.54A.514.514,0,0,1,3.54,9.027Zm19,25.675H12.27l.77-1.027h8.729Zm-2.146-2.054H14.416l.342-2.054h5.292Zm10.876-3.081H3.54a.514.514,0,0,1-.513-.513v-1.54H31.782v1.54A.514.514,0,0,1,31.269,29.567Z" fill="#0b1f44"/>
    <path id="Path_12647" data-name="Path 12647" d="M21.513,29.621h1.54v1.027a.514.514,0,0,0,.513.513h4.108a.514.514,0,0,0,.513-.513V27.054a.514.514,0,0,0-.513-.513h-1.54V25.513A.514.514,0,0,0,25.621,25H21.513a.514.514,0,0,0-.513.513v3.594A.514.514,0,0,0,21.513,29.621Zm5.648-2.054v2.567H24.081v-.513h1.54a.514.514,0,0,0,.513-.513v-1.54Zm-3.081,1.027V27.567h1.027v1.027Zm-2.054-2.567h3.081v.513h-1.54a.514.514,0,0,0-.513.513v1.54H22.027Z" transform="translate(-9.244 -8.271)" fill="#0b1f44"/>
    <path id="Path_12648" data-name="Path 12648" d="M10.621,26.891V24.837h1.027v1.54a.514.514,0,0,0,.513.513h10.27a.514.514,0,0,0,.364-.151L26.9,22.632a.513.513,0,0,0,.15-.363V21.243H28.08v5.648a.514.514,0,0,0,.513.513H32.7V26.378H29.107V20.729a.514.514,0,0,0-.513-.513h-1.54V19.189h3.081v2.054a.514.514,0,0,0,.513.513H32.7V20.729h-1.54V18.675a.514.514,0,0,0-.513-.513H27.053V17.135h2.054a.514.514,0,0,0,.513-.513V13.027H32.7V12H29.107a.514.514,0,0,0-.513.513v3.594h-1.54V13.027h0a.5.5,0,0,0-.485-.513H16.27a.512.512,0,0,0-.363.15L11.8,16.772a.512.512,0,0,0-.15.363V19.7h-1.54V12.513A.514.514,0,0,0,9.594,12H6v1.027H9.081v7.189a.514.514,0,0,0,.513.513h2.054v1.027H8.054a.514.514,0,0,0-.513.513v2.054H6v1.027H8.054a.514.514,0,0,0,.513-.513V22.783h3.081V23.81h-1.54a.514.514,0,0,0-.513.513v2.054H6V27.4h4.108A.514.514,0,0,0,10.621,26.891Zm11.3-1.027H12.675V17.648h9.243Zm1.027-.726V17.347l3.081-3.081v7.791Zm-6.463-11.6H25.3l-3.081,3.081H13.4Z" transform="translate(-1.946 -1.946)" fill="#0b1f44"/>
  </g>
</svg>
