<svg xmlns="http://www.w3.org/2000/svg" width="28.501" height="28.501" viewBox="0 0 28.501 28.501">
  <g id="Group_5579" data-name="Group 5579" transform="translate(-1 -1)">
    <path id="Path_12681" data-name="Path 12681" d="M29.278,1.066a.46.46,0,0,0-.453-.011L22.146,4.616,15.467,1.054a.459.459,0,0,0-.433,0L8.355,4.616,1.676,1.054A.46.46,0,0,0,1,1.46v23.9a.459.459,0,0,0,.243.405l6.9,3.678a.459.459,0,0,0,.433,0l5.3-2.826v1.5A1.381,1.381,0,0,0,15.251,29.5H26.283a1.381,1.381,0,0,0,1.379-1.379v-1.5l1.6-.851a.459.459,0,0,0,.243-.405V1.46A.46.46,0,0,0,29.278,1.066ZM8.139,5.543a.459.459,0,0,0,.433,0l2.98-1.589-.4,1.013a.5.5,0,0,0-.024.08l-.46,2.3a.46.46,0,0,0,0,.181l.419,2.1L8.836,12.616l-.515-.772-.44-1.762a.459.459,0,0,0-.445-.348H5.6a.462.462,0,0,0-.255.077l-1,.664-.664-1a.46.46,0,0,0-.107-.113L1.919,8.125v-5.9ZM1.919,13.236l1.174.587a.464.464,0,0,0,.317.035l1.268-.317v1.25a.46.46,0,0,0,.571.446l1.642-.411,1.079.719L8.355,16.7v1.637l-1.18,1.966H5.6a.462.462,0,0,0-.255.077L3.963,21.3a.459.459,0,0,0-.191.494l.446,1.784v.4a.459.459,0,0,0,.348.446l1.594.4L6.516,25.9V27.54l-4.6-2.452Zm14.71.775,1.931-2.9H24.9V23.985H16.63Zm1.839-5.529a3.668,3.668,0,0,1-.618,2.04L16.17,13.043l-1.681-2.521a3.674,3.674,0,0,1-.618-2.051,2.39,2.39,0,0,1,2.018-2.4,2.463,2.463,0,0,1,.284-.017,2.271,2.271,0,0,1,1.524.581,2.3,2.3,0,0,1,.772,1.718Zm8.274,19.64a.46.46,0,0,1-.46.46H15.251a.46.46,0,0,1-.46-.46V12.631l.919,1.379V24.444a.46.46,0,0,0,.46.46h9.194a.46.46,0,0,0,.46-.46V10.654a.46.46,0,0,0-.46-.46H19.045a4.539,4.539,0,0,0,.267-.919h6.971a.46.46,0,0,1,.46.46Zm1.839-3.034-.919.49V9.734a1.381,1.381,0,0,0-1.379-1.379h-6.9A3.219,3.219,0,0,0,15.781,5.16a3.282,3.282,0,0,0-2.829,3.321,4.584,4.584,0,0,0,.772,2.55l.147.221V25.578L8.355,28.521l-.919-.49V25.823a.46.46,0,0,0-.024-.145L6.952,24.3a.459.459,0,0,0-.325-.3l-1.49-.373v-.1a.459.459,0,0,0-.014-.112l-.381-1.524.994-.662h1.7A.458.458,0,0,0,7.83,21l1.379-2.3a.458.458,0,0,0,.066-.237V16.63a.46.46,0,0,0-.024-.145l-.46-1.379a.46.46,0,0,0-.181-.237l-1.379-.919a.461.461,0,0,0-.366-.063L5.6,14.2v-1.25a.46.46,0,0,0-.571-.446l-1.674.418-1.432-.716V9.275l1.04.78.876,1.313a.46.46,0,0,0,.638.127l1.263-.842h1.34l.373,1.491a.446.446,0,0,0,.063.143l.919,1.379a.459.459,0,0,0,.37.2h.012a.46.46,0,0,0,.368-.184l2.758-3.678a.461.461,0,0,0,.083-.366l-.442-2.208.433-2.167.795-1.987,2.44-1.3,6.679,3.562a.459.459,0,0,0,.433,0l6.22-3.317Z" transform="translate(0 0)"/>
    <path id="Path_12682" data-name="Path 12682" d="M32.379,14a1.379,1.379,0,1,0,1.379,1.379A1.381,1.381,0,0,0,32.379,14Zm0,1.839a.46.46,0,1,1,.46-.46A.46.46,0,0,1,32.379,15.839Z" transform="translate(-16.209 -7.024)"/>
    <path id="Path_12683" data-name="Path 12683" d="M42.379,54a1.379,1.379,0,1,0,1.379,1.379A1.381,1.381,0,0,0,42.379,54Zm0,1.839a.46.46,0,1,1,.46-.46A.46.46,0,0,1,42.379,55.839Z" transform="translate(-21.612 -28.636)"/>
    <path id="Path_12684" data-name="Path 12684" d="M39.3,33H37v.919h1.839v4.6H37v.919h2.3a.46.46,0,0,0,.46-.46V33.46A.46.46,0,0,0,39.3,33Z" transform="translate(-19.451 -17.29)"/>
    <path id="Path_12685" data-name="Path 12685" d="M38.839,26.839H37v.919h2.3a.46.46,0,0,0,.46-.46V25h-.919Z" transform="translate(-19.451 -12.967)"/>
    <path id="Path_12686" data-name="Path 12686" d="M45.919,25H45v2.3a.46.46,0,0,0,.46.46h2.3v-.919H45.919Z" transform="translate(-23.773 -12.967)"/>
    <path id="Path_12687" data-name="Path 12687" d="M45,33.46V35.3a.46.46,0,0,0,.46.46h2.3v-.919H45.919v-.919h1.839V33h-2.3A.46.46,0,0,0,45,33.46Z" transform="translate(-23.773 -17.29)"/>
    <path id="Path_12688" data-name="Path 12688" d="M45,41.46v2.3h.919V41.919h1.839V41h-2.3A.46.46,0,0,0,45,41.46Z" transform="translate(-23.773 -21.612)"/>
    <path id="Path_12689" data-name="Path 12689" d="M18.379,51a1.379,1.379,0,1,0,1.379,1.379A1.381,1.381,0,0,0,18.379,51Zm0,1.839a.46.46,0,1,1,.46-.46A.46.46,0,0,1,18.379,52.839Z" transform="translate(-8.645 -27.015)"/>
    <path id="Path_12690" data-name="Path 12690" d="M20.839,41a1.839,1.839,0,1,0,1.839,1.839A1.841,1.841,0,0,0,20.839,41Zm0,2.758a.919.919,0,1,1,.919-.919A.92.92,0,0,1,20.839,43.758Z" transform="translate(-9.726 -21.612)"/>
  </g>
</svg>
