<svg id="Group_5549" data-name="Group 5549" xmlns="http://www.w3.org/2000/svg" width="29.966" height="31.178" viewBox="0 0 29.966 31.178">
  <path id="Path_12251" data-name="Path 12251" d="M7.866,996.3a.433.433,0,1,1-.433-.433A.433.433,0,0,1,7.866,996.3Z" transform="translate(-7 -982.525)" fill="#0b1f44"/>
  <path id="Path_12252" data-name="Path 12252" d="M7.866,999.793a.433.433,0,1,1-.433-.433A.433.433,0,0,1,7.866,999.793Z" transform="translate(-7 -984.811)" fill="#0b1f44"/>
  <path id="Path_12253" data-name="Path 12253" d="M7.866,1003.293a.433.433,0,1,1-.433-.433A.433.433,0,0,1,7.866,1003.293Z" transform="translate(-7 -987.098)" fill="#0b1f44"/>
  <path id="Path_12254" data-name="Path 12254" d="M7.866,1006.793a.433.433,0,1,1-.433-.433A.433.433,0,0,1,7.866,1006.793Z" transform="translate(-7 -989.386)" fill="#0b1f44"/>
  <path id="Path_12255" data-name="Path 12255" d="M7.866,1010.293a.433.433,0,1,1-.433-.433A.433.433,0,0,1,7.866,1010.293Z" transform="translate(-7 -991.673)" fill="#0b1f44"/>
  <path id="Path_12256" data-name="Path 12256" d="M7.866,1013.793a.433.433,0,1,1-.433-.433A.433.433,0,0,1,7.866,1013.793Z" transform="translate(-7 -993.961)" fill="#0b1f44"/>
  <path id="Path_12257" data-name="Path 12257" d="M11.366,982.3a.433.433,0,1,1-.433-.433A.433.433,0,0,1,11.366,982.3Z" transform="translate(-9.288 -973.375)" fill="#0b1f44"/>
  <path id="Path_12258" data-name="Path 12258" d="M11.366,985.8a.433.433,0,1,1-.433-.433A.433.433,0,0,1,11.366,985.8Z" transform="translate(-9.288 -975.662)" fill="#0b1f44"/>
  <path id="Path_12259" data-name="Path 12259" d="M11.366,989.3a.433.433,0,1,1-.433-.433A.433.433,0,0,1,11.366,989.3Z" transform="translate(-9.288 -977.95)" fill="#0b1f44"/>
  <path id="Path_12260" data-name="Path 12260" d="M11.366,992.8a.433.433,0,1,1-.433-.433A.433.433,0,0,1,11.366,992.8Z" transform="translate(-9.288 -980.237)" fill="#0b1f44"/>
  <path id="Path_12261" data-name="Path 12261" d="M11.366,996.3a.433.433,0,1,1-.433-.433A.433.433,0,0,1,11.366,996.3Z" transform="translate(-9.288 -982.525)" fill="#0b1f44"/>
  <path id="Path_12262" data-name="Path 12262" d="M11.366,999.793a.433.433,0,1,1-.433-.433A.433.433,0,0,1,11.366,999.793Z" transform="translate(-9.288 -984.811)" fill="#0b1f44"/>
  <path id="Path_12263" data-name="Path 12263" d="M11.366,1003.293a.433.433,0,1,1-.433-.433A.433.433,0,0,1,11.366,1003.293Z" transform="translate(-9.288 -987.098)" fill="#0b1f44"/>
  <path id="Path_12264" data-name="Path 12264" d="M11.366,1006.793a.433.433,0,1,1-.433-.433A.433.433,0,0,1,11.366,1006.793Z" transform="translate(-9.288 -989.386)" fill="#0b1f44"/>
  <path id="Path_12265" data-name="Path 12265" d="M11.366,1010.293a.433.433,0,1,1-.433-.433A.433.433,0,0,1,11.366,1010.293Z" transform="translate(-9.288 -991.673)" fill="#0b1f44"/>
  <path id="Path_12266" data-name="Path 12266" d="M11.366,1013.793a.433.433,0,1,1-.433-.433A.433.433,0,0,1,11.366,1013.793Z" transform="translate(-9.288 -993.961)" fill="#0b1f44"/>
  <path id="Path_12267" data-name="Path 12267" d="M14.866,978.8a.433.433,0,1,1-.433-.433A.433.433,0,0,1,14.866,978.8Z" transform="translate(-11.575 -971.087)" fill="#0b1f44"/>
  <path id="Path_12268" data-name="Path 12268" d="M14.866,982.3a.433.433,0,1,1-.433-.433A.433.433,0,0,1,14.866,982.3Z" transform="translate(-11.575 -973.375)" fill="#0b1f44"/>
  <path id="Path_12269" data-name="Path 12269" d="M14.866,985.8a.433.433,0,1,1-.433-.433A.433.433,0,0,1,14.866,985.8Z" transform="translate(-11.575 -975.662)" fill="#0b1f44"/>
  <path id="Path_12270" data-name="Path 12270" d="M14.866,989.3a.433.433,0,1,1-.433-.433A.433.433,0,0,1,14.866,989.3Z" transform="translate(-11.575 -977.95)" fill="#0b1f44"/>
  <path id="Path_12271" data-name="Path 12271" d="M14.866,992.8a.433.433,0,1,1-.433-.433A.433.433,0,0,1,14.866,992.8Z" transform="translate(-11.575 -980.237)" fill="#0b1f44"/>
  <path id="Path_12272" data-name="Path 12272" d="M14.866,996.3a.433.433,0,1,1-.433-.433A.433.433,0,0,1,14.866,996.3Z" transform="translate(-11.575 -982.525)" fill="#0b1f44"/>
  <path id="Path_12273" data-name="Path 12273" d="M14.866,999.793a.433.433,0,1,1-.433-.433A.433.433,0,0,1,14.866,999.793Z" transform="translate(-11.575 -984.811)" fill="#0b1f44"/>
  <path id="Path_12274" data-name="Path 12274" d="M14.866,1003.293a.433.433,0,1,1-.433-.433A.433.433,0,0,1,14.866,1003.293Z" transform="translate(-11.575 -987.098)" fill="#0b1f44"/>
  <path id="Path_12275" data-name="Path 12275" d="M14.866,1006.793a.433.433,0,1,1-.433-.433A.433.433,0,0,1,14.866,1006.793Z" transform="translate(-11.575 -989.386)" fill="#0b1f44"/>
  <path id="Path_12276" data-name="Path 12276" d="M14.866,1010.293a.433.433,0,1,1-.433-.433A.433.433,0,0,1,14.866,1010.293Z" transform="translate(-11.575 -991.673)" fill="#0b1f44"/>
  <path id="Path_12277" data-name="Path 12277" d="M14.866,1013.793a.433.433,0,1,1-.433-.433A.433.433,0,0,1,14.866,1013.793Z" transform="translate(-11.575 -993.961)" fill="#0b1f44"/>
  <path id="Path_12278" data-name="Path 12278" d="M18.366,982.3a.433.433,0,1,1-.433-.433A.433.433,0,0,1,18.366,982.3Z" transform="translate(-13.863 -973.375)" fill="#0b1f44"/>
  <path id="Path_12279" data-name="Path 12279" d="M18.366,985.8a.433.433,0,1,1-.433-.433A.433.433,0,0,1,18.366,985.8Z" transform="translate(-13.863 -975.662)" fill="#0b1f44"/>
  <path id="Path_12280" data-name="Path 12280" d="M18.366,989.3a.433.433,0,1,1-.433-.433A.433.433,0,0,1,18.366,989.3Z" transform="translate(-13.863 -977.95)" fill="#0b1f44"/>
  <path id="Path_12281" data-name="Path 12281" d="M18.366,992.8a.433.433,0,1,1-.433-.433A.433.433,0,0,1,18.366,992.8Z" transform="translate(-13.863 -980.237)" fill="#0b1f44"/>
  <path id="Path_12282" data-name="Path 12282" d="M18.366,996.3a.433.433,0,1,1-.433-.433A.433.433,0,0,1,18.366,996.3Z" transform="translate(-13.863 -982.525)" fill="#0b1f44"/>
  <path id="Path_12283" data-name="Path 12283" d="M18.366,999.793a.433.433,0,1,1-.433-.433A.433.433,0,0,1,18.366,999.793Z" transform="translate(-13.863 -984.811)" fill="#0b1f44"/>
  <path id="Path_12284" data-name="Path 12284" d="M18.366,1003.293a.433.433,0,1,1-.433-.433A.433.433,0,0,1,18.366,1003.293Z" transform="translate(-13.863 -987.098)" fill="#0b1f44"/>
  <path id="Path_12285" data-name="Path 12285" d="M18.366,1006.793a.433.433,0,1,1-.433-.433A.433.433,0,0,1,18.366,1006.793Z" transform="translate(-13.863 -989.386)" fill="#0b1f44"/>
  <path id="Path_12286" data-name="Path 12286" d="M18.366,1010.293a.433.433,0,1,1-.433-.433A.433.433,0,0,1,18.366,1010.293Z" transform="translate(-13.863 -991.673)" fill="#0b1f44"/>
  <path id="Path_12287" data-name="Path 12287" d="M18.366,1013.793a.433.433,0,1,1-.433-.433A.433.433,0,0,1,18.366,1013.793Z" transform="translate(-13.863 -993.961)" fill="#0b1f44"/>
  <path id="Path_12288" data-name="Path 12288" d="M21.866,985.8a.433.433,0,1,1-.433-.433A.433.433,0,0,1,21.866,985.8Z" transform="translate(-16.15 -975.662)" fill="#0b1f44"/>
  <path id="Path_12289" data-name="Path 12289" d="M21.866,989.3a.433.433,0,1,1-.433-.433A.433.433,0,0,1,21.866,989.3Z" transform="translate(-16.15 -977.95)" fill="#0b1f44"/>
  <path id="Path_12290" data-name="Path 12290" d="M21.866,992.8a.433.433,0,1,1-.433-.433A.433.433,0,0,1,21.866,992.8Z" transform="translate(-16.15 -980.237)" fill="#0b1f44"/>
  <path id="Path_12291" data-name="Path 12291" d="M21.866,996.3a.433.433,0,1,1-.433-.433A.433.433,0,0,1,21.866,996.3Z" transform="translate(-16.15 -982.525)" fill="#0b1f44"/>
  <path id="Path_12292" data-name="Path 12292" d="M21.866,999.793a.433.433,0,1,1-.433-.433A.433.433,0,0,1,21.866,999.793Z" transform="translate(-16.15 -984.811)" fill="#0b1f44"/>
  <path id="Path_12293" data-name="Path 12293" d="M21.866,1003.293a.433.433,0,1,1-.433-.433A.433.433,0,0,1,21.866,1003.293Z" transform="translate(-16.15 -987.098)" fill="#0b1f44"/>
  <path id="Path_12294" data-name="Path 12294" d="M21.866,1006.793a.433.433,0,1,1-.433-.433A.433.433,0,0,1,21.866,1006.793Z" transform="translate(-16.15 -989.386)" fill="#0b1f44"/>
  <path id="Path_12295" data-name="Path 12295" d="M21.866,1010.293a.433.433,0,1,1-.433-.433A.433.433,0,0,1,21.866,1010.293Z" transform="translate(-16.15 -991.673)" fill="#0b1f44"/>
  <path id="Path_12296" data-name="Path 12296" d="M25.366,985.8a.433.433,0,1,1-.433-.433A.433.433,0,0,1,25.366,985.8Z" transform="translate(-18.438 -975.662)" fill="#0b1f44"/>
  <path id="Path_12297" data-name="Path 12297" d="M25.366,989.3a.433.433,0,1,1-.433-.433A.433.433,0,0,1,25.366,989.3Z" transform="translate(-18.438 -977.95)" fill="#0b1f44"/>
  <path id="Path_12298" data-name="Path 12298" d="M25.366,992.8a.433.433,0,1,1-.433-.433A.433.433,0,0,1,25.366,992.8Z" transform="translate(-18.438 -980.237)" fill="#0b1f44"/>
  <path id="Path_12299" data-name="Path 12299" d="M25.366,996.3a.433.433,0,1,1-.433-.433A.433.433,0,0,1,25.366,996.3Z" transform="translate(-18.438 -982.525)" fill="#0b1f44"/>
  <path id="Path_12300" data-name="Path 12300" d="M25.366,999.793a.433.433,0,1,1-.433-.433A.433.433,0,0,1,25.366,999.793Z" transform="translate(-18.438 -984.811)" fill="#0b1f44"/>
  <path id="Path_12301" data-name="Path 12301" d="M25.366,1003.293a.433.433,0,1,1-.433-.433A.433.433,0,0,1,25.366,1003.293Z" transform="translate(-18.438 -987.098)" fill="#0b1f44"/>
  <path id="Path_12302" data-name="Path 12302" d="M25.366,1006.793a.433.433,0,1,1-.433-.433A.433.433,0,0,1,25.366,1006.793Z" transform="translate(-18.438 -989.386)" fill="#0b1f44"/>
  <path id="Path_12303" data-name="Path 12303" d="M25.366,1010.293a.433.433,0,1,1-.433-.433A.433.433,0,0,1,25.366,1010.293Z" transform="translate(-18.438 -991.673)" fill="#0b1f44"/>
  <path id="Path_12304" data-name="Path 12304" d="M28.866,978.8a.433.433,0,1,1-.433-.433A.433.433,0,0,1,28.866,978.8Z" transform="translate(-20.725 -971.087)" fill="#0b1f44"/>
  <path id="Path_12305" data-name="Path 12305" d="M28.866,982.3a.433.433,0,1,1-.433-.433A.433.433,0,0,1,28.866,982.3Z" transform="translate(-20.725 -973.375)" fill="#0b1f44"/>
  <path id="Path_12306" data-name="Path 12306" d="M28.866,985.8a.433.433,0,1,1-.433-.433A.433.433,0,0,1,28.866,985.8Z" transform="translate(-20.725 -975.662)" fill="#0b1f44"/>
  <path id="Path_12307" data-name="Path 12307" d="M28.866,989.3a.433.433,0,1,1-.433-.433A.433.433,0,0,1,28.866,989.3Z" transform="translate(-20.725 -977.95)" fill="#0b1f44"/>
  <path id="Path_12308" data-name="Path 12308" d="M28.866,992.8a.433.433,0,1,1-.433-.433A.433.433,0,0,1,28.866,992.8Z" transform="translate(-20.725 -980.237)" fill="#0b1f44"/>
  <path id="Path_12309" data-name="Path 12309" d="M28.866,996.3a.433.433,0,1,1-.433-.433A.433.433,0,0,1,28.866,996.3Z" transform="translate(-20.725 -982.525)" fill="#0b1f44"/>
  <path id="Path_12310" data-name="Path 12310" d="M28.866,999.793a.433.433,0,1,1-.433-.433A.433.433,0,0,1,28.866,999.793Z" transform="translate(-20.725 -984.811)" fill="#0b1f44"/>
  <path id="Path_12311" data-name="Path 12311" d="M28.866,1003.293a.433.433,0,1,1-.433-.433A.433.433,0,0,1,28.866,1003.293Z" transform="translate(-20.725 -987.098)" fill="#0b1f44"/>
  <path id="Path_12312" data-name="Path 12312" d="M28.866,1006.793a.433.433,0,1,1-.433-.433A.433.433,0,0,1,28.866,1006.793Z" transform="translate(-20.725 -989.386)" fill="#0b1f44"/>
  <path id="Path_12313" data-name="Path 12313" d="M28.866,1010.293a.433.433,0,1,1-.433-.433A.433.433,0,0,1,28.866,1010.293Z" transform="translate(-20.725 -991.673)" fill="#0b1f44"/>
  <path id="Path_12314" data-name="Path 12314" d="M28.866,1013.793a.433.433,0,1,1-.433-.433A.433.433,0,0,1,28.866,1013.793Z" transform="translate(-20.725 -993.961)" fill="#0b1f44"/>
  <path id="Path_12315" data-name="Path 12315" d="M32.366,978.8a.433.433,0,1,1-.433-.433A.433.433,0,0,1,32.366,978.8Z" transform="translate(-23.013 -971.087)" fill="#0b1f44"/>
  <path id="Path_12316" data-name="Path 12316" d="M32.366,982.3a.433.433,0,1,1-.433-.433A.433.433,0,0,1,32.366,982.3Z" transform="translate(-23.013 -973.375)" fill="#0b1f44"/>
  <path id="Path_12317" data-name="Path 12317" d="M32.366,985.8a.433.433,0,1,1-.433-.433A.433.433,0,0,1,32.366,985.8Z" transform="translate(-23.013 -975.662)" fill="#0b1f44"/>
  <path id="Path_12318" data-name="Path 12318" d="M32.366,989.3a.433.433,0,1,1-.433-.433A.433.433,0,0,1,32.366,989.3Z" transform="translate(-23.013 -977.95)" fill="#0b1f44"/>
  <path id="Path_12319" data-name="Path 12319" d="M32.366,992.8a.433.433,0,1,1-.433-.433A.433.433,0,0,1,32.366,992.8Z" transform="translate(-23.013 -980.237)" fill="#0b1f44"/>
  <path id="Path_12320" data-name="Path 12320" d="M32.366,996.3a.433.433,0,1,1-.433-.433A.433.433,0,0,1,32.366,996.3Z" transform="translate(-23.013 -982.525)" fill="#0b1f44"/>
  <path id="Path_12321" data-name="Path 12321" d="M32.366,999.793a.433.433,0,1,1-.433-.433A.433.433,0,0,1,32.366,999.793Z" transform="translate(-23.013 -984.811)" fill="#0b1f44"/>
  <path id="Path_12322" data-name="Path 12322" d="M32.366,1003.293a.433.433,0,1,1-.433-.433A.433.433,0,0,1,32.366,1003.293Z" transform="translate(-23.013 -987.098)" fill="#0b1f44"/>
  <path id="Path_12323" data-name="Path 12323" d="M32.366,1006.793a.433.433,0,1,1-.433-.433A.433.433,0,0,1,32.366,1006.793Z" transform="translate(-23.013 -989.386)" fill="#0b1f44"/>
  <path id="Path_12324" data-name="Path 12324" d="M32.366,1010.293a.433.433,0,1,1-.433-.433A.433.433,0,0,1,32.366,1010.293Z" transform="translate(-23.013 -991.673)" fill="#0b1f44"/>
  <path id="Path_12325" data-name="Path 12325" d="M32.366,1013.793a.433.433,0,1,1-.433-.433A.433.433,0,0,1,32.366,1013.793Z" transform="translate(-23.013 -993.961)" fill="#0b1f44"/>
  <path id="Path_12326" data-name="Path 12326" d="M32.366,1017.293a.433.433,0,1,1-.433-.433A.433.433,0,0,1,32.366,1017.293Z" transform="translate(-23.013 -996.248)" fill="#0b1f44"/>
  <path id="Path_12327" data-name="Path 12327" d="M32.366,1020.793a.433.433,0,1,1-.433-.433A.433.433,0,0,1,32.366,1020.793Z" transform="translate(-23.013 -998.536)" fill="#0b1f44"/>
  <path id="Path_12328" data-name="Path 12328" d="M32.366,1024.293a.433.433,0,1,1-.433-.433A.433.433,0,0,1,32.366,1024.293Z" transform="translate(-23.013 -1000.823)" fill="#0b1f44"/>
  <path id="Path_12329" data-name="Path 12329" d="M35.866,975.3a.433.433,0,1,1-.433-.433A.433.433,0,0,1,35.866,975.3Z" transform="translate(-25.3 -968.799)" fill="#0b1f44"/>
  <path id="Path_12330" data-name="Path 12330" d="M35.866,978.8a.433.433,0,1,1-.433-.433A.433.433,0,0,1,35.866,978.8Z" transform="translate(-25.3 -971.087)" fill="#0b1f44"/>
  <path id="Path_12331" data-name="Path 12331" d="M35.866,982.3a.433.433,0,1,1-.433-.433A.433.433,0,0,1,35.866,982.3Z" transform="translate(-25.3 -973.375)" fill="#0b1f44"/>
  <path id="Path_12332" data-name="Path 12332" d="M35.866,985.8a.433.433,0,1,1-.433-.433A.433.433,0,0,1,35.866,985.8Z" transform="translate(-25.3 -975.662)" fill="#0b1f44"/>
  <path id="Path_12333" data-name="Path 12333" d="M35.866,989.3a.433.433,0,1,1-.433-.433A.433.433,0,0,1,35.866,989.3Z" transform="translate(-25.3 -977.95)" fill="#0b1f44"/>
  <path id="Path_12334" data-name="Path 12334" d="M35.866,992.8a.433.433,0,1,1-.433-.433A.433.433,0,0,1,35.866,992.8Z" transform="translate(-25.3 -980.237)" fill="#0b1f44"/>
  <path id="Path_12335" data-name="Path 12335" d="M35.866,996.3a.433.433,0,1,1-.433-.433A.433.433,0,0,1,35.866,996.3Z" transform="translate(-25.3 -982.525)" fill="#0b1f44"/>
  <path id="Path_12336" data-name="Path 12336" d="M35.866,999.793a.433.433,0,1,1-.433-.433A.433.433,0,0,1,35.866,999.793Z" transform="translate(-25.3 -984.811)" fill="#0b1f44"/>
  <path id="Path_12337" data-name="Path 12337" d="M35.866,1003.293a.433.433,0,1,1-.433-.433A.433.433,0,0,1,35.866,1003.293Z" transform="translate(-25.3 -987.098)" fill="#0b1f44"/>
  <path id="Path_12338" data-name="Path 12338" d="M35.866,1006.793a.433.433,0,1,1-.433-.433A.433.433,0,0,1,35.866,1006.793Z" transform="translate(-25.3 -989.386)" fill="#0b1f44"/>
  <path id="Path_12339" data-name="Path 12339" d="M35.866,1010.293a.433.433,0,1,1-.433-.433A.433.433,0,0,1,35.866,1010.293Z" transform="translate(-25.3 -991.673)" fill="#0b1f44"/>
  <path id="Path_12340" data-name="Path 12340" d="M35.866,1013.793a.433.433,0,1,1-.433-.433A.433.433,0,0,1,35.866,1013.793Z" transform="translate(-25.3 -993.961)" fill="#0b1f44"/>
  <path id="Path_12341" data-name="Path 12341" d="M35.866,1017.293a.433.433,0,1,1-.433-.433A.433.433,0,0,1,35.866,1017.293Z" transform="translate(-25.3 -996.248)" fill="#0b1f44"/>
  <path id="Path_12342" data-name="Path 12342" d="M35.866,1020.793a.433.433,0,1,1-.433-.433A.433.433,0,0,1,35.866,1020.793Z" transform="translate(-25.3 -998.536)" fill="#0b1f44"/>
  <path id="Path_12343" data-name="Path 12343" d="M35.866,1024.293a.433.433,0,1,1-.433-.433A.433.433,0,0,1,35.866,1024.293Z" transform="translate(-25.3 -1000.823)" fill="#0b1f44"/>
  <path id="Path_12344" data-name="Path 12344" d="M35.866,1027.793a.433.433,0,1,1-.433-.433A.433.433,0,0,1,35.866,1027.793Z" transform="translate(-25.3 -1003.111)" fill="#0b1f44"/>
  <path id="Path_12345" data-name="Path 12345" d="M39.366,971.795a.433.433,0,1,1-.433-.433A.433.433,0,0,1,39.366,971.795Z" transform="translate(-27.588 -966.512)" fill="#0b1f44"/>
  <path id="Path_12346" data-name="Path 12346" d="M39.366,975.3a.433.433,0,1,1-.433-.433A.433.433,0,0,1,39.366,975.3Z" transform="translate(-27.588 -968.799)" fill="#0b1f44"/>
  <path id="Path_12347" data-name="Path 12347" d="M39.366,978.8a.433.433,0,1,1-.433-.433A.433.433,0,0,1,39.366,978.8Z" transform="translate(-27.588 -971.087)" fill="#0b1f44"/>
  <path id="Path_12348" data-name="Path 12348" d="M39.366,982.3a.433.433,0,1,1-.433-.433.433.433,0,0,1,.433.433Z" transform="translate(-27.588 -973.375)" fill="#0b1f44"/>
  <path id="Path_12349" data-name="Path 12349" d="M39.366,985.8a.433.433,0,1,1-.433-.433A.433.433,0,0,1,39.366,985.8Z" transform="translate(-27.588 -975.662)" fill="#0b1f44"/>
  <path id="Path_12350" data-name="Path 12350" d="M39.366,989.3a.433.433,0,1,1-.433-.433A.433.433,0,0,1,39.366,989.3Z" transform="translate(-27.588 -977.95)" fill="#0b1f44"/>
  <path id="Path_12351" data-name="Path 12351" d="M39.366,992.8a.433.433,0,1,1-.433-.433A.433.433,0,0,1,39.366,992.8Z" transform="translate(-27.588 -980.237)" fill="#0b1f44"/>
  <path id="Path_12352" data-name="Path 12352" d="M39.366,996.3a.433.433,0,1,1-.433-.433A.433.433,0,0,1,39.366,996.3Z" transform="translate(-27.588 -982.525)" fill="#0b1f44"/>
  <path id="Path_12353" data-name="Path 12353" d="M39.366,999.793a.433.433,0,1,1-.433-.433A.433.433,0,0,1,39.366,999.793Z" transform="translate(-27.588 -984.811)" fill="#0b1f44"/>
  <path id="Path_12354" data-name="Path 12354" d="M39.366,1003.293a.433.433,0,1,1-.433-.433A.433.433,0,0,1,39.366,1003.293Z" transform="translate(-27.588 -987.098)" fill="#0b1f44"/>
  <path id="Path_12355" data-name="Path 12355" d="M39.366,1006.793a.433.433,0,1,1-.433-.433A.433.433,0,0,1,39.366,1006.793Z" transform="translate(-27.588 -989.386)" fill="#0b1f44"/>
  <path id="Path_12356" data-name="Path 12356" d="M39.366,1010.293a.433.433,0,1,1-.433-.433A.433.433,0,0,1,39.366,1010.293Z" transform="translate(-27.588 -991.673)" fill="#0b1f44"/>
  <path id="Path_12357" data-name="Path 12357" d="M39.366,1013.793a.433.433,0,1,1-.433-.433A.433.433,0,0,1,39.366,1013.793Z" transform="translate(-27.588 -993.961)" fill="#0b1f44"/>
  <path id="Path_12358" data-name="Path 12358" d="M39.366,1017.293a.433.433,0,1,1-.433-.433A.433.433,0,0,1,39.366,1017.293Z" transform="translate(-27.588 -996.248)" fill="#0b1f44"/>
  <path id="Path_12359" data-name="Path 12359" d="M39.366,1020.793a.433.433,0,1,1-.433-.433A.433.433,0,0,1,39.366,1020.793Z" transform="translate(-27.588 -998.536)" fill="#0b1f44"/>
  <path id="Path_12360" data-name="Path 12360" d="M39.366,1024.293a.433.433,0,1,1-.433-.433A.433.433,0,0,1,39.366,1024.293Z" transform="translate(-27.588 -1000.823)" fill="#0b1f44"/>
  <path id="Path_12361" data-name="Path 12361" d="M42.866,968.3a.433.433,0,1,1-.433-.433A.433.433,0,0,1,42.866,968.3Z" transform="translate(-29.875 -964.225)" fill="#0b1f44"/>
  <path id="Path_12362" data-name="Path 12362" d="M42.866,971.795a.433.433,0,1,1-.433-.433A.433.433,0,0,1,42.866,971.795Z" transform="translate(-29.875 -966.512)" fill="#0b1f44"/>
  <path id="Path_12363" data-name="Path 12363" d="M42.866,975.3a.433.433,0,1,1-.433-.433A.433.433,0,0,1,42.866,975.3Z" transform="translate(-29.875 -968.799)" fill="#0b1f44"/>
  <path id="Path_12364" data-name="Path 12364" d="M42.866,978.8a.433.433,0,1,1-.433-.433A.433.433,0,0,1,42.866,978.8Z" transform="translate(-29.875 -971.087)" fill="#0b1f44"/>
  <path id="Path_12365" data-name="Path 12365" d="M42.866,982.3a.433.433,0,1,1-.433-.433A.433.433,0,0,1,42.866,982.3Z" transform="translate(-29.875 -973.375)" fill="#0b1f44"/>
  <path id="Path_12366" data-name="Path 12366" d="M42.866,985.8a.433.433,0,1,1-.433-.433A.433.433,0,0,1,42.866,985.8Z" transform="translate(-29.875 -975.662)" fill="#0b1f44"/>
  <path id="Path_12367" data-name="Path 12367" d="M42.866,989.3a.433.433,0,1,1-.433-.433A.433.433,0,0,1,42.866,989.3Z" transform="translate(-29.875 -977.95)" fill="#0b1f44"/>
  <path id="Path_12368" data-name="Path 12368" d="M42.866,992.8a.433.433,0,1,1-.433-.433A.433.433,0,0,1,42.866,992.8Z" transform="translate(-29.875 -980.237)" fill="#0b1f44"/>
  <path id="Path_12369" data-name="Path 12369" d="M42.866,996.3a.433.433,0,1,1-.433-.433A.433.433,0,0,1,42.866,996.3Z" transform="translate(-29.875 -982.525)" fill="#0b1f44"/>
  <path id="Path_12370" data-name="Path 12370" d="M42.866,999.793a.433.433,0,1,1-.433-.433A.433.433,0,0,1,42.866,999.793Z" transform="translate(-29.875 -984.811)" fill="#0b1f44"/>
  <path id="Path_12371" data-name="Path 12371" d="M42.866,1003.293a.433.433,0,1,1-.433-.433A.433.433,0,0,1,42.866,1003.293Z" transform="translate(-29.875 -987.098)" fill="#0b1f44"/>
  <path id="Path_12372" data-name="Path 12372" d="M42.866,1006.793a.433.433,0,1,1-.433-.433A.433.433,0,0,1,42.866,1006.793Z" transform="translate(-29.875 -989.386)" fill="#0b1f44"/>
  <path id="Path_12373" data-name="Path 12373" d="M42.866,1010.293a.433.433,0,1,1-.433-.433A.433.433,0,0,1,42.866,1010.293Z" transform="translate(-29.875 -991.673)" fill="#0b1f44"/>
  <path id="Path_12374" data-name="Path 12374" d="M42.866,1013.793a.433.433,0,1,1-.433-.433A.433.433,0,0,1,42.866,1013.793Z" transform="translate(-29.875 -993.961)" fill="#0b1f44"/>
  <path id="Path_12375" data-name="Path 12375" d="M42.866,1017.293a.433.433,0,1,1-.433-.433A.433.433,0,0,1,42.866,1017.293Z" transform="translate(-29.875 -996.248)" fill="#0b1f44"/>
  <path id="Path_12376" data-name="Path 12376" d="M42.866,1020.793a.433.433,0,1,1-.433-.433A.433.433,0,0,1,42.866,1020.793Z" transform="translate(-29.875 -998.536)" fill="#0b1f44"/>
  <path id="Path_12377" data-name="Path 12377" d="M46.366,968.3a.433.433,0,1,1-.433-.433A.433.433,0,0,1,46.366,968.3Z" transform="translate(-32.163 -964.225)" fill="#0b1f44"/>
  <path id="Path_12378" data-name="Path 12378" d="M46.366,971.795a.433.433,0,1,1-.433-.433A.433.433,0,0,1,46.366,971.795Z" transform="translate(-32.163 -966.512)" fill="#0b1f44"/>
  <path id="Path_12379" data-name="Path 12379" d="M46.366,975.3a.433.433,0,1,1-.433-.433A.433.433,0,0,1,46.366,975.3Z" transform="translate(-32.163 -968.799)" fill="#0b1f44"/>
  <path id="Path_12380" data-name="Path 12380" d="M46.366,978.8a.433.433,0,1,1-.433-.433A.433.433,0,0,1,46.366,978.8Z" transform="translate(-32.163 -971.087)" fill="#0b1f44"/>
  <path id="Path_12381" data-name="Path 12381" d="M46.366,982.3a.433.433,0,1,1-.433-.433A.433.433,0,0,1,46.366,982.3Z" transform="translate(-32.163 -973.375)" fill="#0b1f44"/>
  <path id="Path_12382" data-name="Path 12382" d="M46.366,985.8a.433.433,0,1,1-.433-.433A.433.433,0,0,1,46.366,985.8Z" transform="translate(-32.163 -975.662)" fill="#0b1f44"/>
  <path id="Path_12383" data-name="Path 12383" d="M46.366,989.3a.433.433,0,1,1-.433-.433A.433.433,0,0,1,46.366,989.3Z" transform="translate(-32.163 -977.95)" fill="#0b1f44"/>
  <path id="Path_12384" data-name="Path 12384" d="M46.366,992.8a.433.433,0,1,1-.433-.433A.433.433,0,0,1,46.366,992.8Z" transform="translate(-32.163 -980.237)" fill="#0b1f44"/>
  <path id="Path_12385" data-name="Path 12385" d="M46.366,996.3a.433.433,0,1,1-.433-.433A.433.433,0,0,1,46.366,996.3Z" transform="translate(-32.163 -982.525)" fill="#0b1f44"/>
  <path id="Path_12386" data-name="Path 12386" d="M46.366,999.793a.433.433,0,1,1-.433-.433A.433.433,0,0,1,46.366,999.793Z" transform="translate(-32.163 -984.811)" fill="#0b1f44"/>
  <path id="Path_12387" data-name="Path 12387" d="M46.366,1003.293a.433.433,0,1,1-.433-.433A.433.433,0,0,1,46.366,1003.293Z" transform="translate(-32.163 -987.098)" fill="#0b1f44"/>
  <path id="Path_12388" data-name="Path 12388" d="M46.366,1006.793a.433.433,0,1,1-.433-.433A.433.433,0,0,1,46.366,1006.793Z" transform="translate(-32.163 -989.386)" fill="#0b1f44"/>
  <path id="Path_12389" data-name="Path 12389" d="M46.366,1010.293a.433.433,0,1,1-.433-.433A.433.433,0,0,1,46.366,1010.293Z" transform="translate(-32.163 -991.673)" fill="#0b1f44"/>
  <path id="Path_12390" data-name="Path 12390" d="M46.366,1013.793a.433.433,0,1,1-.433-.433A.433.433,0,0,1,46.366,1013.793Z" transform="translate(-32.163 -993.961)" fill="#0b1f44"/>
  <path id="Path_12391" data-name="Path 12391" d="M46.366,1017.293a.433.433,0,1,1-.433-.433A.433.433,0,0,1,46.366,1017.293Z" transform="translate(-32.163 -996.248)" fill="#0b1f44"/>
  <path id="Path_12392" data-name="Path 12392" d="M46.366,1020.793a.433.433,0,1,1-.433-.433A.433.433,0,0,1,46.366,1020.793Z" transform="translate(-32.163 -998.536)" fill="#0b1f44"/>
  <path id="Path_12393" data-name="Path 12393" d="M49.866,964.8a.433.433,0,1,1-.433-.433A.433.433,0,0,1,49.866,964.8Z" transform="translate(-34.45 -961.937)" fill="#0b1f44"/>
  <path id="Path_12394" data-name="Path 12394" d="M49.866,968.3a.433.433,0,1,1-.433-.433A.433.433,0,0,1,49.866,968.3Z" transform="translate(-34.45 -964.225)" fill="#0b1f44"/>
  <path id="Path_12395" data-name="Path 12395" d="M49.866,971.795a.433.433,0,1,1-.433-.433A.433.433,0,0,1,49.866,971.795Z" transform="translate(-34.45 -966.512)" fill="#0b1f44"/>
  <path id="Path_12396" data-name="Path 12396" d="M49.866,975.3a.433.433,0,1,1-.433-.433A.433.433,0,0,1,49.866,975.3Z" transform="translate(-34.45 -968.799)" fill="#0b1f44"/>
  <path id="Path_12397" data-name="Path 12397" d="M49.866,978.8a.433.433,0,1,1-.433-.433A.433.433,0,0,1,49.866,978.8Z" transform="translate(-34.45 -971.087)" fill="#0b1f44"/>
  <path id="Path_12398" data-name="Path 12398" d="M49.866,982.3a.433.433,0,1,1-.433-.433A.433.433,0,0,1,49.866,982.3Z" transform="translate(-34.45 -973.375)" fill="#0b1f44"/>
  <path id="Path_12399" data-name="Path 12399" d="M49.866,985.8a.433.433,0,1,1-.433-.433A.433.433,0,0,1,49.866,985.8Z" transform="translate(-34.45 -975.662)" fill="#0b1f44"/>
  <path id="Path_12400" data-name="Path 12400" d="M49.866,989.3a.433.433,0,1,1-.433-.433A.433.433,0,0,1,49.866,989.3Z" transform="translate(-34.45 -977.95)" fill="#0b1f44"/>
  <path id="Path_12401" data-name="Path 12401" d="M49.866,992.8a.433.433,0,1,1-.433-.433A.433.433,0,0,1,49.866,992.8Z" transform="translate(-34.45 -980.237)" fill="#0b1f44"/>
  <path id="Path_12402" data-name="Path 12402" d="M49.866,996.3a.433.433,0,1,1-.433-.433A.433.433,0,0,1,49.866,996.3Z" transform="translate(-34.45 -982.525)" fill="#0b1f44"/>
  <path id="Path_12403" data-name="Path 12403" d="M49.866,999.793a.433.433,0,1,1-.433-.433A.433.433,0,0,1,49.866,999.793Z" transform="translate(-34.45 -984.811)" fill="#0b1f44"/>
  <path id="Path_12404" data-name="Path 12404" d="M49.866,1003.293a.433.433,0,1,1-.433-.433A.433.433,0,0,1,49.866,1003.293Z" transform="translate(-34.45 -987.098)" fill="#0b1f44"/>
  <path id="Path_12405" data-name="Path 12405" d="M49.866,1006.793a.433.433,0,1,1-.433-.433A.433.433,0,0,1,49.866,1006.793Z" transform="translate(-34.45 -989.386)" fill="#0b1f44"/>
  <path id="Path_12406" data-name="Path 12406" d="M49.866,1010.293a.433.433,0,1,1-.433-.433A.433.433,0,0,1,49.866,1010.293Z" transform="translate(-34.45 -991.673)" fill="#0b1f44"/>
  <path id="Path_12407" data-name="Path 12407" d="M49.866,1013.793a.433.433,0,1,1-.433-.433A.433.433,0,0,1,49.866,1013.793Z" transform="translate(-34.45 -993.961)" fill="#0b1f44"/>
  <path id="Path_12408" data-name="Path 12408" d="M49.866,1017.293a.433.433,0,1,1-.433-.433A.433.433,0,0,1,49.866,1017.293Z" transform="translate(-34.45 -996.248)" fill="#0b1f44"/>
  <path id="Path_12409" data-name="Path 12409" d="M53.366,964.8a.433.433,0,1,1-.433-.433A.433.433,0,0,1,53.366,964.8Z" transform="translate(-36.738 -961.937)" fill="#0b1f44"/>
  <path id="Path_12410" data-name="Path 12410" d="M53.366,968.3a.433.433,0,1,1-.433-.433A.433.433,0,0,1,53.366,968.3Z" transform="translate(-36.738 -964.225)" fill="#0b1f44"/>
  <path id="Path_12411" data-name="Path 12411" d="M53.366,971.795a.433.433,0,1,1-.433-.433A.433.433,0,0,1,53.366,971.795Z" transform="translate(-36.738 -966.512)" fill="#0b1f44"/>
  <path id="Path_12412" data-name="Path 12412" d="M53.366,975.3a.433.433,0,1,1-.433-.433A.433.433,0,0,1,53.366,975.3Z" transform="translate(-36.738 -968.799)" fill="#0b1f44"/>
  <path id="Path_12413" data-name="Path 12413" d="M53.366,978.8a.433.433,0,1,1-.433-.433A.433.433,0,0,1,53.366,978.8Z" transform="translate(-36.738 -971.087)" fill="#0b1f44"/>
  <path id="Path_12414" data-name="Path 12414" d="M53.366,982.3a.433.433,0,1,1-.433-.433A.433.433,0,0,1,53.366,982.3Z" transform="translate(-36.738 -973.375)" fill="#0b1f44"/>
  <path id="Path_12415" data-name="Path 12415" d="M53.366,985.8a.433.433,0,1,1-.433-.433A.433.433,0,0,1,53.366,985.8Z" transform="translate(-36.738 -975.662)" fill="#0b1f44"/>
  <path id="Path_12416" data-name="Path 12416" d="M53.366,989.3a.433.433,0,1,1-.433-.433A.433.433,0,0,1,53.366,989.3Z" transform="translate(-36.738 -977.95)" fill="#0b1f44"/>
  <path id="Path_12417" data-name="Path 12417" d="M53.366,992.8a.433.433,0,1,1-.433-.433A.433.433,0,0,1,53.366,992.8Z" transform="translate(-36.738 -980.237)" fill="#0b1f44"/>
  <path id="Path_12418" data-name="Path 12418" d="M53.366,996.3a.433.433,0,1,1-.433-.433A.433.433,0,0,1,53.366,996.3Z" transform="translate(-36.738 -982.525)" fill="#0b1f44"/>
  <path id="Path_12419" data-name="Path 12419" d="M53.366,999.793a.433.433,0,1,1-.433-.433A.433.433,0,0,1,53.366,999.793Z" transform="translate(-36.738 -984.811)" fill="#0b1f44"/>
  <path id="Path_12420" data-name="Path 12420" d="M53.366,1003.293a.433.433,0,1,1-.433-.433A.433.433,0,0,1,53.366,1003.293Z" transform="translate(-36.738 -987.098)" fill="#0b1f44"/>
  <path id="Path_12421" data-name="Path 12421" d="M53.366,1006.793a.433.433,0,1,1-.433-.433A.433.433,0,0,1,53.366,1006.793Z" transform="translate(-36.738 -989.386)" fill="#0b1f44"/>
  <path id="Path_12422" data-name="Path 12422" d="M53.366,1010.293a.433.433,0,1,1-.433-.433A.433.433,0,0,1,53.366,1010.293Z" transform="translate(-36.738 -991.673)" fill="#0b1f44"/>
  <path id="Path_12423" data-name="Path 12423" d="M53.366,1013.793a.433.433,0,1,1-.433-.433A.433.433,0,0,1,53.366,1013.793Z" transform="translate(-36.738 -993.961)" fill="#0b1f44"/>
  <path id="Path_12424" data-name="Path 12424" d="M53.366,1017.293a.433.433,0,1,1-.433-.433A.433.433,0,0,1,53.366,1017.293Z" transform="translate(-36.738 -996.248)" fill="#0b1f44"/>
  <path id="Path_12425" data-name="Path 12425" d="M53.366,1020.793a.433.433,0,1,1-.433-.433A.433.433,0,0,1,53.366,1020.793Z" transform="translate(-36.738 -998.536)" fill="#0b1f44"/>
  <path id="Path_12426" data-name="Path 12426" d="M53.366,1024.293a.433.433,0,1,1-.433-.433A.433.433,0,0,1,53.366,1024.293Z" transform="translate(-36.738 -1000.823)" fill="#0b1f44"/>
  <path id="Path_12427" data-name="Path 12427" d="M53.366,1034.793a.433.433,0,1,1-.433-.433A.433.433,0,0,1,53.366,1034.793Z" transform="translate(-36.738 -1007.686)" fill="#0b1f44"/>
  <path id="Path_12428" data-name="Path 12428" d="M53.366,1038.293a.433.433,0,1,1-.433-.433A.433.433,0,0,1,53.366,1038.293Z" transform="translate(-36.738 -1009.974)" fill="#0b1f44"/>
  <path id="Path_12429" data-name="Path 12429" d="M56.866,964.8a.433.433,0,1,1-.433-.433A.433.433,0,0,1,56.866,964.8Z" transform="translate(-39.025 -961.937)" fill="#0b1f44"/>
  <path id="Path_12430" data-name="Path 12430" d="M56.866,968.3a.433.433,0,1,1-.433-.433A.433.433,0,0,1,56.866,968.3Z" transform="translate(-39.025 -964.225)" fill="#0b1f44"/>
  <path id="Path_12431" data-name="Path 12431" d="M56.866,971.795a.433.433,0,1,1-.433-.433A.433.433,0,0,1,56.866,971.795Z" transform="translate(-39.025 -966.512)" fill="#0b1f44"/>
  <path id="Path_12432" data-name="Path 12432" d="M56.866,975.3a.433.433,0,1,1-.433-.433A.433.433,0,0,1,56.866,975.3Z" transform="translate(-39.025 -968.799)" fill="#0b1f44"/>
  <path id="Path_12433" data-name="Path 12433" d="M56.866,978.8a.433.433,0,1,1-.433-.433A.433.433,0,0,1,56.866,978.8Z" transform="translate(-39.025 -971.087)" fill="#0b1f44"/>
  <path id="Path_12434" data-name="Path 12434" d="M56.866,982.3a.433.433,0,1,1-.433-.433A.433.433,0,0,1,56.866,982.3Z" transform="translate(-39.025 -973.375)" fill="#0b1f44"/>
  <path id="Path_12435" data-name="Path 12435" d="M56.866,985.8a.433.433,0,1,1-.433-.433A.433.433,0,0,1,56.866,985.8Z" transform="translate(-39.025 -975.662)" fill="#0b1f44"/>
  <path id="Path_12436" data-name="Path 12436" d="M56.866,989.3a.433.433,0,1,1-.433-.433A.433.433,0,0,1,56.866,989.3Z" transform="translate(-39.025 -977.95)" fill="#0b1f44"/>
  <path id="Path_12437" data-name="Path 12437" d="M56.866,992.8a.433.433,0,1,1-.433-.433A.433.433,0,0,1,56.866,992.8Z" transform="translate(-39.025 -980.237)" fill="#0b1f44"/>
  <path id="Path_12438" data-name="Path 12438" d="M56.866,996.3a.433.433,0,1,1-.433-.433A.433.433,0,0,1,56.866,996.3Z" transform="translate(-39.025 -982.525)" fill="#0b1f44"/>
  <path id="Path_12439" data-name="Path 12439" d="M56.866,999.793a.433.433,0,1,1-.433-.433A.433.433,0,0,1,56.866,999.793Z" transform="translate(-39.025 -984.811)" fill="#0b1f44"/>
  <path id="Path_12440" data-name="Path 12440" d="M56.866,1003.293a.433.433,0,1,1-.433-.433A.433.433,0,0,1,56.866,1003.293Z" transform="translate(-39.025 -987.098)" fill="#0b1f44"/>
  <path id="Path_12441" data-name="Path 12441" d="M56.866,1006.793a.433.433,0,1,1-.433-.433A.433.433,0,0,1,56.866,1006.793Z" transform="translate(-39.025 -989.386)" fill="#0b1f44"/>
  <path id="Path_12442" data-name="Path 12442" d="M56.866,1010.293a.433.433,0,1,1-.433-.433A.433.433,0,0,1,56.866,1010.293Z" transform="translate(-39.025 -991.673)" fill="#0b1f44"/>
  <path id="Path_12443" data-name="Path 12443" d="M56.866,1013.793a.433.433,0,1,1-.433-.433A.433.433,0,0,1,56.866,1013.793Z" transform="translate(-39.025 -993.961)" fill="#0b1f44"/>
  <path id="Path_12444" data-name="Path 12444" d="M56.866,1017.293a.433.433,0,1,1-.433-.433A.433.433,0,0,1,56.866,1017.293Z" transform="translate(-39.025 -996.248)" fill="#0b1f44"/>
  <path id="Path_12445" data-name="Path 12445" d="M56.866,1020.793a.433.433,0,1,1-.433-.433A.433.433,0,0,1,56.866,1020.793Z" transform="translate(-39.025 -998.536)" fill="#0b1f44"/>
  <path id="Path_12446" data-name="Path 12446" d="M56.866,1024.293a.433.433,0,1,1-.433-.433A.433.433,0,0,1,56.866,1024.293Z" transform="translate(-39.025 -1000.823)" fill="#0b1f44"/>
  <path id="Path_12447" data-name="Path 12447" d="M56.866,1027.793a.433.433,0,1,1-.433-.433A.433.433,0,0,1,56.866,1027.793Z" transform="translate(-39.025 -1003.111)" fill="#0b1f44"/>
  <path id="Path_12448" data-name="Path 12448" d="M56.866,1031.293a.433.433,0,1,1-.433-.433A.433.433,0,0,1,56.866,1031.293Z" transform="translate(-39.025 -1005.398)" fill="#0b1f44"/>
  <path id="Path_12449" data-name="Path 12449" d="M56.866,1038.293a.433.433,0,1,1-.433-.433A.433.433,0,0,1,56.866,1038.293Z" transform="translate(-39.025 -1009.974)" fill="#0b1f44"/>
  <path id="Path_12450" data-name="Path 12450" d="M56.866,1041.793a.433.433,0,1,1-.433-.433A.433.433,0,0,1,56.866,1041.793Z" transform="translate(-39.025 -1012.261)" fill="#0b1f44"/>
  <path id="Path_12451" data-name="Path 12451" d="M60.366,964.8a.433.433,0,1,1-.433-.433A.433.433,0,0,1,60.366,964.8Z" transform="translate(-41.313 -961.937)" fill="#0b1f44"/>
  <path id="Path_12452" data-name="Path 12452" d="M60.366,968.3a.433.433,0,1,1-.433-.433A.433.433,0,0,1,60.366,968.3Z" transform="translate(-41.313 -964.225)" fill="#0b1f44"/>
  <path id="Path_12453" data-name="Path 12453" d="M60.366,971.795a.433.433,0,1,1-.433-.433A.433.433,0,0,1,60.366,971.795Z" transform="translate(-41.313 -966.512)" fill="#0b1f44"/>
  <path id="Path_12454" data-name="Path 12454" d="M60.366,975.3a.433.433,0,1,1-.433-.433A.433.433,0,0,1,60.366,975.3Z" transform="translate(-41.313 -968.799)" fill="#0b1f44"/>
  <path id="Path_12455" data-name="Path 12455" d="M60.366,978.8a.433.433,0,1,1-.433-.433A.433.433,0,0,1,60.366,978.8Z" transform="translate(-41.313 -971.087)" fill="#0b1f44"/>
  <path id="Path_12456" data-name="Path 12456" d="M60.366,982.3a.433.433,0,1,1-.433-.433A.433.433,0,0,1,60.366,982.3Z" transform="translate(-41.313 -973.375)" fill="#0b1f44"/>
  <path id="Path_12457" data-name="Path 12457" d="M60.366,985.8a.433.433,0,1,1-.433-.433A.433.433,0,0,1,60.366,985.8Z" transform="translate(-41.313 -975.662)" fill="#0b1f44"/>
  <path id="Path_12458" data-name="Path 12458" d="M60.366,989.3a.433.433,0,1,1-.433-.433A.433.433,0,0,1,60.366,989.3Z" transform="translate(-41.313 -977.95)" fill="#0b1f44"/>
  <path id="Path_12459" data-name="Path 12459" d="M60.366,992.8a.433.433,0,1,1-.433-.433A.433.433,0,0,1,60.366,992.8Z" transform="translate(-41.313 -980.237)" fill="#0b1f44"/>
  <path id="Path_12460" data-name="Path 12460" d="M60.366,996.3a.433.433,0,1,1-.433-.433A.433.433,0,0,1,60.366,996.3Z" transform="translate(-41.313 -982.525)" fill="#0b1f44"/>
  <path id="Path_12461" data-name="Path 12461" d="M60.366,999.793a.433.433,0,1,1-.433-.433A.433.433,0,0,1,60.366,999.793Z" transform="translate(-41.313 -984.811)" fill="#0b1f44"/>
  <path id="Path_12462" data-name="Path 12462" d="M60.366,1003.293a.433.433,0,1,1-.433-.433A.433.433,0,0,1,60.366,1003.293Z" transform="translate(-41.313 -987.098)" fill="#0b1f44"/>
  <path id="Path_12463" data-name="Path 12463" d="M60.366,1006.793a.433.433,0,1,1-.433-.433A.433.433,0,0,1,60.366,1006.793Z" transform="translate(-41.313 -989.386)" fill="#0b1f44"/>
  <path id="Path_12464" data-name="Path 12464" d="M60.366,1010.293a.433.433,0,1,1-.433-.433A.433.433,0,0,1,60.366,1010.293Z" transform="translate(-41.313 -991.673)" fill="#0b1f44"/>
  <path id="Path_12465" data-name="Path 12465" d="M60.366,1013.793a.433.433,0,1,1-.433-.433A.433.433,0,0,1,60.366,1013.793Z" transform="translate(-41.313 -993.961)" fill="#0b1f44"/>
  <path id="Path_12466" data-name="Path 12466" d="M60.366,1017.293a.433.433,0,1,1-.433-.433A.433.433,0,0,1,60.366,1017.293Z" transform="translate(-41.313 -996.248)" fill="#0b1f44"/>
  <path id="Path_12467" data-name="Path 12467" d="M60.366,1020.793a.433.433,0,1,1-.433-.433A.433.433,0,0,1,60.366,1020.793Z" transform="translate(-41.313 -998.536)" fill="#0b1f44"/>
  <path id="Path_12468" data-name="Path 12468" d="M60.366,1024.293a.433.433,0,1,1-.433-.433A.433.433,0,0,1,60.366,1024.293Z" transform="translate(-41.313 -1000.823)" fill="#0b1f44"/>
  <path id="Path_12469" data-name="Path 12469" d="M60.366,1027.793a.433.433,0,1,1-.433-.433A.433.433,0,0,1,60.366,1027.793Z" transform="translate(-41.313 -1003.111)" fill="#0b1f44"/>
  <path id="Path_12470" data-name="Path 12470" d="M60.366,1031.293a.433.433,0,1,1-.433-.433A.433.433,0,0,1,60.366,1031.293Z" transform="translate(-41.313 -1005.398)" fill="#0b1f44"/>
  <path id="Path_12471" data-name="Path 12471" d="M60.366,1034.793a.433.433,0,1,1-.433-.433A.433.433,0,0,1,60.366,1034.793Z" transform="translate(-41.313 -1007.686)" fill="#0b1f44"/>
  <path id="Path_12472" data-name="Path 12472" d="M60.366,1041.793a.433.433,0,1,1-.433-.433A.433.433,0,0,1,60.366,1041.793Z" transform="translate(-41.313 -1012.261)" fill="#0b1f44"/>
  <path id="Path_12473" data-name="Path 12473" d="M60.366,1045.293a.433.433,0,1,1-.433-.433A.433.433,0,0,1,60.366,1045.293Z" transform="translate(-41.313 -1014.548)" fill="#0b1f44"/>
  <path id="Path_12474" data-name="Path 12474" d="M63.866,964.8a.433.433,0,1,1-.433-.433A.433.433,0,0,1,63.866,964.8Z" transform="translate(-43.6 -961.937)" fill="#0b1f44"/>
  <path id="Path_12475" data-name="Path 12475" d="M63.866,968.3a.433.433,0,1,1-.433-.433A.433.433,0,0,1,63.866,968.3Z" transform="translate(-43.6 -964.225)" fill="#0b1f44"/>
  <path id="Path_12476" data-name="Path 12476" d="M63.866,971.795a.433.433,0,1,1-.433-.433A.433.433,0,0,1,63.866,971.795Z" transform="translate(-43.6 -966.512)" fill="#0b1f44"/>
  <path id="Path_12477" data-name="Path 12477" d="M63.866,975.3a.433.433,0,1,1-.433-.433A.433.433,0,0,1,63.866,975.3Z" transform="translate(-43.6 -968.799)" fill="#0b1f44"/>
  <path id="Path_12478" data-name="Path 12478" d="M63.866,978.8a.433.433,0,1,1-.433-.433A.433.433,0,0,1,63.866,978.8Z" transform="translate(-43.6 -971.087)" fill="#0b1f44"/>
  <path id="Path_12479" data-name="Path 12479" d="M63.866,982.3a.433.433,0,1,1-.433-.433A.433.433,0,0,1,63.866,982.3Z" transform="translate(-43.6 -973.375)" fill="#0b1f44"/>
  <path id="Path_12480" data-name="Path 12480" d="M63.866,985.8a.433.433,0,1,1-.433-.433A.433.433,0,0,1,63.866,985.8Z" transform="translate(-43.6 -975.662)" fill="#0b1f44"/>
  <path id="Path_12481" data-name="Path 12481" d="M63.866,989.3a.433.433,0,1,1-.433-.433A.433.433,0,0,1,63.866,989.3Z" transform="translate(-43.6 -977.95)" fill="#0b1f44"/>
  <path id="Path_12482" data-name="Path 12482" d="M63.866,992.8a.433.433,0,1,1-.433-.433A.433.433,0,0,1,63.866,992.8Z" transform="translate(-43.6 -980.237)" fill="#0b1f44"/>
  <path id="Path_12483" data-name="Path 12483" d="M63.866,996.3a.433.433,0,1,1-.433-.433A.433.433,0,0,1,63.866,996.3Z" transform="translate(-43.6 -982.525)" fill="#0b1f44"/>
  <path id="Path_12484" data-name="Path 12484" d="M63.866,999.793a.433.433,0,1,1-.433-.433A.433.433,0,0,1,63.866,999.793Z" transform="translate(-43.6 -984.811)" fill="#0b1f44"/>
  <path id="Path_12485" data-name="Path 12485" d="M63.866,1003.293a.433.433,0,1,1-.433-.433A.433.433,0,0,1,63.866,1003.293Z" transform="translate(-43.6 -987.098)" fill="#0b1f44"/>
  <path id="Path_12486" data-name="Path 12486" d="M63.866,1006.793a.433.433,0,1,1-.433-.433A.433.433,0,0,1,63.866,1006.793Z" transform="translate(-43.6 -989.386)" fill="#0b1f44"/>
  <path id="Path_12487" data-name="Path 12487" d="M63.866,1010.293a.433.433,0,1,1-.433-.433A.433.433,0,0,1,63.866,1010.293Z" transform="translate(-43.6 -991.673)" fill="#0b1f44"/>
  <path id="Path_12488" data-name="Path 12488" d="M63.866,1013.793a.433.433,0,1,1-.433-.433A.433.433,0,0,1,63.866,1013.793Z" transform="translate(-43.6 -993.961)" fill="#0b1f44"/>
  <path id="Path_12489" data-name="Path 12489" d="M63.866,1017.293a.433.433,0,1,1-.433-.433A.433.433,0,0,1,63.866,1017.293Z" transform="translate(-43.6 -996.248)" fill="#0b1f44"/>
  <path id="Path_12490" data-name="Path 12490" d="M63.866,1020.793a.433.433,0,1,1-.433-.433A.433.433,0,0,1,63.866,1020.793Z" transform="translate(-43.6 -998.536)" fill="#0b1f44"/>
  <path id="Path_12491" data-name="Path 12491" d="M63.866,1024.293a.433.433,0,1,1-.433-.433A.433.433,0,0,1,63.866,1024.293Z" transform="translate(-43.6 -1000.823)" fill="#0b1f44"/>
  <path id="Path_12492" data-name="Path 12492" d="M63.866,1027.793a.433.433,0,1,1-.433-.433A.433.433,0,0,1,63.866,1027.793Z" transform="translate(-43.6 -1003.111)" fill="#0b1f44"/>
  <path id="Path_12493" data-name="Path 12493" d="M63.866,1031.293a.433.433,0,1,1-.433-.433A.433.433,0,0,1,63.866,1031.293Z" transform="translate(-43.6 -1005.398)" fill="#0b1f44"/>
  <path id="Path_12494" data-name="Path 12494" d="M63.866,1038.293a.433.433,0,1,1-.433-.433A.433.433,0,0,1,63.866,1038.293Z" transform="translate(-43.6 -1009.974)" fill="#0b1f44"/>
  <path id="Path_12495" data-name="Path 12495" d="M63.866,1041.793a.433.433,0,1,1-.433-.433A.433.433,0,0,1,63.866,1041.793Z" transform="translate(-43.6 -1012.261)" fill="#0b1f44"/>
  <path id="Path_12496" data-name="Path 12496" d="M63.866,1045.293a.433.433,0,1,1-.433-.433A.433.433,0,0,1,63.866,1045.293Z" transform="translate(-43.6 -1014.548)" fill="#0b1f44"/>
  <path id="Path_12497" data-name="Path 12497" d="M67.366,964.8a.433.433,0,1,1-.433-.433A.433.433,0,0,1,67.366,964.8Z" transform="translate(-45.888 -961.937)" fill="#0b1f44"/>
  <path id="Path_12498" data-name="Path 12498" d="M67.366,968.3a.433.433,0,1,1-.433-.433A.433.433,0,0,1,67.366,968.3Z" transform="translate(-45.888 -964.225)" fill="#0b1f44"/>
  <path id="Path_12499" data-name="Path 12499" d="M67.366,971.795a.433.433,0,1,1-.433-.433A.433.433,0,0,1,67.366,971.795Z" transform="translate(-45.888 -966.512)" fill="#0b1f44"/>
  <path id="Path_12500" data-name="Path 12500" d="M67.366,975.3a.433.433,0,1,1-.433-.433A.433.433,0,0,1,67.366,975.3Z" transform="translate(-45.888 -968.799)" fill="#0b1f44"/>
  <path id="Path_12501" data-name="Path 12501" d="M67.366,978.8a.433.433,0,1,1-.433-.433A.433.433,0,0,1,67.366,978.8Z" transform="translate(-45.888 -971.087)" fill="#0b1f44"/>
  <path id="Path_12502" data-name="Path 12502" d="M67.366,982.3a.433.433,0,1,1-.433-.433A.433.433,0,0,1,67.366,982.3Z" transform="translate(-45.888 -973.375)" fill="#0b1f44"/>
  <path id="Path_12503" data-name="Path 12503" d="M67.366,985.8a.433.433,0,1,1-.433-.433A.433.433,0,0,1,67.366,985.8Z" transform="translate(-45.888 -975.662)" fill="#0b1f44"/>
  <path id="Path_12504" data-name="Path 12504" d="M67.366,989.3a.433.433,0,1,1-.433-.433A.433.433,0,0,1,67.366,989.3Z" transform="translate(-45.888 -977.95)" fill="#0b1f44"/>
  <path id="Path_12505" data-name="Path 12505" d="M67.366,992.8a.433.433,0,1,1-.433-.433A.433.433,0,0,1,67.366,992.8Z" transform="translate(-45.888 -980.237)" fill="#0b1f44"/>
  <path id="Path_12506" data-name="Path 12506" d="M67.366,996.3a.433.433,0,1,1-.433-.433A.433.433,0,0,1,67.366,996.3Z" transform="translate(-45.888 -982.525)" fill="#0b1f44"/>
  <path id="Path_12507" data-name="Path 12507" d="M67.366,999.793a.433.433,0,1,1-.433-.433A.433.433,0,0,1,67.366,999.793Z" transform="translate(-45.888 -984.811)" fill="#0b1f44"/>
  <path id="Path_12508" data-name="Path 12508" d="M67.366,1003.293a.433.433,0,1,1-.433-.433A.433.433,0,0,1,67.366,1003.293Z" transform="translate(-45.888 -987.098)" fill="#0b1f44"/>
  <path id="Path_12509" data-name="Path 12509" d="M67.366,1006.793a.433.433,0,1,1-.433-.433A.433.433,0,0,1,67.366,1006.793Z" transform="translate(-45.888 -989.386)" fill="#0b1f44"/>
  <path id="Path_12510" data-name="Path 12510" d="M67.366,1010.293a.433.433,0,1,1-.433-.433A.433.433,0,0,1,67.366,1010.293Z" transform="translate(-45.888 -991.673)" fill="#0b1f44"/>
  <path id="Path_12511" data-name="Path 12511" d="M67.366,1013.793a.433.433,0,1,1-.433-.433A.433.433,0,0,1,67.366,1013.793Z" transform="translate(-45.888 -993.961)" fill="#0b1f44"/>
  <path id="Path_12512" data-name="Path 12512" d="M67.366,1017.293a.433.433,0,1,1-.433-.433A.433.433,0,0,1,67.366,1017.293Z" transform="translate(-45.888 -996.248)" fill="#0b1f44"/>
  <path id="Path_12513" data-name="Path 12513" d="M67.366,1020.793a.433.433,0,1,1-.433-.433A.433.433,0,0,1,67.366,1020.793Z" transform="translate(-45.888 -998.536)" fill="#0b1f44"/>
  <path id="Path_12514" data-name="Path 12514" d="M67.366,1024.293a.433.433,0,1,1-.433-.433A.433.433,0,0,1,67.366,1024.293Z" transform="translate(-45.888 -1000.823)" fill="#0b1f44"/>
  <path id="Path_12515" data-name="Path 12515" d="M67.366,1027.793a.433.433,0,1,1-.433-.433A.433.433,0,0,1,67.366,1027.793Z" transform="translate(-45.888 -1003.111)" fill="#0b1f44"/>
  <path id="Path_12516" data-name="Path 12516" d="M67.366,1038.293a.433.433,0,1,1-.433-.433A.433.433,0,0,1,67.366,1038.293Z" transform="translate(-45.888 -1009.974)" fill="#0b1f44"/>
  <path id="Path_12517" data-name="Path 12517" d="M67.366,1045.293a.433.433,0,1,1-.433-.433A.433.433,0,0,1,67.366,1045.293Z" transform="translate(-45.888 -1014.548)" fill="#0b1f44"/>
  <path id="Path_12518" data-name="Path 12518" d="M70.866,964.8a.433.433,0,1,1-.433-.433A.433.433,0,0,1,70.866,964.8Z" transform="translate(-48.175 -961.937)" fill="#0b1f44"/>
  <path id="Path_12519" data-name="Path 12519" d="M70.866,968.3a.433.433,0,1,1-.433-.433A.433.433,0,0,1,70.866,968.3Z" transform="translate(-48.175 -964.225)" fill="#0b1f44"/>
  <path id="Path_12520" data-name="Path 12520" d="M70.866,971.795a.433.433,0,1,1-.433-.433A.433.433,0,0,1,70.866,971.795Z" transform="translate(-48.175 -966.512)" fill="#0b1f44"/>
  <path id="Path_12521" data-name="Path 12521" d="M70.866,975.3a.433.433,0,1,1-.433-.433A.433.433,0,0,1,70.866,975.3Z" transform="translate(-48.175 -968.799)" fill="#0b1f44"/>
  <path id="Path_12522" data-name="Path 12522" d="M70.866,978.8a.433.433,0,1,1-.433-.433A.433.433,0,0,1,70.866,978.8Z" transform="translate(-48.175 -971.087)" fill="#0b1f44"/>
  <path id="Path_12523" data-name="Path 12523" d="M70.866,982.3a.433.433,0,1,1-.433-.433A.433.433,0,0,1,70.866,982.3Z" transform="translate(-48.175 -973.375)" fill="#0b1f44"/>
  <path id="Path_12524" data-name="Path 12524" d="M70.866,985.8a.433.433,0,1,1-.433-.433A.433.433,0,0,1,70.866,985.8Z" transform="translate(-48.175 -975.662)" fill="#0b1f44"/>
  <path id="Path_12525" data-name="Path 12525" d="M70.866,989.3a.433.433,0,1,1-.433-.433A.433.433,0,0,1,70.866,989.3Z" transform="translate(-48.175 -977.95)" fill="#0b1f44"/>
  <path id="Path_12526" data-name="Path 12526" d="M70.866,992.8a.433.433,0,1,1-.433-.433A.433.433,0,0,1,70.866,992.8Z" transform="translate(-48.175 -980.237)" fill="#0b1f44"/>
  <path id="Path_12527" data-name="Path 12527" d="M70.866,996.3a.433.433,0,1,1-.433-.433A.433.433,0,0,1,70.866,996.3Z" transform="translate(-48.175 -982.525)" fill="#0b1f44"/>
  <path id="Path_12528" data-name="Path 12528" d="M70.866,999.793a.433.433,0,1,1-.433-.433A.433.433,0,0,1,70.866,999.793Z" transform="translate(-48.175 -984.811)" fill="#0b1f44"/>
  <path id="Path_12529" data-name="Path 12529" d="M70.866,1003.293a.433.433,0,1,1-.433-.433A.433.433,0,0,1,70.866,1003.293Z" transform="translate(-48.175 -987.098)" fill="#0b1f44"/>
  <path id="Path_12530" data-name="Path 12530" d="M70.866,1006.793a.433.433,0,1,1-.433-.433A.433.433,0,0,1,70.866,1006.793Z" transform="translate(-48.175 -989.386)" fill="#0b1f44"/>
  <path id="Path_12531" data-name="Path 12531" d="M70.866,1010.293a.433.433,0,1,1-.433-.433A.433.433,0,0,1,70.866,1010.293Z" transform="translate(-48.175 -991.673)" fill="#0b1f44"/>
  <path id="Path_12532" data-name="Path 12532" d="M70.866,1013.793a.433.433,0,1,1-.433-.433A.433.433,0,0,1,70.866,1013.793Z" transform="translate(-48.175 -993.961)" fill="#0b1f44"/>
  <path id="Path_12533" data-name="Path 12533" d="M70.866,1017.293a.433.433,0,1,1-.433-.433A.433.433,0,0,1,70.866,1017.293Z" transform="translate(-48.175 -996.248)" fill="#0b1f44"/>
  <path id="Path_12534" data-name="Path 12534" d="M70.866,1038.293a.433.433,0,1,1-.433-.433A.433.433,0,0,1,70.866,1038.293Z" transform="translate(-48.175 -1009.974)" fill="#0b1f44"/>
  <path id="Path_12535" data-name="Path 12535" d="M70.866,1041.793a.433.433,0,1,1-.433-.433A.433.433,0,0,1,70.866,1041.793Z" transform="translate(-48.175 -1012.261)" fill="#0b1f44"/>
  <path id="Path_12536" data-name="Path 12536" d="M70.866,1045.293a.433.433,0,1,1-.433-.433A.433.433,0,0,1,70.866,1045.293Z" transform="translate(-48.175 -1014.548)" fill="#0b1f44"/>
  <path id="Path_12537" data-name="Path 12537" d="M74.366,964.8a.433.433,0,1,1-.433-.433A.433.433,0,0,1,74.366,964.8Z" transform="translate(-50.463 -961.937)" fill="#0b1f44"/>
  <path id="Path_12538" data-name="Path 12538" d="M74.366,968.3a.433.433,0,1,1-.433-.433A.433.433,0,0,1,74.366,968.3Z" transform="translate(-50.463 -964.225)" fill="#0b1f44"/>
  <path id="Path_12539" data-name="Path 12539" d="M74.366,971.795a.433.433,0,1,1-.433-.433A.433.433,0,0,1,74.366,971.795Z" transform="translate(-50.463 -966.512)" fill="#0b1f44"/>
  <path id="Path_12540" data-name="Path 12540" d="M74.366,975.3a.433.433,0,1,1-.433-.433A.433.433,0,0,1,74.366,975.3Z" transform="translate(-50.463 -968.799)" fill="#0b1f44"/>
  <path id="Path_12541" data-name="Path 12541" d="M74.366,978.8a.433.433,0,1,1-.433-.433A.433.433,0,0,1,74.366,978.8Z" transform="translate(-50.463 -971.087)" fill="#0b1f44"/>
  <path id="Path_12542" data-name="Path 12542" d="M74.366,982.3a.433.433,0,1,1-.433-.433A.433.433,0,0,1,74.366,982.3Z" transform="translate(-50.463 -973.375)" fill="#0b1f44"/>
  <path id="Path_12543" data-name="Path 12543" d="M74.366,985.8a.433.433,0,1,1-.433-.433A.433.433,0,0,1,74.366,985.8Z" transform="translate(-50.463 -975.662)" fill="#0b1f44"/>
  <path id="Path_12544" data-name="Path 12544" d="M74.366,989.3a.433.433,0,1,1-.433-.433A.433.433,0,0,1,74.366,989.3Z" transform="translate(-50.463 -977.95)" fill="#0b1f44"/>
  <path id="Path_12545" data-name="Path 12545" d="M74.366,992.8a.433.433,0,1,1-.433-.433A.433.433,0,0,1,74.366,992.8Z" transform="translate(-50.463 -980.237)" fill="#0b1f44"/>
  <path id="Path_12546" data-name="Path 12546" d="M74.366,996.3a.433.433,0,1,1-.433-.433A.433.433,0,0,1,74.366,996.3Z" transform="translate(-50.463 -982.525)" fill="#0b1f44"/>
  <path id="Path_12547" data-name="Path 12547" d="M74.366,999.793a.433.433,0,1,1-.433-.433A.433.433,0,0,1,74.366,999.793Z" transform="translate(-50.463 -984.811)" fill="#0b1f44"/>
  <path id="Path_12548" data-name="Path 12548" d="M74.366,1003.293a.433.433,0,1,1-.433-.433A.433.433,0,0,1,74.366,1003.293Z" transform="translate(-50.463 -987.098)" fill="#0b1f44"/>
  <path id="Path_12549" data-name="Path 12549" d="M74.366,1006.793a.433.433,0,1,1-.433-.433A.433.433,0,0,1,74.366,1006.793Z" transform="translate(-50.463 -989.386)" fill="#0b1f44"/>
  <path id="Path_12550" data-name="Path 12550" d="M74.366,1010.293a.433.433,0,1,1-.433-.433A.433.433,0,0,1,74.366,1010.293Z" transform="translate(-50.463 -991.673)" fill="#0b1f44"/>
  <path id="Path_12551" data-name="Path 12551" d="M74.366,1013.793a.433.433,0,1,1-.433-.433A.433.433,0,0,1,74.366,1013.793Z" transform="translate(-50.463 -993.961)" fill="#0b1f44"/>
  <path id="Path_12552" data-name="Path 12552" d="M74.366,1034.793a.433.433,0,1,1-.433-.433A.433.433,0,0,1,74.366,1034.793Z" transform="translate(-50.463 -1007.686)" fill="#0b1f44"/>
  <path id="Path_12553" data-name="Path 12553" d="M74.366,1038.293a.433.433,0,1,1-.433-.433A.433.433,0,0,1,74.366,1038.293Z" transform="translate(-50.463 -1009.974)" fill="#0b1f44"/>
  <path id="Path_12554" data-name="Path 12554" d="M74.366,1041.793a.433.433,0,1,1-.433-.433A.433.433,0,0,1,74.366,1041.793Z" transform="translate(-50.463 -1012.261)" fill="#0b1f44"/>
  <path id="Path_12555" data-name="Path 12555" d="M74.366,1045.293a.433.433,0,1,1-.433-.433A.433.433,0,0,1,74.366,1045.293Z" transform="translate(-50.463 -1014.548)" fill="#0b1f44"/>
  <path id="Path_12556" data-name="Path 12556" d="M77.866,961.3a.433.433,0,1,1-.433-.433A.433.433,0,0,1,77.866,961.3Z" transform="translate(-52.75 -959.65)" fill="#0b1f44"/>
  <path id="Path_12557" data-name="Path 12557" d="M77.866,964.8a.433.433,0,1,1-.433-.433A.433.433,0,0,1,77.866,964.8Z" transform="translate(-52.75 -961.937)" fill="#0b1f44"/>
  <path id="Path_12558" data-name="Path 12558" d="M77.866,968.3a.433.433,0,1,1-.433-.433A.433.433,0,0,1,77.866,968.3Z" transform="translate(-52.75 -964.225)" fill="#0b1f44"/>
  <path id="Path_12559" data-name="Path 12559" d="M77.866,971.795a.433.433,0,1,1-.433-.433A.433.433,0,0,1,77.866,971.795Z" transform="translate(-52.75 -966.512)" fill="#0b1f44"/>
  <path id="Path_12560" data-name="Path 12560" d="M77.866,975.3a.433.433,0,1,1-.433-.433A.433.433,0,0,1,77.866,975.3Z" transform="translate(-52.75 -968.799)" fill="#0b1f44"/>
  <path id="Path_12561" data-name="Path 12561" d="M77.866,978.8a.433.433,0,1,1-.433-.433A.433.433,0,0,1,77.866,978.8Z" transform="translate(-52.75 -971.087)" fill="#0b1f44"/>
  <path id="Path_12562" data-name="Path 12562" d="M77.866,982.3a.433.433,0,1,1-.433-.433A.433.433,0,0,1,77.866,982.3Z" transform="translate(-52.75 -973.375)" fill="#0b1f44"/>
  <path id="Path_12563" data-name="Path 12563" d="M77.866,985.8a.433.433,0,1,1-.433-.433A.433.433,0,0,1,77.866,985.8Z" transform="translate(-52.75 -975.662)" fill="#0b1f44"/>
  <path id="Path_12564" data-name="Path 12564" d="M77.866,989.3a.433.433,0,1,1-.433-.433A.433.433,0,0,1,77.866,989.3Z" transform="translate(-52.75 -977.95)" fill="#0b1f44"/>
  <path id="Path_12565" data-name="Path 12565" d="M77.866,992.8a.433.433,0,1,1-.433-.433A.433.433,0,0,1,77.866,992.8Z" transform="translate(-52.75 -980.237)" fill="#0b1f44"/>
  <path id="Path_12566" data-name="Path 12566" d="M77.866,996.3a.433.433,0,1,1-.433-.433A.433.433,0,0,1,77.866,996.3Z" transform="translate(-52.75 -982.525)" fill="#0b1f44"/>
  <path id="Path_12567" data-name="Path 12567" d="M77.866,999.793a.433.433,0,1,1-.433-.433A.433.433,0,0,1,77.866,999.793Z" transform="translate(-52.75 -984.811)" fill="#0b1f44"/>
  <path id="Path_12568" data-name="Path 12568" d="M77.866,1006.793a.433.433,0,1,1-.433-.433A.433.433,0,0,1,77.866,1006.793Z" transform="translate(-52.75 -989.386)" fill="#0b1f44"/>
  <path id="Path_12569" data-name="Path 12569" d="M77.866,1010.293a.433.433,0,1,1-.433-.433A.433.433,0,0,1,77.866,1010.293Z" transform="translate(-52.75 -991.673)" fill="#0b1f44"/>
  <path id="Path_12570" data-name="Path 12570" d="M77.866,1013.793a.433.433,0,1,1-.433-.433A.433.433,0,0,1,77.866,1013.793Z" transform="translate(-52.75 -993.961)" fill="#0b1f44"/>
  <path id="Path_12571" data-name="Path 12571" d="M77.866,1020.793a.433.433,0,1,1-.433-.433A.433.433,0,0,1,77.866,1020.793Z" transform="translate(-52.75 -998.536)" fill="#0b1f44"/>
  <path id="Path_12572" data-name="Path 12572" d="M77.866,1024.293a.433.433,0,1,1-.433-.433A.433.433,0,0,1,77.866,1024.293Z" transform="translate(-52.75 -1000.823)" fill="#0b1f44"/>
  <path id="Path_12573" data-name="Path 12573" d="M77.866,1031.293a.433.433,0,1,1-.433-.433A.433.433,0,0,1,77.866,1031.293Z" transform="translate(-52.75 -1005.398)" fill="#0b1f44"/>
  <path id="Path_12574" data-name="Path 12574" d="M77.866,1034.793a.433.433,0,1,1-.433-.433A.433.433,0,0,1,77.866,1034.793Z" transform="translate(-52.75 -1007.686)" fill="#0b1f44"/>
  <path id="Path_12575" data-name="Path 12575" d="M77.866,1038.293a.433.433,0,1,1-.433-.433A.433.433,0,0,1,77.866,1038.293Z" transform="translate(-52.75 -1009.974)" fill="#0b1f44"/>
  <path id="Path_12576" data-name="Path 12576" d="M77.866,1045.293a.433.433,0,1,1-.433-.433A.433.433,0,0,1,77.866,1045.293Z" transform="translate(-52.75 -1014.548)" fill="#0b1f44"/>
  <path id="Path_12577" data-name="Path 12577" d="M81.366,957.8a.433.433,0,1,1-.433-.433A.433.433,0,0,1,81.366,957.8Z" transform="translate(-55.038 -957.362)" fill="#0b1f44"/>
  <path id="Path_12578" data-name="Path 12578" d="M81.366,961.3a.433.433,0,1,1-.433-.433A.433.433,0,0,1,81.366,961.3Z" transform="translate(-55.038 -959.65)" fill="#0b1f44"/>
  <path id="Path_12579" data-name="Path 12579" d="M81.366,964.8a.433.433,0,1,1-.433-.433A.433.433,0,0,1,81.366,964.8Z" transform="translate(-55.038 -961.937)" fill="#0b1f44"/>
  <path id="Path_12580" data-name="Path 12580" d="M81.366,968.3a.433.433,0,1,1-.433-.433A.433.433,0,0,1,81.366,968.3Z" transform="translate(-55.038 -964.225)" fill="#0b1f44"/>
  <path id="Path_12581" data-name="Path 12581" d="M81.366,971.795a.433.433,0,1,1-.433-.433A.433.433,0,0,1,81.366,971.795Z" transform="translate(-55.038 -966.512)" fill="#0b1f44"/>
  <path id="Path_12582" data-name="Path 12582" d="M81.366,978.8a.433.433,0,1,1-.433-.433A.433.433,0,0,1,81.366,978.8Z" transform="translate(-55.038 -971.087)" fill="#0b1f44"/>
  <path id="Path_12583" data-name="Path 12583" d="M81.366,982.3a.433.433,0,1,1-.433-.433A.433.433,0,0,1,81.366,982.3Z" transform="translate(-55.038 -973.375)" fill="#0b1f44"/>
  <path id="Path_12584" data-name="Path 12584" d="M81.366,985.8a.433.433,0,1,1-.433-.433A.433.433,0,0,1,81.366,985.8Z" transform="translate(-55.038 -975.662)" fill="#0b1f44"/>
  <path id="Path_12585" data-name="Path 12585" d="M81.366,989.3a.433.433,0,1,1-.433-.433A.433.433,0,0,1,81.366,989.3Z" transform="translate(-55.038 -977.95)" fill="#0b1f44"/>
  <path id="Path_12586" data-name="Path 12586" d="M81.366,992.8a.433.433,0,1,1-.433-.433A.433.433,0,0,1,81.366,992.8Z" transform="translate(-55.038 -980.237)" fill="#0b1f44"/>
  <path id="Path_12587" data-name="Path 12587" d="M81.366,996.3a.433.433,0,1,1-.433-.433A.433.433,0,0,1,81.366,996.3Z" transform="translate(-55.038 -982.525)" fill="#0b1f44"/>
  <path id="Path_12588" data-name="Path 12588" d="M81.366,999.793a.433.433,0,1,1-.433-.433A.433.433,0,0,1,81.366,999.793Z" transform="translate(-55.038 -984.811)" fill="#0b1f44"/>
  <path id="Path_12589" data-name="Path 12589" d="M81.366,1020.793a.433.433,0,1,1-.433-.433A.433.433,0,0,1,81.366,1020.793Z" transform="translate(-55.038 -998.536)" fill="#0b1f44"/>
  <path id="Path_12590" data-name="Path 12590" d="M81.366,1024.293a.433.433,0,1,1-.433-.433A.433.433,0,0,1,81.366,1024.293Z" transform="translate(-55.038 -1000.823)" fill="#0b1f44"/>
  <path id="Path_12591" data-name="Path 12591" d="M81.366,1045.293a.433.433,0,1,1-.433-.433A.433.433,0,0,1,81.366,1045.293Z" transform="translate(-55.038 -1014.548)" fill="#0b1f44"/>
  <path id="Path_12592" data-name="Path 12592" d="M84.866,961.3a.433.433,0,1,1-.433-.433A.433.433,0,0,1,84.866,961.3Z" transform="translate(-57.325 -959.65)" fill="#0b1f44"/>
  <path id="Path_12593" data-name="Path 12593" d="M84.866,964.8a.433.433,0,1,1-.433-.433A.433.433,0,0,1,84.866,964.8Z" transform="translate(-57.325 -961.937)" fill="#0b1f44"/>
  <path id="Path_12594" data-name="Path 12594" d="M84.866,968.3a.433.433,0,1,1-.433-.433A.433.433,0,0,1,84.866,968.3Z" transform="translate(-57.325 -964.225)" fill="#0b1f44"/>
  <path id="Path_12595" data-name="Path 12595" d="M84.866,978.8a.433.433,0,1,1-.433-.433A.433.433,0,0,1,84.866,978.8Z" transform="translate(-57.325 -971.087)" fill="#0b1f44"/>
  <path id="Path_12596" data-name="Path 12596" d="M84.866,982.3a.433.433,0,1,1-.433-.433A.433.433,0,0,1,84.866,982.3Z" transform="translate(-57.325 -973.375)" fill="#0b1f44"/>
  <path id="Path_12597" data-name="Path 12597" d="M84.866,985.8a.433.433,0,1,1-.433-.433A.433.433,0,0,1,84.866,985.8Z" transform="translate(-57.325 -975.662)" fill="#0b1f44"/>
  <path id="Path_12598" data-name="Path 12598" d="M84.866,989.3a.433.433,0,1,1-.433-.433A.433.433,0,0,1,84.866,989.3Z" transform="translate(-57.325 -977.95)" fill="#0b1f44"/>
  <path id="Path_12599" data-name="Path 12599" d="M84.866,992.8a.433.433,0,1,1-.433-.433A.433.433,0,0,1,84.866,992.8Z" transform="translate(-57.325 -980.237)" fill="#0b1f44"/>
  <path id="Path_12600" data-name="Path 12600" d="M84.866,999.793a.433.433,0,1,1-.433-.433A.433.433,0,0,1,84.866,999.793Z" transform="translate(-57.325 -984.811)" fill="#0b1f44"/>
  <path id="Path_12601" data-name="Path 12601" d="M84.866,1003.293a.433.433,0,1,1-.433-.433A.433.433,0,0,1,84.866,1003.293Z" transform="translate(-57.325 -987.098)" fill="#0b1f44"/>
  <path id="Path_12602" data-name="Path 12602" d="M88.366,971.795a.433.433,0,1,1-.433-.433A.433.433,0,0,1,88.366,971.795Z" transform="translate(-59.613 -966.512)" fill="#0b1f44"/>
  <path id="Path_12603" data-name="Path 12603" d="M88.366,975.3a.433.433,0,1,1-.433-.433A.433.433,0,0,1,88.366,975.3Z" transform="translate(-59.613 -968.799)" fill="#0b1f44"/>
  <path id="Path_12604" data-name="Path 12604" d="M88.366,982.3a.433.433,0,1,1-.433-.433A.433.433,0,0,1,88.366,982.3Z" transform="translate(-59.613 -973.375)" fill="#0b1f44"/>
  <path id="Path_12605" data-name="Path 12605" d="M88.366,985.8a.433.433,0,1,1-.433-.433A.433.433,0,0,1,88.366,985.8Z" transform="translate(-59.613 -975.662)" fill="#0b1f44"/>
  <path id="Path_12606" data-name="Path 12606" d="M88.366,989.3a.433.433,0,1,1-.433-.433A.433.433,0,0,1,88.366,989.3Z" transform="translate(-59.613 -977.95)" fill="#0b1f44"/>
  <path id="Path_12607" data-name="Path 12607" d="M88.366,992.8a.433.433,0,1,1-.433-.433A.433.433,0,0,1,88.366,992.8Z" transform="translate(-59.613 -980.237)" fill="#0b1f44"/>
  <path id="Path_12608" data-name="Path 12608" d="M88.366,996.3a.433.433,0,1,1-.433-.433A.433.433,0,0,1,88.366,996.3Z" transform="translate(-59.613 -982.525)" fill="#0b1f44"/>
  <path id="Path_12609" data-name="Path 12609" d="M88.366,999.793a.433.433,0,1,1-.433-.433A.433.433,0,0,1,88.366,999.793Z" transform="translate(-59.613 -984.811)" fill="#0b1f44"/>
  <path id="Path_12610" data-name="Path 12610" d="M91.866,978.8a.433.433,0,1,1-.433-.433A.433.433,0,0,1,91.866,978.8Z" transform="translate(-61.9 -971.087)" fill="#0b1f44"/>
  <path id="Path_12611" data-name="Path 12611" d="M35.866,1031.293a.433.433,0,1,1-.433-.433A.433.433,0,0,1,35.866,1031.293Z" transform="translate(-25.3 -1005.398)" fill="#0b1f44"/>
</svg>
