<svg xmlns="http://www.w3.org/2000/svg" width="28.996" height="28.996" viewBox="0 0 28.996 28.996">
  <g id="Group_5578" data-name="Group 5578" transform="translate(-1 -1)">
    <circle id="Ellipse_331" data-name="Ellipse 331" cx="0.5" cy="0.5" r="0.5" transform="translate(27 16.996)" fill="#0b1f44"/>
    <rect id="Rectangle_2664" data-name="Rectangle 2664" width="1" height="3" transform="translate(27 19.996)" fill="#0b1f44"/>
    <rect id="Rectangle_2665" data-name="Rectangle 2665" width="1" height="3" transform="translate(3 19.996)" fill="#0b1f44"/>
    <path id="Path_12680" data-name="Path 12680" d="M30,13.627V3.338A2.341,2.341,0,0,0,27.657,1a1.4,1.4,0,0,0-1.4,1.4v.158a25.439,25.439,0,0,1-10.328,2.18H13.16a3.739,3.739,0,0,0-1.555,7.14,5.088,5.088,0,0,0-1.241,3.148H3.338A2.341,2.341,0,0,0,1,17.369V27.657A2.341,2.341,0,0,0,3.338,30H27.657A2.341,2.341,0,0,0,30,27.657V17.369a2.33,2.33,0,0,0-.95-1.871A2.33,2.33,0,0,0,30,13.627Zm-3.655,1.4H20.556a1.39,1.39,0,0,0-.279-.468,1.36,1.36,0,0,0,.279-1.4h.554a1.392,1.392,0,0,0,.767-.231A25.666,25.666,0,0,1,26.254,14.4v.159A1.387,1.387,0,0,0,26.341,15.03ZM20,24.384l-1.224-2.449v-.117c2.575.4,3.741,1.177,3.741,1.63,0,.763-2.733,1.871-7.015,1.871s-7.015-1.108-7.015-1.871c0-.449,1.167-1.227,3.741-1.629v.116L11,24.384Zm-7.483-.935.468-.935h5.034l.468.935Zm4.855-5.612a.468.468,0,1,1,0-.935h1.871a.468.468,0,1,1,0,.935Zm1.871-1.871H17.369a.468.468,0,1,1,0-.935h1.871a.468.468,0,1,1,0,.935Zm0-1.871H17.369a.468.468,0,1,1,0-.935h1.871a.468.468,0,1,1,0,.935Zm0-1.871H17.369a1.4,1.4,0,0,0-1.038,2.338,1.382,1.382,0,0,0,0,1.871,1.4,1.4,0,0,0,1.038,2.338h.468v.468a.468.468,0,0,1-.468.468H15.5a.468.468,0,0,1-.468-.468V14.4a1.412,1.412,0,0,1,.411-.992l1.871-1.871a1.771,1.771,0,0,0,.206-.251H21.11a.468.468,0,0,1,0,.935ZM15.03,5.677h.9a26.353,26.353,0,0,0,10.328-2.1v9.813a26.617,26.617,0,0,0-3.793-1.275,1.385,1.385,0,0,0,.052-.357,1.4,1.4,0,0,0-1.4-1.4H17.828c0-.027.008-.053.008-.08a1.8,1.8,0,0,0-1.831-1.791,1.783,1.783,0,0,0-.975.294ZM10.354,8.483A2.809,2.809,0,0,1,13.16,5.677h.935V9.584l-1.749,1.574A2.815,2.815,0,0,1,10.354,8.483Zm2.309,3.648,2.771-2.494a.883.883,0,0,1,.612-.219.855.855,0,0,1,.6,1.46L14.78,12.749a2.322,2.322,0,0,0-.685,1.653v4.837a1.4,1.4,0,0,0,1.4,1.4h1.871a1.387,1.387,0,0,0,.468-.086v1.021H13.16V21.5L11.5,16.529a4.149,4.149,0,0,1,1.161-4.4ZM5.677,15.966h4.734a5.082,5.082,0,0,0,.2.859l1.362,4.087c-2.785.45-4.429,1.384-4.429,2.538,0,1.842,4,2.806,7.95,2.806s7.95-.964,7.95-2.806c0-1.191-1.741-2.141-4.677-2.575v-2.1h.468a1.4,1.4,0,0,0,1.038-2.338,1.4,1.4,0,0,0,.279-.468h4.763V27.19H5.677Zm-3.741,1.4a1.4,1.4,0,0,1,1.4-1.4h1.4V27.19h-1.4a1.4,1.4,0,0,1-1.4-1.4ZM29.061,27.657a1.4,1.4,0,0,1-1.4,1.4H3.338a1.4,1.4,0,0,1-1.4-1.4v-.012a2.314,2.314,0,0,0,1.4.48H27.657a2.314,2.314,0,0,0,1.4-.48Zm0-10.289v8.418a1.4,1.4,0,0,1-1.4,1.4h-1.4V15.966h1.4A1.4,1.4,0,0,1,29.061,17.369Zm0-3.741a1.4,1.4,0,0,1-1.4,1.4.468.468,0,0,1-.468-.468V2.4a.468.468,0,0,1,.468-.468,1.4,1.4,0,0,1,1.4,1.4Z" fill="#0b1f44"/>
  </g>
</svg>
