<svg xmlns="http://www.w3.org/2000/svg" width="31.706" height="31.706" viewBox="0 0 31.706 31.706">
  <g id="Group_5563" data-name="Group 5563" transform="translate(-216 -216)">
    <rect id="Rectangle_2598" data-name="Rectangle 2598" width="2.114" height="1.057" transform="translate(223.927 222.87)" fill="#0b1f44"/>
    <path id="Path_12661" data-name="Path 12661" d="M241.333,243.975h.529a1.587,1.587,0,0,0,1.585-1.585v-1.057H242.39v1.057a.529.529,0,0,1-.528.528h-.529Z" transform="translate(-15.293 -15.293)" fill="#0b1f44"/>
    <circle id="Ellipse_329" data-name="Ellipse 329" cx="0.528" cy="0.528" r="0.528" transform="translate(224.455 224.455)" fill="#0b1f44"/>
    <rect id="Rectangle_2599" data-name="Rectangle 2599" width="2.114" height="1.057" transform="translate(228.154 222.87)" fill="#0b1f44"/>
    <circle id="Ellipse_330" data-name="Ellipse 330" cx="0.528" cy="0.528" r="0.528" transform="translate(228.682 224.455)" fill="#0b1f44"/>
    <path id="Path_12662" data-name="Path 12662" d="M246.121,226.04h-7.639a1.581,1.581,0,0,0-1.08.424l-3.65,3.393-1.855-1.082a5.245,5.245,0,0,0,.485-2.207v-7.4a2.116,2.116,0,0,0-2.114-2.114h-.285A2.113,2.113,0,0,0,228.154,216H226.04a4.232,4.232,0,0,0-4.227,4.228v6.341a5.245,5.245,0,0,0,.485,2.207l-4.987,2.909A2.651,2.651,0,0,0,216,233.967v13.211a.528.528,0,0,0,.528.528h29.592a1.587,1.587,0,0,0,1.585-1.585v-18.5A1.587,1.587,0,0,0,246.121,226.04Zm-14.268,16.034-1.183.845-3.044-.537v-9.551L228.8,234.3a.529.529,0,0,0,.384.2h.029a.529.529,0,0,0,.374-.155l2.291-2.291a1.592,1.592,0,0,0-.023.264Zm-8.984-15.505v-4.756h3.7a3.689,3.689,0,0,0,2.609-1.08,2.841,2.841,0,0,0,2.147,1.078v4.758a4.228,4.228,0,0,1-8.455,0Zm9.365,3.627-2.98,2.98-1.138-1.422a5.293,5.293,0,0,0,3.244-2.067Zm-.91-11.025v1.582a1.785,1.785,0,0,1-1.481-.922,3.674,3.674,0,0,0,.424-1.716A1.058,1.058,0,0,1,231.325,219.171Zm-8.455,1.057a3.174,3.174,0,0,1,3.171-3.171h2.114a1.057,1.057,0,0,1,1.057,1.057,2.645,2.645,0,0,1-2.642,2.642h-3.7Zm3.208,11.526-1.138,1.422-2.98-2.98.874-.51A5.293,5.293,0,0,0,226.077,231.753Zm-9.02,14.9v-1.783a6.386,6.386,0,0,0,1.783,1.783Zm13.211,0h-7.927a5.29,5.29,0,0,1-5.284-5.284v-7.4a1.59,1.59,0,0,1,.786-1.369l3.173-1.85,3.594,3.593a.529.529,0,0,0,.374.155h.029a.529.529,0,0,0,.384-.2l1.173-1.466V242.2l-2.918-.515a1.583,1.583,0,0,1-1.31-1.561v-2.983h-1.057v2.983a2.639,2.639,0,0,0,2.183,2.6l6.8,1.2Zm1.057,0v-2.9l3.054-2.181a.337.337,0,0,1,.526.34l-.4,1.994a.528.528,0,0,0,.282.576l.884.442a4.726,4.726,0,0,0,2.909.437l1.319-.22a.151.151,0,0,1,.093.285h0l-1.67.835a3.717,3.717,0,0,1-1.654.39Zm15.324-.528a.529.529,0,0,1-.528.528H239.9l.56-.28a1.208,1.208,0,0,0-.739-2.272l-1.319.22a3.68,3.68,0,0,1-2.263-.34l-.523-.262.32-1.6a1.394,1.394,0,0,0-2.177-1.407l-.854.61v-9.006a.53.53,0,0,1,.168-.387l4.459-4.145V230.8a.529.529,0,0,1-.528.529h-1.986v1.057h1.986a1.587,1.587,0,0,0,1.585-1.585v-3.7h7.526a.529.529,0,0,1,.528.528Z" fill="#0b1f44"/>
    <rect id="Rectangle_2600" data-name="Rectangle 2600" width="1.057" height="1.057" transform="translate(234.623 234.495)" fill="#0b1f44"/>
    <rect id="Rectangle_2601" data-name="Rectangle 2601" width="3.827" height="1.057" transform="translate(236.609 234.495)" fill="#0b1f44"/>
    <rect id="Rectangle_2602" data-name="Rectangle 2602" width="3.571" height="1.057" transform="translate(241.493 234.495)" fill="#0b1f44"/>
    <rect id="Rectangle_2603" data-name="Rectangle 2603" width="2.514" height="1.057" transform="translate(234.623 236.609)" fill="#0b1f44"/>
    <rect id="Rectangle_2604" data-name="Rectangle 2604" width="4.884" height="1.057" transform="translate(238.194 236.609)" fill="#0b1f44"/>
    <rect id="Rectangle_2605" data-name="Rectangle 2605" width="0.929" height="1.057" transform="translate(244.135 236.609)" fill="#0b1f44"/>
    <rect id="Rectangle_2606" data-name="Rectangle 2606" width="3.699" height="1.057" transform="translate(236.609 238.723)" fill="#0b1f44"/>
    <rect id="Rectangle_2607" data-name="Rectangle 2607" width="3.699" height="1.057" transform="translate(241.365 238.723)" fill="#0b1f44"/>
    <rect id="Rectangle_2608" data-name="Rectangle 2608" width="3.171" height="1.057" transform="translate(241.893 244.007)" fill="#0b1f44"/>
    <rect id="Rectangle_2609" data-name="Rectangle 2609" width="3.699" height="1.057" transform="translate(241.365 241.893)" fill="#0b1f44"/>
    <rect id="Rectangle_2610" data-name="Rectangle 2610" width="1.057" height="1.057" transform="translate(239.251 241.893)" fill="#0b1f44"/>
    <rect id="Rectangle_2611" data-name="Rectangle 2611" width="1.057" height="1.057" transform="translate(240.836 228.682)" fill="#0b1f44"/>
    <rect id="Rectangle_2612" data-name="Rectangle 2612" width="2.114" height="1.057" transform="translate(242.95 228.682)" fill="#0b1f44"/>
    <rect id="Rectangle_2613" data-name="Rectangle 2613" width="1.057" height="1.057" transform="translate(244.007 230.796)" fill="#0b1f44"/>
    <rect id="Rectangle_2614" data-name="Rectangle 2614" width="2.114" height="1.057" transform="translate(240.836 230.796)" fill="#0b1f44"/>
  </g>
</svg>
