<svg xmlns="http://www.w3.org/2000/svg" width="30" height="30" viewBox="0 0 30 30">
  <g id="Group_5580" data-name="Group 5580" transform="translate(-1 -1)">
    <path id="Path_12691" data-name="Path 12691" d="M31,9.71V5.839H29.7a5.866,5.866,0,0,0-.233-.565l.92-.921L27.648,1.616l-.921.92a5.806,5.806,0,0,0-.566-.233V1H22.29V2.3a5.866,5.866,0,0,0-.565.233l-.921-.92L18.5,3.922,10.061,6.341a3.358,3.358,0,0,0-2.087.465H5.355a2.906,2.906,0,0,0-2.9,2.9V26.161H1v2.419A2.422,2.422,0,0,0,3.419,31H28.581A2.422,2.422,0,0,0,31,28.581V26.161H29.548V12.032l.836-.836-.92-.921A5.725,5.725,0,0,0,29.7,9.71ZM18.611,4.9l.377.377a5.725,5.725,0,0,0-.233.565h-1.3V7.462L13.084,9.447A3.386,3.386,0,0,0,11.606,6.9ZM20.8,13.933l.921-.92a5.725,5.725,0,0,0,.565.233v1.3h3.871v-1.3c.165-.058.326-.127.484-.2V26.161H5.355V10.194a.485.485,0,0,1,.484-.484h.484A3.389,3.389,0,0,0,8.3,12.786l.908,6.7a3.871,3.871,0,1,0,5.238-1.569l-2.32-5.835a3.383,3.383,0,0,0,.859-1.523l4.466-2.03V9.71h1.3a5.867,5.867,0,0,0,.233.565l-.92.921ZM13.1,27.129H18.9v.484a.485.485,0,0,1-.484.484H13.581a.485.485,0,0,1-.484-.484ZM11.326,12.685l1.917,4.822a3.909,3.909,0,0,0-.63-.056,3.852,3.852,0,0,0-2.571.985l-.727-5.365a3.327,3.327,0,0,0,2.011-.386Zm1.287,5.734a2.9,2.9,0,1,1-2.9,2.9A2.906,2.906,0,0,1,12.613,18.419Zm-.484-8.71A2.419,2.419,0,1,1,9.71,7.29,2.422,2.422,0,0,1,12.129,9.71Zm-8.71,0A1.937,1.937,0,0,1,5.355,7.774H6.934a3.366,3.366,0,0,0-.469.968H5.839a1.453,1.453,0,0,0-1.452,1.452V26.161H3.419ZM30.032,28.581a1.453,1.453,0,0,1-1.452,1.452H3.419a1.453,1.453,0,0,1-1.452-1.452V27.129H12.129v.484a1.453,1.453,0,0,0,1.452,1.452h4.839a1.453,1.453,0,0,0,1.452-1.452v-.484H30.032Zm-1.452-2.419h-.968V13.9l.034.034L28.581,13ZM29.016,11.2l-1.368,1.368-.745-.745L26.583,12a4.823,4.823,0,0,1-1.038.428l-.351.1v1.055H23.258V12.525l-.352-.1A4.833,4.833,0,0,1,21.868,12l-.319-.179-.745.745L19.435,11.2l.745-.745L20,10.131a4.823,4.823,0,0,1-.428-1.038l-.1-.351H18.419V6.806h1.055l.1-.352A4.833,4.833,0,0,1,20,5.417l.179-.319-.745-.745L20.8,2.984l.745.745.319-.179a4.823,4.823,0,0,1,1.038-.428l.351-.1V1.968h1.935V3.023l.352.1a4.833,4.833,0,0,1,1.038.428l.319.179.745-.745,1.368,1.368-.745.745.179.319a4.823,4.823,0,0,1,.428,1.038l.1.351h1.055V8.742H28.977l-.1.352a4.833,4.833,0,0,1-.428,1.038l-.179.319Z" transform="translate(0 0)"/>
    <path id="Path_12692" data-name="Path 12692" d="M45.9,9a2.9,2.9,0,1,0,1.979,5.027l-.66-.708a1.929,1.929,0,1,1,.4-.532l.86.443A2.9,2.9,0,0,0,45.9,9Z" transform="translate(-21.677 -4.129)"/>
    <path id="Path_12693" data-name="Path 12693" d="M22.935,42.871A1.935,1.935,0,1,0,21,40.935,1.937,1.937,0,0,0,22.935,42.871Zm0-2.9a.968.968,0,1,1-.968.968A.969.969,0,0,1,22.935,39.968Z" transform="translate(-10.323 -19.613)"/>
    <path id="Path_12694" data-name="Path 12694" d="M17.452,18.9A1.452,1.452,0,1,0,16,17.452,1.453,1.453,0,0,0,17.452,18.9Zm0-1.935a.484.484,0,1,1-.484.484A.485.485,0,0,1,17.452,16.968Z" transform="translate(-7.742 -7.742)"/>
    <path id="Path_12695" data-name="Path 12695" d="M36,41.71h7.742V33H36Zm.968-7.742h5.806v6.774H36.968Z" transform="translate(-18.065 -16.516)"/>
    <rect id="Rectangle_2666" data-name="Rectangle 2666" width="5" height="1" transform="translate(19 18)"/>
    <rect id="Rectangle_2667" data-name="Rectangle 2667" width="5" transform="translate(19 21)"/>
    <rect id="Rectangle_2668" data-name="Rectangle 2668" width="5" transform="translate(19 22)"/>
    <rect id="Rectangle_2669" data-name="Rectangle 2669" width="1" height="2" transform="translate(5 27)"/>
    <rect id="Rectangle_2670" data-name="Rectangle 2670" height="2" transform="translate(8 27)"/>
    <rect id="Rectangle_2671" data-name="Rectangle 2671" height="2" transform="translate(10 27)"/>
  </g>
</svg>
