<svg xmlns="http://www.w3.org/2000/svg" width="28.632" height="27.677" viewBox="0 0 28.632 27.677">
  <g id="Group_5581" data-name="Group 5581" transform="translate(-1 -1.5)">
    <path id="Path_12696" data-name="Path 12696" d="M26.7,1.5H13.34a3.34,3.34,0,1,0,0,6.681H26.7a3.34,3.34,0,1,0,0-6.681Zm0,4.772H13.34a1.432,1.432,0,1,1,0-2.863H26.7a1.432,1.432,0,0,1,0,2.863Z" transform="translate(-0.41 0)"/>
    <path id="Path_12697" data-name="Path 12697" d="M26.7,12.5H13.34a3.34,3.34,0,1,0,0,6.681H26.7a3.34,3.34,0,1,0,0-6.681Zm0,4.772H13.34a1.432,1.432,0,1,1,0-2.863H26.7a1.432,1.432,0,1,1,0,2.863Z" transform="translate(-0.41 -0.502)"/>
    <path id="Path_12698" data-name="Path 12698" d="M26.7,23.5H13.34a3.34,3.34,0,1,0,0,6.681H26.7a3.34,3.34,0,1,0,0-6.681Zm0,4.772H13.34a1.432,1.432,0,1,1,0-2.863H26.7a1.432,1.432,0,1,1,0,2.863Z" transform="translate(-0.41 -1.003)"/>
    <path id="Path_12699" data-name="Path 12699" d="M4.34,8.181A3.34,3.34,0,1,0,1,4.84,3.34,3.34,0,0,0,4.34,8.181Zm0-4.772A1.432,1.432,0,1,1,2.909,4.84,1.432,1.432,0,0,1,4.34,3.409Z" transform="translate(0 0)"/>
    <path id="Path_12700" data-name="Path 12700" d="M4.34,19.181A3.34,3.34,0,1,0,1,15.84,3.34,3.34,0,0,0,4.34,19.181Zm0-4.772A1.432,1.432,0,1,1,2.909,15.84,1.432,1.432,0,0,1,4.34,14.409Z" transform="translate(0 -0.502)"/>
    <path id="Path_12701" data-name="Path 12701" d="M4.34,30.181A3.34,3.34,0,1,0,1,26.84a3.34,3.34,0,0,0,3.34,3.34Zm0-4.772A1.432,1.432,0,1,1,2.909,26.84,1.432,1.432,0,0,1,4.34,25.409Z" transform="translate(0 -1.003)"/>
  </g>
</svg>
