<svg xmlns="http://www.w3.org/2000/svg" width="32.545" height="32.545" viewBox="0 0 32.545 32.545">
  <g id="Group_5564" data-name="Group 5564" transform="translate(-20 -20)">
    <path id="Path_12663" data-name="Path 12663" d="M20.734,28.889A.543.543,0,0,0,20,29.4v8.679a.541.541,0,0,0,.542.542.552.552,0,0,0,.191-.034L24.9,37.024l1.071.343V39.7a1.629,1.629,0,0,0,1.627,1.627h3.255A1.629,1.629,0,0,0,32.476,39.7v-.244L39.9,41.847a.533.533,0,0,0,.165.026.542.542,0,0,0,.542-.542V26.142a.542.542,0,0,0-.708-.517L24.9,30.449Zm.351,1.291,3.255,1.22v4.672l-3.255,1.22ZM31.391,39.7a.542.542,0,0,1-.542.542H27.594a.542.542,0,0,1-.542-.542V37.715l4.339,1.4Zm8.136.883-14.1-4.532V31.42l14.1-4.533Z" transform="translate(0 1.994)"/>
    <path id="Path_12664" data-name="Path 12664" d="M43.514,24.7a2.712,2.712,0,1,0-3.664,0,4.889,4.889,0,0,0-3.05,4.522.542.542,0,0,0,.542.542h8.679a.542.542,0,0,0,.542-.542A4.889,4.889,0,0,0,43.514,24.7Zm-3.459-1.987a1.627,1.627,0,1,1,1.627,1.627A1.629,1.629,0,0,1,40.055,22.712Zm-2.132,5.967a3.8,3.8,0,0,1,7.518,0Z" transform="translate(5.982)"/>
    <path id="Path_12665" data-name="Path 12665" d="M43.514,33.1a2.712,2.712,0,1,0-3.664,0,4.889,4.889,0,0,0-3.05,4.522.542.542,0,0,0,.542.542h8.679a.542.542,0,0,0,.542-.542A4.889,4.889,0,0,0,43.514,33.1Zm-3.459-1.987a1.627,1.627,0,1,1,1.627,1.627A1.629,1.629,0,0,1,40.055,31.112Zm-2.132,5.967a3.8,3.8,0,0,1,7.518,0Z" transform="translate(5.982 2.991)"/>
    <path id="Path_12666" data-name="Path 12666" d="M43.514,41.5a2.712,2.712,0,1,0-3.664,0,4.889,4.889,0,0,0-3.05,4.522.542.542,0,0,0,.542.542h8.679a.542.542,0,0,0,.542-.542A4.889,4.889,0,0,0,43.514,41.5Zm-3.459-1.987a1.627,1.627,0,1,1,1.627,1.627A1.629,1.629,0,0,1,40.055,39.512Zm-2.132,5.967a3.8,3.8,0,0,1,7.518,0Z" transform="translate(5.982 5.982)"/>
    <path id="Path_12667" data-name="Path 12667" d="M26.943,35.024h7.052A1.629,1.629,0,0,0,35.621,33.4v-2.17A1.629,1.629,0,0,0,33.994,29.6H30.2a1.629,1.629,0,0,0-1.627,1.627v.86L26.559,34.1a.542.542,0,0,0,.384.926ZM29.5,32.7a.543.543,0,0,0,.159-.384V31.227a.542.542,0,0,1,.542-.542h3.8a.542.542,0,0,1,.542.542V33.4a.542.542,0,0,1-.542.542H28.253Z" transform="translate(2.279 3.418)"/>
    <rect id="Rectangle_2615" data-name="Rectangle 2615" width="2.712" height="1.085" transform="translate(33.018 35.188)"/>
    <rect id="Rectangle_2616" data-name="Rectangle 2616" width="1.085" height="1.085" transform="translate(27.594 29.221)"/>
    <rect id="Rectangle_2617" data-name="Rectangle 2617" width="1.085" height="1.085" transform="translate(27.594 27.052)"/>
    <rect id="Rectangle_2618" data-name="Rectangle 2618" width="1.085" height="1.085" transform="translate(27.594 24.882)"/>
    <rect id="Rectangle_2619" data-name="Rectangle 2619" width="1.085" height="1.085" transform="translate(27.594 22.712)"/>
    <rect id="Rectangle_2620" data-name="Rectangle 2620" width="1.085" height="1.085" transform="translate(29.764 22.712)"/>
    <rect id="Rectangle_2621" data-name="Rectangle 2621" width="1.085" height="1.085" transform="translate(31.933 22.712)"/>
    <rect id="Rectangle_2622" data-name="Rectangle 2622" width="1.085" height="1.085" transform="translate(34.103 22.712)"/>
    <rect id="Rectangle_2623" data-name="Rectangle 2623" width="1.085" height="1.085" transform="translate(36.273 22.712)"/>
    <rect id="Rectangle_2624" data-name="Rectangle 2624" width="1.085" height="1.085" transform="translate(38.442 22.712)"/>
    <rect id="Rectangle_2625" data-name="Rectangle 2625" width="1.085" height="1.085" transform="translate(40.612 22.712)"/>
    <rect id="Rectangle_2626" data-name="Rectangle 2626" width="1.085" height="1.085" transform="translate(42.782 22.712)"/>
    <rect id="Rectangle_2627" data-name="Rectangle 2627" width="1.085" height="1.085" transform="translate(27.594 46.579)"/>
    <rect id="Rectangle_2628" data-name="Rectangle 2628" width="1.085" height="1.085" transform="translate(27.594 44.409)"/>
    <rect id="Rectangle_2629" data-name="Rectangle 2629" width="1.085" height="1.085" transform="translate(29.764 46.579)"/>
    <rect id="Rectangle_2630" data-name="Rectangle 2630" width="1.085" height="1.085" transform="translate(31.933 46.579)"/>
    <rect id="Rectangle_2631" data-name="Rectangle 2631" width="1.085" height="1.085" transform="translate(34.103 46.579)"/>
    <rect id="Rectangle_2632" data-name="Rectangle 2632" width="1.085" height="1.085" transform="translate(36.273 46.579)"/>
    <rect id="Rectangle_2633" data-name="Rectangle 2633" width="1.085" height="1.085" transform="translate(38.442 46.579)"/>
    <rect id="Rectangle_2634" data-name="Rectangle 2634" width="1.085" height="1.085" transform="translate(40.612 46.579)"/>
    <rect id="Rectangle_2635" data-name="Rectangle 2635" width="1.085" height="1.085" transform="translate(42.782 46.579)"/>
  </g>
</svg>
