<svg xmlns="http://www.w3.org/2000/svg" width="31.628" height="31.627" viewBox="0 0 31.628 31.627">
  <g id="Group_5550" data-name="Group 5550" transform="translate(-29.663 -29.664)">
    <path id="Path_12619" data-name="Path 12619" d="M31.336,31.924H30.287V44.031a.523.523,0,0,0,.521.528H41.879V43.51H31.336Z" transform="translate(3.596 13.037)" fill="#0b1f44"/>
    <rect id="Rectangle_2559" data-name="Rectangle 2559" width="4.217" height="1.054" transform="translate(40.732 42.313)" fill="#0b1f44"/>
    <rect id="Rectangle_2560" data-name="Rectangle 2560" width="7.379" height="1.054" transform="translate(37.57 44.422)" fill="#0b1f44"/>
    <rect id="Rectangle_2561" data-name="Rectangle 2561" width="7.379" height="1.054" transform="translate(37.57 46.53)" fill="#0b1f44"/>
    <rect id="Rectangle_2562" data-name="Rectangle 2562" width="7.379" height="1.054" transform="translate(37.57 48.638)" fill="#0b1f44"/>
    <rect id="Rectangle_2563" data-name="Rectangle 2563" width="7.379" height="1.054" transform="translate(37.57 50.746)" fill="#0b1f44"/>
    <path id="Path_12620" data-name="Path 12620" d="M54.24,48.83a.529.529,0,0,0,.528-.528V31.431a.523.523,0,0,0-.528-.521H43.7a.523.523,0,0,0-.528.521v.528H42.119v-.528a.523.523,0,0,0-.528-.521H36.847v1.049h4.216V47.774H31.576V38.286H30.52V48.3a.529.529,0,0,0,.528.528H41.064v.528a1.58,1.58,0,0,0,3.16,0V48.83ZM44.224,31.959h9.488V47.774H44.224Zm-1.056,17.4a.517.517,0,0,1-.521.521.523.523,0,0,1-.528-.521V33.015h1.049Z" transform="translate(4.94 7.189)" fill="#0b1f44"/>
    <path id="Path_12621" data-name="Path 12621" d="M43.167,31.145V48H32.623v1.049H43.694a.529.529,0,0,0,.528-.528V31.145Z" transform="translate(17.069 8.545)" fill="#0b1f44"/>
    <rect id="Rectangle_2564" data-name="Rectangle 2564" width="3.162" height="1.054" transform="translate(54.436 42.313)" fill="#0b1f44"/>
    <rect id="Rectangle_2565" data-name="Rectangle 2565" width="3.162" height="1.054" transform="translate(50.219 42.313)" fill="#0b1f44"/>
    <rect id="Rectangle_2566" data-name="Rectangle 2566" width="7.379" height="1.054" transform="translate(50.219 44.422)" fill="#0b1f44"/>
    <rect id="Rectangle_2567" data-name="Rectangle 2567" width="7.379" height="1.054" transform="translate(50.219 46.53)" fill="#0b1f44"/>
    <rect id="Rectangle_2568" data-name="Rectangle 2568" width="7.379" height="1.054" transform="translate(50.219 48.638)" fill="#0b1f44"/>
    <rect id="Rectangle_2569" data-name="Rectangle 2569" width="7.379" height="1.054" transform="translate(50.219 50.746)" fill="#0b1f44"/>
    <path id="Path_12622" data-name="Path 12622" d="M31.882,38.519a1.562,1.562,0,0,0,.277,2.193,1.69,1.69,0,0,0,.5.264,2.107,2.107,0,0,0,4.115,0A1.564,1.564,0,0,0,37.81,39.02a1.53,1.53,0,0,0-.257-.5,4.744,4.744,0,1,0-6.639-.968A4.525,4.525,0,0,0,31.882,38.519Zm2.836,3.059a1.04,1.04,0,0,1-.907-.521h1.814A1.048,1.048,0,0,1,34.718,41.578ZM36.3,40H33.134a.528.528,0,0,1,0-1.056H36.3A.528.528,0,0,1,36.3,40Zm-1.584-8.96a3.68,3.68,0,0,1,1.834,6.876c-.081-.014-.169-.02-.25-.027H33.134c-.081.007-.169.014-.25.027a3.679,3.679,0,0,1,1.834-6.876Z" transform="translate(1.798 1.787)" fill="#0b1f44"/>
    <path id="Path_12623" data-name="Path 12623" d="M32.229,32.907l.616-.927.616.927a.524.524,0,0,0,.731.142.592.592,0,0,0,.149-.142l1.049-1.584-.873-.582-.616.927-.616-.927a.551.551,0,0,0-.88,0l-.616.927-.616-.927-.873.589,1.049,1.577a.551.551,0,0,0,.88,0Z" transform="translate(3.671 4.955)" fill="#0b1f44"/>
    <rect id="Rectangle_2570" data-name="Rectangle 2570" width="1.054" height="1.054" transform="translate(35.988 29.663)" fill="#0b1f44"/>
    <rect id="Rectangle_2571" data-name="Rectangle 2571" width="1.054" height="1.054" transform="translate(31.298 32.043) rotate(-45)" fill="#0b1f44"/>
    <rect id="Rectangle_2572" data-name="Rectangle 2572" width="1.054" height="1.054" transform="translate(29.663 35.988)" fill="#0b1f44"/>
    <rect id="Rectangle_2573" data-name="Rectangle 2573" width="1.054" height="1.054" transform="translate(42.313 35.988)" fill="#0b1f44"/>
    <rect id="Rectangle_2574" data-name="Rectangle 2574" width="1.054" height="1.054" transform="translate(40.242 32.043) rotate(-45)" fill="#0b1f44"/>
    <rect id="Rectangle_2575" data-name="Rectangle 2575" width="1.054" height="1.054" transform="translate(44.949 33.353)" fill="#0b1f44"/>
    <rect id="Rectangle_2576" data-name="Rectangle 2576" width="1.054" height="1.054" transform="translate(47.057 33.353)" fill="#0b1f44"/>
    <rect id="Rectangle_2577" data-name="Rectangle 2577" width="1.054" height="1.054" transform="translate(49.165 33.353)" fill="#0b1f44"/>
    <path id="Path_12624" data-name="Path 12624" d="M36.545,33.9H37.6v-3.16a.529.529,0,0,0-.528-.528H32.857v1.049h3.688Z" transform="translate(18.418 3.146)" fill="#0b1f44"/>
    <path id="Path_12625" data-name="Path 12625" d="M39.307,45.41H30.875V32.234H29.819v13.7a.529.529,0,0,0,.528.528h9.488a.529.529,0,0,0,.528-.528V43.826H39.307Z" transform="translate(0.897 14.825)" fill="#0b1f44"/>
    <rect id="Rectangle_2578" data-name="Rectangle 2578" width="1.054" height="1.054" transform="translate(30.718 44.949)" fill="#0b1f44"/>
    <rect id="Rectangle_2579" data-name="Rectangle 2579" width="1.054" height="1.054" transform="translate(30.718 42.84)" fill="#0b1f44"/>
    <rect id="Rectangle_2580" data-name="Rectangle 2580" width="1.054" height="1.054" transform="translate(30.718 40.732)" fill="#0b1f44"/>
  </g>
</svg>
