<svg xmlns="http://www.w3.org/2000/svg" width="32.206" height="31.307" viewBox="0 0 32.206 31.307">
  <g id="noun_business_to_business_2210138_1_" data-name="noun_business to business_2210138 (1)" transform="translate(-2.641 -29.821)">
    <g id="Group_5063" data-name="Group 5063" transform="translate(2.641 29.821)">
      <path id="Path_11029" data-name="Path 11029" d="M155.5,198.463a.982.982,0,0,0-.752,1.029v.717a.957.957,0,0,0,.859,1.038.141.141,0,0,1,.064.059,2.422,2.422,0,0,1,.11.607.982.982,0,0,0,.195,1.261l.507.507a.957.957,0,0,0,1.342.126.134.134,0,0,1,.079,0,2.534,2.534,0,0,1,.514.356.982.982,0,0,0,1.029.752h.717a.957.957,0,0,0,1.038-.859.14.14,0,0,1,.059-.064,2.417,2.417,0,0,1,.607-.11.982.982,0,0,0,1.261-.195l.507-.507a.957.957,0,0,0,.126-1.342.134.134,0,0,1,0-.079,2.536,2.536,0,0,1,.356-.514.982.982,0,0,0,.752-1.029v-.717a.957.957,0,0,0-.859-1.038.14.14,0,0,1-.064-.059,2.421,2.421,0,0,1-.11-.607.982.982,0,0,0-.195-1.261l-.507-.507a.957.957,0,0,0-1.342-.126.134.134,0,0,1-.079,0,2.534,2.534,0,0,1-.514-.356.982.982,0,0,0-1.029-.752h-.717a.957.957,0,0,0-1.038.859.141.141,0,0,1-.059.064,2.4,2.4,0,0,1-.607.11.982.982,0,0,0-1.261.195l-.507.507a1.176,1.176,0,0,0-.331.614.819.819,0,0,0,.205.728.134.134,0,0,1,0,.079A2.531,2.531,0,0,1,155.5,198.463Zm1.218-.072a1.078,1.078,0,0,0-.1-1.118.276.276,0,0,1,.047-.061l.507-.507a.273.273,0,0,1,.064-.049,1.881,1.881,0,0,0,1.419-.02,1.087,1.087,0,0,0,.72-.866.276.276,0,0,1,.076-.01h.717a.273.273,0,0,1,.08.011c.091.465.733.842,1.021.99a1.078,1.078,0,0,0,1.118-.1.277.277,0,0,1,.061.047l.507.507a.272.272,0,0,1,.048.064,1.882,1.882,0,0,0,.02,1.419,1.087,1.087,0,0,0,.866.72.275.275,0,0,1,.01.076v.717a.273.273,0,0,1-.011.08c-.465.091-.842.733-.99,1.021a1.078,1.078,0,0,0,.1,1.118.278.278,0,0,1-.047.061l-.507.507a.271.271,0,0,1-.064.049,1.882,1.882,0,0,0-1.419.02,1.087,1.087,0,0,0-.72.866.275.275,0,0,1-.076.01h-.717a.273.273,0,0,1-.08-.011c-.091-.465-.733-.842-1.021-.99a1.078,1.078,0,0,0-1.118.1.277.277,0,0,1-.061-.047l-.507-.507a.272.272,0,0,1-.049-.064,1.882,1.882,0,0,0-.02-1.419,1.087,1.087,0,0,0-.866-.72.276.276,0,0,1-.01-.076v-.717a.273.273,0,0,1,.011-.08C156.2,199.321,156.575,198.679,156.722,198.391Z" transform="translate(-145.657 -183.375)" fill="#0b1f44"/>
      <path id="Path_11030" data-name="Path 11030" d="M200.173,242.27a2.057,2.057,0,1,0-2.057-2.057A2.059,2.059,0,0,0,200.173,242.27Zm0-3.145a1.088,1.088,0,1,1-1.088,1.088A1.089,1.089,0,0,1,200.173,239.125Z" transform="translate(-186.019 -223.738)" fill="#0b1f44"/>
      <path id="Path_11031" data-name="Path 11031" d="M321.527,195.011a1.869,1.869,0,0,1-.059-.32.967.967,0,0,0-.288-1.154l-.156-.156a.931.931,0,0,0-1.219-.243,1.9,1.9,0,0,1-.269-.185.968.968,0,0,0-1.02-.61h-.22c-.568,0-.989.287-1.034.692a1.858,1.858,0,0,1-.32.059.967.967,0,0,0-1.154.288l-.156.156a.931.931,0,0,0-.243,1.219,1.894,1.894,0,0,1-.186.269.968.968,0,0,0-.61,1.02v.22c0,.568.287.989.692,1.034a1.862,1.862,0,0,1,.059.32.968.968,0,0,0,.288,1.154l.156.156a.931.931,0,0,0,1.219.243,1.9,1.9,0,0,1,.269.186.968.968,0,0,0,1.02.61h.22c.568,0,.989-.287,1.034-.692a1.859,1.859,0,0,1,.32-.059.967.967,0,0,0,1.154-.288l.155-.155a1.356,1.356,0,0,0,.336-.527.725.725,0,0,0-.093-.693,1.9,1.9,0,0,1,.186-.269.968.968,0,0,0,.61-1.02v-.22C322.219,195.477,321.932,195.056,321.527,195.011Zm-.277,1.254a.54.54,0,0,1-.011.112,1.65,1.65,0,0,0-.7.78.913.913,0,0,0,.022.856.565.565,0,0,1-.063.075l-.156.156a.54.54,0,0,1-.086.071,1.625,1.625,0,0,0-1.047.054.92.92,0,0,0-.591.622.559.559,0,0,1-.1.008h-.22a.542.542,0,0,1-.112-.011,1.651,1.651,0,0,0-.78-.7.913.913,0,0,0-.856.022.559.559,0,0,1-.075-.063l-.156-.156a.548.548,0,0,1-.071-.086,1.624,1.624,0,0,0-.054-1.047.92.92,0,0,0-.622-.591.555.555,0,0,1-.008-.1v-.22a.541.541,0,0,1,.011-.112,1.65,1.65,0,0,0,.7-.78.913.913,0,0,0-.022-.856.562.562,0,0,1,.063-.075l.156-.156a.543.543,0,0,1,.086-.071,1.622,1.622,0,0,0,1.047-.054.921.921,0,0,0,.591-.622.554.554,0,0,1,.1-.008h.22a.544.544,0,0,1,.112.011,1.651,1.651,0,0,0,.78.7.913.913,0,0,0,.856-.022.555.555,0,0,1,.075.063l.156.156a.539.539,0,0,1,.071.086,1.624,1.624,0,0,0,.054,1.047.921.921,0,0,0,.622.591.558.558,0,0,1,.008.1Z" transform="translate(-294.436 -181.095)" fill="#0b1f44"/>
      <path id="Path_11032" data-name="Path 11032" d="M347.775,223.893a1.629,1.629,0,1,0,1.629,1.629A1.631,1.631,0,0,0,347.775,223.893Zm0,2.289a.66.66,0,1,1,.66-.66A.661.661,0,0,1,347.775,226.182Z" transform="translate(-323.804 -210.462)" fill="#0b1f44"/>
      <path id="Path_11033" data-name="Path 11033" d="M46.759,327.565l-5.183,1.007a2.051,2.051,0,0,0-1.81-1.031H37.208l-.038.006a5.094,5.094,0,0,1-2.18-.4c-.824-.3-1.341-.5-1.719-.641-.326-.124-.542-.206-.746-.275a24.269,24.269,0,0,0-3.494-.165v-.051a1.178,1.178,0,0,0-1.177-1.176H23.321v.969h4.533a.21.21,0,0,1,.208.208v6.921a.21.21,0,0,1-.208.208H23.321v.969h4.533a1.178,1.178,0,0,0,1.119-.815,3.718,3.718,0,0,1,1.59.343l.04.024,4.268,1.539a7.948,7.948,0,0,0,2.631.523,2.882,2.882,0,0,0,.867-.1l.033-.011,3.486-1.743,5.937-2.808a1.829,1.829,0,0,0-1.069-3.5Zm.752,2.583-.035.01-6,2.84-3.426,1.713A5.455,5.455,0,0,1,35.2,334.3l-4.184-1.509a4.6,4.6,0,0,0-1.984-.454v-5.294a30.257,30.257,0,0,1,3.188.115c.185.062.393.141.708.261.381.145.9.344,1.733.646a5.961,5.961,0,0,0,2.616.45h2.491a.911.911,0,1,1,0,1.8H37.248l-1.544-.034a1.752,1.752,0,0,0-1.332.366,1.5,1.5,0,0,0-.451,1.264.484.484,0,0,0,.483.459h.026a.484.484,0,0,0,.458-.509.608.608,0,0,1,.13-.492.82.82,0,0,1,.572-.126l.032.005,1.609.036h2.534a1.966,1.966,0,0,0,2.023-1.761l5.178-1.006.048-.012a.861.861,0,1,1,.5,1.648Z" transform="translate(-23.321 -304.425)" fill="#0b1f44"/>
      <path id="Path_11034" data-name="Path 11034" d="M137.553,32.4h4.533v-.969h-4.533a1.178,1.178,0,0,0-1.119.815,3.716,3.716,0,0,1-1.59-.343l-.04-.024-4.268-1.539a5.759,5.759,0,0,0-3.5-.418l-.033.011-3.486,1.743-5.937,2.808a1.829,1.829,0,0,0,1.069,3.5l5.183-1.007a2.051,2.051,0,0,0,1.81,1.031H128.2l.038-.006a5.092,5.092,0,0,1,2.18.4c.824.3,1.341.5,1.719.641.326.124.542.207.746.275a24.279,24.279,0,0,0,3.494.165v.051a1.178,1.178,0,0,0,1.177,1.177h4.533v-.969h-4.533a.21.21,0,0,1-.208-.208V32.612A.21.21,0,0,1,137.553,32.4ZM133.188,38.4c-.185-.062-.393-.141-.708-.261-.381-.145-.9-.344-1.733-.646a5.964,5.964,0,0,0-2.616-.45h-2.491a.911.911,0,1,1,0-1.8h2.518l1.545.034a1.752,1.752,0,0,0,1.332-.366,1.505,1.505,0,0,0,.451-1.264.484.484,0,0,0-.968.051.608.608,0,0,1-.13.492.82.82,0,0,1-.572.126l-.032-.005-1.609-.036h-2.534a1.966,1.966,0,0,0-2.023,1.761l-5.178,1.006-.048.012a.861.861,0,0,1-.5-1.648l.035-.01,6-2.84,3.426-1.713a5.453,5.453,0,0,1,2.846.416l4.184,1.509a4.594,4.594,0,0,0,1.984.454v5.294A30.925,30.925,0,0,1,133.188,38.4Z" transform="translate(-109.88 -29.821)" fill="#0b1f44"/>
    </g>
  </g>
</svg>
