<svg xmlns="http://www.w3.org/2000/svg" width="35.75" height="27.677" viewBox="0 0 35.75 27.677">
  <g id="noun_Laptop_3505084" transform="translate(-1 -8)">
    <path id="Path_11050" data-name="Path 11050" d="M35.6,29.911V9.73A1.73,1.73,0,0,0,33.867,8H3.883a1.73,1.73,0,0,0-1.73,1.73V29.911A1.153,1.153,0,0,0,1,31.065v2.883a1.73,1.73,0,0,0,1.73,1.73H35.02a1.73,1.73,0,0,0,1.73-1.73V31.065A1.153,1.153,0,0,0,35.6,29.911ZM3.306,9.73a.577.577,0,0,1,.577-.577H33.867a.577.577,0,0,1,.577.577V29.911H3.306Zm20.4,21.335-.577,1.153H14.618l-.577-1.153ZM35.6,33.948a.577.577,0,0,1-.577.577H2.73a.577.577,0,0,1-.577-.577V31.065h10.6l.994,1.987a.577.577,0,0,0,.516.319h9.226A.577.577,0,0,0,24,33.052L25,31.065H35.6Z" transform="translate(0)" fill="#0b1f44"/>
    <path id="Path_11051" data-name="Path 11051" d="M35.254,12H7.577A.577.577,0,0,0,7,12.577v17.3a.577.577,0,0,0,.577.577H35.254a.577.577,0,0,0,.577-.577v-17.3A.577.577,0,0,0,35.254,12Zm-.577,1.153V26.992H8.153V13.153ZM8.153,29.3V28.145H34.677V29.3Z" transform="translate(-2.54 -1.694)" fill="#0b1f44"/>
    <path id="Path_11052" data-name="Path 11052" d="M19,20.613v2.306a1.153,1.153,0,0,0,1.153,1.153h1.058a5.778,5.778,0,0,0,5.285,3.46h0a5.777,5.777,0,0,0,5.285-3.46h1.058a1.153,1.153,0,0,0,1.153-1.153V20.613a1.153,1.153,0,0,0-1.153-1.153H31.78A5.775,5.775,0,0,0,26.5,16h0a5.776,5.776,0,0,0-5.284,3.46H20.153A1.153,1.153,0,0,0,19,20.613Zm3.509,3.46h1.854a8.376,8.376,0,0,0,.543,2.011,4.613,4.613,0,0,1-2.4-2.011ZM26.5,26.379h0c-.136,0-.667-.6-.965-2.306h1.929C27.163,25.782,26.63,26.379,26.5,26.379Zm1.591-.295a8.382,8.382,0,0,0,.543-2.012h1.854a4.613,4.613,0,0,1-2.4,2.011Zm4.752-5.471v2.306H20.153V20.613ZM26.5,17.153h0c.135,0,.667.6.965,2.306h-1.93C25.828,17.748,26.36,17.153,26.5,17.153Zm3.987,2.306H28.629a8.382,8.382,0,0,0-.543-2.012,4.616,4.616,0,0,1,2.4,2.012ZM24.9,17.448a8.376,8.376,0,0,0-.542,2.012H22.509a4.618,4.618,0,0,1,2.4-2.012Z" transform="translate(-7.621 -3.387)" fill="#0b1f44"/>
    <rect id="Rectangle_210" data-name="Rectangle 210" width="7" transform="translate(6 12.677)" fill="#0b1f44"/>
    <rect id="Rectangle_211" data-name="Rectangle 211" width="2" height="1" transform="translate(6 14.677)" fill="#0b1f44"/>
    <rect id="Rectangle_212" data-name="Rectangle 212" width="1" height="1" transform="translate(9 14.677)" fill="#0b1f44"/>
    <rect id="Rectangle_213" data-name="Rectangle 213" width="6" transform="translate(25 12.677)" fill="#0b1f44"/>
    <rect id="Rectangle_214" data-name="Rectangle 214" width="1" height="1" transform="translate(30 14.677)" fill="#0b1f44"/>
    <rect id="Rectangle_215" data-name="Rectangle 215" width="2" height="1" transform="translate(27 14.677)" fill="#0b1f44"/>
    <rect id="Rectangle_216" data-name="Rectangle 216" width="2" height="1" transform="translate(6 22.677)" fill="#0b1f44"/>
    <rect id="Rectangle_217" data-name="Rectangle 217" width="1" height="1" transform="translate(9 22.677)" fill="#0b1f44"/>
    <rect id="Rectangle_218" data-name="Rectangle 218" width="1" height="1" transform="translate(30 22.677)" fill="#0b1f44"/>
    <rect id="Rectangle_219" data-name="Rectangle 219" width="2" height="1" transform="translate(27 22.677)" fill="#0b1f44"/>
  </g>
</svg>
