<svg xmlns="http://www.w3.org/2000/svg" width="27.034" height="27.034" viewBox="0 0 27.034 27.034">
  <path id="Path_12632" data-name="Path 12632" d="M46.284,30.745v4.009a.44.44,0,0,1-.44.44H43.932a11.121,11.121,0,0,1-1.543,3.728l1.367,1.363a.439.439,0,0,1,.127.312.462.462,0,0,1-.127.312l-2.848,2.848a.439.439,0,0,1-.622,0l0,0-1.363-1.363A11.3,11.3,0,0,1,35.2,43.932v1.912a.44.44,0,0,1-.44.44h-4a.44.44,0,0,1-.44-.44V43.932a11.287,11.287,0,0,1-3.71-1.539L25.25,43.757a.439.439,0,0,1-.622,0l0,0-2.848-2.848a.439.439,0,0,1,0-.622l0,0,1.363-1.363A11.244,11.244,0,0,1,21.6,35.2H19.69a.44.44,0,0,1-.44-.44v-4a.44.44,0,0,1,.44-.44H21.6a11.121,11.121,0,0,1,1.543-3.71L21.778,25.25a.439.439,0,0,1-.127-.312.462.462,0,0,1,.127-.312l2.848-2.848a.439.439,0,0,1,.622,0l0,0,1.363,1.363A11.3,11.3,0,0,1,30.332,21.6V19.69a.44.44,0,0,1,.44-.44H34.78a.44.44,0,0,1,.44.44V21.6a11.283,11.283,0,0,1,3.7,1.539l1.363-1.363a.439.439,0,0,1,.622,0l0,0,2.848,2.848a.439.439,0,0,1,0,.622l0,0-1.363,1.363a11.244,11.244,0,0,1,1.539,3.723h1.912a.439.439,0,0,1,.44.426Zm-.879.44H43.572a.44.44,0,0,1-.44-.36,10.423,10.423,0,0,0-1.675-4.049.44.44,0,0,1,.048-.563l1.3-1.292-2.2-2.2-1.292,1.319a.439.439,0,0,1-.563.048A10.423,10.423,0,0,0,34.7,22.415a.44.44,0,0,1-.36-.44V20.129H31.2v1.833a.44.44,0,0,1-.36.44A10.427,10.427,0,0,0,26.8,24.077a.44.44,0,0,1-.563-.048L24.916,22.71l-2.2,2.2,1.3,1.292a.439.439,0,0,1,.048.563,10.373,10.373,0,0,0-1.679,4.049.44.44,0,0,1-.44.36H20.129V34.3h1.833a.44.44,0,0,1,.44.36,10.423,10.423,0,0,0,1.675,4.049.439.439,0,0,1-.048.563L22.71,40.565l2.2,2.2,1.292-1.3a.44.44,0,0,1,.563-.048,10.423,10.423,0,0,0,4.049,1.675.44.44,0,0,1,.36.44v1.833H34.3V43.572a.44.44,0,0,1,.36-.44,10.427,10.427,0,0,0,4.044-1.675.44.44,0,0,1,.563.048l1.319,1.3,2.2-2.2-1.319-1.292a.439.439,0,0,1-.048-.563A10.373,10.373,0,0,0,43.1,34.7a.44.44,0,0,1,.44-.36H45.37Zm-2.528.07v3a.329.329,0,0,1-.329.329h-1.43a8.326,8.326,0,0,1-1.154,2.788l1.022,1.019a.329.329,0,0,1,.1.233.345.345,0,0,1-.1.233l-2.131,2.131a.329.329,0,0,1-.465,0l0,0L37.37,39.967a8.447,8.447,0,0,1-2.782,1.151v1.43a.329.329,0,0,1-.329.329H31.268a.329.329,0,0,1-.329-.329v-1.43a8.432,8.432,0,0,1-2.775-1.151l-1.019,1.019a.329.329,0,0,1-.465,0l0,0-2.131-2.131a.329.329,0,0,1,0-.465l0,0,1.019-1.019a8.411,8.411,0,0,1-1.151-2.785h-1.43a.329.329,0,0,1-.329-.329V31.268a.329.329,0,0,1,.329-.329h1.43a8.318,8.318,0,0,1,1.154-2.775l-1.022-1.019a.329.329,0,0,1-.1-.233.345.345,0,0,1,.1-.233l2.131-2.131a.329.329,0,0,1,.465,0l0,0,1.019,1.019a8.447,8.447,0,0,1,2.782-1.151v-1.43a.329.329,0,0,1,.329-.329h3a.329.329,0,0,1,.329.329v1.43a8.434,8.434,0,0,1,2.768,1.151l1.019-1.019a.329.329,0,0,1,.465,0l0,0,2.131,2.131a.329.329,0,0,1,0,.465l0,0-1.019,1.019a8.411,8.411,0,0,1,1.151,2.785h1.43a.329.329,0,0,1,.329.319Zm-.658.329H40.849a.329.329,0,0,1-.329-.269,7.793,7.793,0,0,0-1.253-3.028.329.329,0,0,1,.036-.421l.97-.967-1.644-1.644-.967.986a.329.329,0,0,1-.421.036,7.8,7.8,0,0,0-3.028-1.253.328.328,0,0,1-.269-.329V23.314H31.6v1.371a.329.329,0,0,1-.269.329A7.8,7.8,0,0,0,28.3,26.267a.329.329,0,0,1-.421-.036l-.986-.986-1.644,1.644.97.967a.329.329,0,0,1,.036.421A7.758,7.758,0,0,0,25,31.3a.329.329,0,0,1-.329.269H23.314v2.341h1.371a.329.329,0,0,1,.329.27,7.793,7.793,0,0,0,1.253,3.028.329.329,0,0,1-.036.421l-.986.967,1.644,1.644.967-.97a.329.329,0,0,1,.421-.036A7.794,7.794,0,0,0,31.3,40.491a.329.329,0,0,1,.269.329V42.19h2.341V40.849a.329.329,0,0,1,.27-.329,7.8,7.8,0,0,0,3.025-1.253.329.329,0,0,1,.421.036l.986.97,1.644-1.644-.986-.967a.329.329,0,0,1-.036-.421,7.755,7.755,0,0,0,1.256-3.028.329.329,0,0,1,.329-.269h1.371ZM30.056,25.743l-.342.142.735,1.31Zm-4.313,4.318,1.447.406-1.305-.749C25.834,29.828,25.788,29.946,25.743,30.061Zm1.451,5.021-1.451.393c.046.114.091.228.142.342Zm2.524,4.564c.109.05.228.1.342.142l.424-1.442Zm5.76.142.342-.142-.735-1.31Zm4.313-4.318-1.447-.42,1.305.749a3.2,3.2,0,0,0,.142-.324Zm0-5.418c-.046-.114-.091-.228-.142-.342l-1.31.735ZM35.816,25.88c-.109-.05-.228-.1-.342-.142l-.424,1.451Zm-2.4,10.206v.593a.653.653,0,1,1-1.306,0v-.593A3.93,3.93,0,0,1,28.86,32.53h-.593a.653.653,0,1,1,0-1.305h1.976V28.856a.653.653,0,1,1,1.306,0v2.369h2.437V28.856a.653.653,0,1,1,1.3-.109.644.644,0,0,1,0,.109v2.369h1.981a.653.653,0,1,1,0,1.305h-.593A3.93,3.93,0,0,1,33.42,36.086Zm1.944-3.556H30.17a2.615,2.615,0,0,0,5.194,0Z" transform="translate(-19.25 -19.25)"/>
</svg>
