<svg xmlns="http://www.w3.org/2000/svg" width="29.334" height="29.338" viewBox="0 0 29.334 29.338">
  <path id="Path_12633" data-name="Path 12633" d="M46.734,32.07A14.684,14.684,0,0,0,32.083,17.4l-.014,0-.012,0c-.1,0-.2,0-.271.007A14.591,14.591,0,0,0,17.409,31.752c-.009.106-.009.211-.009.317h0c0,.106,0,.2.007.273l0,.026v.009a14.643,14.643,0,0,0,2.055,7.18,2.684,2.684,0,0,0,2.026,4.455,2.706,2.706,0,0,0,1.487-.454,14.549,14.549,0,0,0,8.778,3.171c.107.009.206.009.312.009s.213,0,.281-.007A14.59,14.59,0,0,0,46.726,32.389v0c.009-.106.009-.21.009-.316Zm-6.9-.611a26.953,26.953,0,0,0-.326-3.648,2.4,2.4,0,0,0,.941-.839c2.845,1.122,4.646,2.749,4.99,4.487Zm-7.16,7.155V32.68h5.932a24.739,24.739,0,0,1-.663,5.27A24.723,24.723,0,0,1,32.679,38.614Zm-6.5-.665a24.118,24.118,0,0,1-.565-3.4,2.433,2.433,0,0,0,.258-.1c.038-.015.075-.026.111-.041a2.735,2.735,0,0,0,.4-.227c.024-.017.046-.039.068-.056a2.627,2.627,0,0,0,.276-.237c.036-.036.068-.075.1-.113a2.064,2.064,0,0,0,.188-.235c.032-.046.063-.092.092-.14a2.884,2.884,0,0,0,.136-.259c.022-.051.046-.1.067-.155a2.478,2.478,0,0,0,.092-.3l0-.007h4.056v5.933A24.789,24.789,0,0,1,26.182,37.948Zm-.563-8.365a24.26,24.26,0,0,1,.571-3.4,24.834,24.834,0,0,1,5.268-.662v5.933H27.4l0-.009a2.628,2.628,0,0,0-.092-.305c-.02-.051-.043-.1-.065-.148a2.771,2.771,0,0,0-.143-.273c-.027-.043-.053-.084-.082-.124a2.325,2.325,0,0,0-.215-.269c-.024-.026-.044-.053-.07-.078a2.612,2.612,0,0,0-.776-.541h0A2.5,2.5,0,0,0,25.619,29.583ZM24.894,30.7h.044a1.369,1.369,0,0,1,1.323,1.368l0,.014a1.363,1.363,0,0,1-1.318,1.346h-.048a1.364,1.364,0,0,1,0-2.727Zm7.786.757V25.521a25.588,25.588,0,0,1,3.411.3,2.243,2.243,0,0,0,.034.324c.012.063.036.119.053.179a2.341,2.341,0,0,0,.082.263c.026.06.061.116.09.174a2.407,2.407,0,0,0,.123.225c.038.056.082.106.125.159a2.434,2.434,0,0,0,.157.189,1.973,1.973,0,0,0,.155.136c.061.053.121.107.188.155s.119.072.181.107.138.08.211.114.135.049.2.073.15.053.229.072.148.024.225.034c.058.009.114.024.174.027a25.639,25.639,0,0,1,.3,3.4Zm6.892-5.442a1.172,1.172,0,0,1-.878.795.392.392,0,0,1-.044.005,1.129,1.129,0,0,1-.189.02,1.161,1.161,0,0,1-1.16-1.16,1.054,1.054,0,0,1,.029-.249,1.116,1.116,0,0,1,.119-.312,1.182,1.182,0,0,1,.679-.547,1.1,1.1,0,0,1,.333-.051,1.161,1.161,0,0,1,1.16,1.16A1.209,1.209,0,0,1,39.571,26.017ZM37.143,23.7a2.4,2.4,0,0,0-.3.239c-.026.024-.051.048-.075.072a2.557,2.557,0,0,0-.266.31l-.007.012a2.629,2.629,0,0,0-.171.293,27.055,27.055,0,0,0-3.645-.324V18.69c1.736.346,3.363,2.146,4.485,4.99Zm-5.684-5.009V24.3a26.4,26.4,0,0,0-4.907.553C27.643,21.417,29.49,19.086,31.458,18.687ZM24.4,29.53a2.583,2.583,0,0,0-2.011,1.929H18.683c.392-1.992,2.678-3.8,6.16-4.9A26.3,26.3,0,0,0,24.4,29.53Zm-2.011,3.15A2.587,2.587,0,0,0,24.4,34.6a25.683,25.683,0,0,0,.442,2.979c-3.483-1.105-5.768-2.915-6.16-4.9Zm9.066,7.156v5.618c-1.989-.391-3.8-2.681-4.907-6.17A26.4,26.4,0,0,0,31.458,39.836Zm1.221,5.616V39.835a26.22,26.22,0,0,0,4.9-.553C36.486,42.768,34.673,45.059,32.679,45.453ZM39.834,32.68H45.45c-.4,1.966-2.73,3.812-6.169,4.9A26.363,26.363,0,0,0,39.834,32.68Zm5.152-4.325a12.174,12.174,0,0,0-4.155-2.546c0-.044.009-.087.009-.131a2.384,2.384,0,0,0-2.381-2.383c-.046,0-.089.009-.133.01a12.2,12.2,0,0,0-2.545-4.155A13.492,13.492,0,0,1,44.986,28.355ZM28.342,19.162a13.909,13.909,0,0,0-3.162,6.02,13.9,13.9,0,0,0-6.025,3.167A13.353,13.353,0,0,1,28.342,19.162ZM20.02,41.317a1.431,1.431,0,0,1,.582-1.161h0a1.465,1.465,0,0,1,1.932,2.193v0a1.455,1.455,0,0,1-1.045.438A1.473,1.473,0,0,1,20.02,41.317Zm1.47-2.684a2.678,2.678,0,0,0-1.039.21,13.333,13.333,0,0,1-1.3-3.065,13.927,13.927,0,0,0,6.032,3.177,13.94,13.94,0,0,0,3.172,6.027,13.339,13.339,0,0,1-4.542-2.306,2.691,2.691,0,0,0-2.321-4.044Zm14.3,6.343a13.911,13.911,0,0,0,3.162-6.019,13.9,13.9,0,0,0,6.025-3.167A13.351,13.351,0,0,1,35.792,44.975Z" transform="translate(-17.4 -17.399)" fill="#0b1f44"/>
</svg>
