<svg id="Group_4815" data-name="Group 4815" xmlns="http://www.w3.org/2000/svg" width="12.091" height="20.902" viewBox="0 0 12.091 20.902">
  <g id="Group_4802" data-name="Group 4802" transform="translate(0 0)">
    <g id="Group_4788" data-name="Group 4788" transform="translate(0 0)">
      <path id="Path_10250" data-name="Path 10250" d="M335.743,863.882v10.106a.3.3,0,0,0,.328.263h4.672a.3.3,0,0,0,.328-.263V863.717h3.388a.308.308,0,0,0,.327-.241l.326-3.094a.3.3,0,0,0-.327-.286h-3.714v-2.2a1.065,1.065,0,0,1,1.16-.932h2.611a.3.3,0,0,0,.327-.263v-3.094a.3.3,0,0,0-.327-.264h-4.411c-2.589,0-4.688,1.686-4.688,3.765V860.1h-2.336a.3.3,0,0,0-.328.264v3.094a.3.3,0,0,0,.328.263h2.336Z" transform="translate(-333.079 -853.348)" fill="#dcaa1e" fill-rule="evenodd"/>
    </g>
  </g>
</svg>
