<svg id="Group_4817" data-name="Group 4817" xmlns="http://www.w3.org/2000/svg" width="22.653" height="21.637" viewBox="0 0 22.653 21.637">
  <g id="Group_4804" data-name="Group 4804" transform="translate(0 0)">
    <g id="Group_4793" data-name="Group 4793" transform="translate(0.317 6.706)">
      <g id="Group_4792" data-name="Group 4792">
        <g id="Group_4791" data-name="Group 4791">
          <path id="Path_10252" data-name="Path 10252" d="M520.8,870.45v8.008a.358.358,0,0,1-.358.358h-4.133a.358.358,0,0,1-.358-.358v-7.448c0-1.96-.7-3.3-2.456-3.3a2.653,2.653,0,0,0-2.488,1.774,3.322,3.322,0,0,0-.161,1.182v7.789a.358.358,0,0,1-.358.359h-4.132a.357.357,0,0,1-.358-.359c.009-1.983.051-11.6.008-13.867a.356.356,0,0,1,.358-.362h4.125a.358.358,0,0,1,.358.358V866.3c-.01.016-.024.032-.032.047h.032V866.3a4.815,4.815,0,0,1,4.371-2.41c3.191,0,5.583,2.084,5.583,6.564Zm-21.979,8.367h4.133a.358.358,0,0,0,.358-.358V864.586a.358.358,0,0,0-.358-.358h-4.133a.358.358,0,0,0-.358.358v13.872A.358.358,0,0,0,498.826,878.817Z" transform="translate(-498.468 -863.886)" fill="#dcaa1e"/>
        </g>
      </g>
    </g>
    <g id="Group_4794" data-name="Group 4794" transform="translate(0 0)">
      <path id="Path_10253" data-name="Path 10253" d="M503.237,857.538a2.6,2.6,0,1,1-2.6-2.6A2.6,2.6,0,0,1,503.237,857.538Z" transform="translate(-498.045 -854.942)" fill="#dcaa1e"/>
    </g>
  </g>
</svg>
