<svg id="Group_4814" data-name="Group 4814" xmlns="http://www.w3.org/2000/svg" width="22.092" height="22.092" viewBox="0 0 22.092 22.092">
  <g id="Group_4803" data-name="Group 4803" transform="translate(0 0)">
    <path id="Path_10251" data-name="Path 10251" d="M393.7,856.975a1.3,1.3,0,1,0,1.3,1.3A1.3,1.3,0,0,0,393.7,856.975Zm-5.774,1.666a5.455,5.455,0,1,0,5.456,5.455A5.462,5.462,0,0,0,387.923,858.64Zm0,8.95a3.495,3.495,0,1,1,3.495-3.495A3.5,3.5,0,0,1,387.923,867.59Zm11.008-8.029a6.654,6.654,0,0,0-6.654-6.654h-8.782a6.655,6.655,0,0,0-6.655,6.654v8.784A6.654,6.654,0,0,0,383.495,875h8.782a6.654,6.654,0,0,0,6.654-6.654Zm-2.084,8.784a4.57,4.57,0,0,1-4.57,4.57h-8.782a4.57,4.57,0,0,1-4.571-4.57v-8.784a4.571,4.571,0,0,1,4.571-4.57h8.782a4.57,4.57,0,0,1,4.57,4.57Z" transform="translate(-376.84 -852.907)" fill="#dcaa1e"/>
  </g>
</svg>
