<svg id="Group_4816" data-name="Group 4816" xmlns="http://www.w3.org/2000/svg" width="22.654" height="20.681" viewBox="0 0 22.654 20.681">
  <g id="Group_4801" data-name="Group 4801" transform="translate(0 0)">
    <g id="Group_4786" data-name="Group 4786" transform="translate(0 0)">
      <g id="Group_4785" data-name="Group 4785">
        <path id="Path_10249" data-name="Path 10249" d="M462.438,869.077c0-3.552-2.208-6.431-4.932-6.431h-12.79c-2.723,0-4.932,2.88-4.932,6.431V876.9c0,3.552,2.208,6.431,4.932,6.431h12.79c2.724,0,4.932-2.879,4.932-6.431Zm-8.069,4.3-5.1,3.648c-.222.156-.422-.052-.422-.381v-7.49c0-.333.206-.542.428-.377l5.136,3.841A.507.507,0,0,1,454.368,873.38Z" transform="translate(-439.784 -862.646)" fill="#dcaa1e"/>
      </g>
    </g>
  </g>
</svg>
