<svg xmlns="http://www.w3.org/2000/svg" width="31" height="31" viewBox="0 0 31 31">
  <g id="Group_4908" data-name="Group 4908" transform="translate(-333.814 -5008)">
    <path id="Path_10257" data-name="Path 10257" d="M3.6,0H27.4A3.6,3.6,0,0,1,31,3.6V27.4A3.6,3.6,0,0,1,27.4,31H3.6A3.6,3.6,0,0,1,0,27.4V3.6A3.6,3.6,0,0,1,3.6,0Z" transform="translate(333.814 5008)" fill="#d7970c"/>
    <g id="Group_4796" data-name="Group 4796" transform="translate(343.186 5030.531) rotate(-90)">
      <g id="Group_3731" data-name="Group 3731" transform="translate(0 0)">
        <path id="Path_1572" data-name="Path 1572" d="M.678,14.081a.679.679,0,0,1-.5-1.132L5.49,7.04.174,1.133A.678.678,0,0,1,1.183.225L6.908,6.587a.682.682,0,0,1,0,.908L1.183,13.857A.682.682,0,0,1,.678,14.081Z" transform="translate(0 7.081) rotate(-90)" fill="#fff"/>
        <path id="Path_1573" data-name="Path 1573" d="M.678,14.081a.679.679,0,0,1-.5-1.132L5.49,7.04.174,1.133A.678.678,0,1,1,1.183.225L6.908,6.587a.682.682,0,0,1,0,.908L1.183,13.857A.682.682,0,0,1,.678,14.081Z" transform="translate(0 12.51) rotate(-90)" fill="#fff"/>
      </g>
    </g>
  </g>
</svg>
