<svg xmlns="http://www.w3.org/2000/svg" xmlns:xlink="http://www.w3.org/1999/xlink" width="75.333" height="75.333" viewBox="0 0 75.333 75.333">
  <defs>
    <filter id="Path_10091" x="0" y="0" width="75.333" height="75.333" filterUnits="userSpaceOnUse">
      <feOffset dy="3" input="SourceAlpha"/>
      <feGaussianBlur stdDeviation="3" result="blur"/>
      <feFlood flood-opacity="0.161"/>
      <feComposite operator="in" in2="blur"/>
      <feComposite in="SourceGraphic"/>
    </filter>
  </defs>
  <g id="Group_5630" data-name="Group 5630" transform="translate(-1817 -6553.667)">
    <g id="Group_5629" data-name="Group 5629">
      <g id="Group_5628" data-name="Group 5628">
        <g id="Group_4820" data-name="Group 4820" transform="translate(3885 352)">
          <g transform="matrix(1, 0, 0, 1, -2068, 6201.67)" filter="url(#Path_10091)">
            <g id="Path_10091-2" data-name="Path 10091" transform="translate(9 6)" fill="none">
              <path d="M28.667,0A28.667,28.667,0,1,1,0,28.667,28.667,28.667,0,0,1,28.667,0Z" stroke="none"/>
              <path d="M 28.666748046875 2.999996185302734 C 25.200439453125 2.999996185302734 21.83940887451172 3.678207397460938 18.67700958251953 5.015789031982422 C 15.62098693847656 6.308376312255859 12.87576675415039 8.159458160400391 10.51761627197266 10.51761627197266 C 8.159458160400391 12.87576675415039 6.308376312255859 15.62098693847656 5.015789031982422 18.67700958251953 C 3.678207397460938 21.83940887451172 2.999996185302734 25.200439453125 2.999996185302734 28.666748046875 C 2.999996185302734 32.133056640625 3.678207397460938 35.49408721923828 5.015789031982422 38.65648651123047 C 6.308376312255859 41.71250915527344 8.159458160400391 44.45772933959961 10.51761627197266 46.81587982177734 C 12.87576675415039 49.17403793334961 15.62098693847656 51.02511596679688 18.67700958251953 52.31770706176758 C 21.83940887451172 53.65528869628906 25.200439453125 54.33349609375 28.666748046875 54.33349609375 C 32.133056640625 54.33349609375 35.49408721923828 53.65528869628906 38.65648651123047 52.31770706176758 C 41.71250915527344 51.02511596679688 44.45772933959961 49.17403793334961 46.81587982177734 46.81587982177734 C 49.17403793334961 44.45772933959961 51.02511596679688 41.71250915527344 52.31770706176758 38.65648651123047 C 53.65528869628906 35.49408721923828 54.33349609375 32.133056640625 54.33349609375 28.666748046875 C 54.33349609375 25.200439453125 53.65528869628906 21.83940887451172 52.31770706176758 18.67700958251953 C 51.02511596679688 15.62098693847656 49.17403793334961 12.87576675415039 46.81587982177734 10.51761627197266 C 44.45772933959961 8.159458160400391 41.71250915527344 6.308376312255859 38.65648651123047 5.015789031982422 C 35.49408721923828 3.678207397460938 32.133056640625 2.999996185302734 28.666748046875 2.999996185302734 M 28.666748046875 -3.814697265625e-06 C 44.49895858764648 -3.814697265625e-06 57.33349990844727 12.83453750610352 57.33349990844727 28.666748046875 C 57.33349990844727 44.49895858764648 44.49895858764648 57.33349990844727 28.666748046875 57.33349990844727 C 12.83453750610352 57.33349990844727 -3.814697265625e-06 44.49895858764648 -3.814697265625e-06 28.666748046875 C -3.814697265625e-06 12.83453750610352 12.83453750610352 -3.814697265625e-06 28.666748046875 -3.814697265625e-06 Z" stroke="none" fill="#d7970c"/>
            </g>
          </g>
          <g id="Group_4819" data-name="Group 4819" transform="translate(-2040.225 6229.268)">
            <path id="Path_10274" data-name="Path 10274" d="M-2039,6235.286V6223" transform="translate(2048.69 -6218.761)" fill="none" stroke="#d7970c" stroke-linecap="round" stroke-width="4"/>
            <path id="Path_10275" data-name="Path 10275" d="M-2054,6182l9.641-9.084,9.588,9.084" transform="translate(2054 -6172.917)" fill="none" stroke="#d7970c" stroke-linecap="round" stroke-linejoin="round" stroke-width="4"/>
          </g>
        </g>
      </g>
    </g>
  </g>
</svg>
